<svg xmlns="http://www.w3.org/2000/svg" width="119" height="40" fill="none" viewBox="0 0 119 40"><path fill="#07041d" d="M2.372 11.104c-1.333 0-2.372-.88-2.305-2.238.025-.604.277-1.35.545-1.886l.57.276c-.26.537-.453 1.09-.461 1.601-.017.88.62 1.493 1.651 1.493 1.275 0 1.853-.688 1.795-2.046-.11-2.683-.202-4.292-.269-4.997l.663-.142c.067.696.15 2.498.26 5.106.067 1.785-.822 2.833-2.449 2.833M7.456 9c-1.249 0-1.568-.637-1.542-1.97.008-.981-.042-3.018-.151-3.723l.67-.142c.101.687.16 2.9.143 3.79-.025.955.025 1.29.88 1.29h.042l.042.378L7.498 9zm-.038 0v-.755h.076c1.316 0 1.634-.167 1.777-.544.109-.286.025-.789-.05-1.283l.62-.118c.11.554.11 1.342.11 1.342.074.394.334.603.762.603h.059l.042.378-.042.377h-.059c-.486 0-.88-.277-1.081-.662C9.363 8.832 8.76 9 7.494 9zm.243-3.949.596-.595.595.595-.595.595c-.202-.2-.394-.394-.596-.595m1.501 0 .595-.595.595.595-.595.595zM10.685 9v-.755h.075c1.317 0 1.635-.167 1.778-.544.109-.286.025-.789-.05-1.283l.62-.118c.109.554.109 1.342.109 1.342.075.394.335.603.763.603h.058l.042.378-.042.377h-.058c-.487 0-.88-.277-1.082-.662-.268.494-.872.662-2.138.662zm2.247 1.358-.596.595-.595-.595.595-.595zm-1.5 0-.596.595-.595-.595.595-.595zM20.297 9c-.972-.008-1.584-.352-1.878-1.048C17.297 8.522 16.157 9 14.714 9h-.77v-.755h.77c1.484 0 2.658-.402 3.782-.997q.175-.1.352-.176a4.1 4.1 0 0 1-1.124-.394c-.46-.243-.897-.428-1.333-.428-.511-.008-.913.369-1.081.704l-.453-.31c.36-.73.906-1.115 1.56-1.106.51.008.922.217 1.55.536.545.277.998.52 1.619.646l.025.662c-.202.059-.386.15-.688.31.252.327.721.545 1.375.553h.084l.042.378-.042.377zm-4.167 1.274.596-.595.595.595-.595.596zM20.297 9v-.755h.335c1.224 0 1.635-.226 1.635-.737-.008-.394-.335-1.317-.453-1.56l.604-.318c.176.36.503 1.274.495 1.878C22.904 8.48 22.192 9 20.724 9zm2.188 1.375-.595.595-.596-.595.596-.595zm-1.5 0-.596.595-.595-.595.595-.595zm4.398-1.35c-.99 0-1.601-.36-1.878-.595l.327-.553c.243.134.687.427 1.492.427.662 0 1.023-.235 1.115-.419.185-.402-.235-1.333-1.702-2.415l.378-.653c1.509 1.14 2.288 2.464 1.87 3.403-.236.528-.881.805-1.602.805m7.376 2.314c-1.476 0-2.54-.922-2.473-2.431.025-.704.319-1.484.553-1.954l.57.269c-.243.52-.46 1.123-.47 1.685-.016 1.098.638 1.677 1.82 1.677 1.09 0 1.97-.52 2.054-.814-.075-.184-.838-.737-1.668-1.081l.159-.713c.771.16 1.476.268 2.163.268h.201l.042.378-.042.377h-.201c-.218 0-.436-.008-.645-.034.368.252.645.537.637.83-.034.772-1.25 1.543-2.7 1.543M35.517 9v-.755h.436c.922 0 1.274-.243 1.266-.737 0-.394-.336-1.325-.445-1.56l.604-.318c.168.36.495 1.3.495 1.903-.009.972-.704 1.467-1.92 1.467zm.73-4.485.595-.596c.2.202.394.394.595.596l-.595.595zM40.5 9c-1.25 0-1.568-.637-1.543-1.97.009-.981-.041-3.018-.15-3.723l.67-.142c.1.687.16 2.9.143 3.79-.025.955.025 1.29.88 1.29h.042l.042.378-.042.377zm-.038 0v-.755h.436c.922 0 1.274-.243 1.266-.737 0-.394-.336-1.325-.445-1.56l.604-.318c.168.36.495 1.3.495 1.903-.009.972-.704 1.467-1.92 1.467zm.033 1.383.596-.595.595.595-.595.596zM45.859 9c-.227 0-.411-.059-.562-.15v.125c0 1.014-.981 1.978-2.264 2.431l-.285-.654c1.099-.377 1.903-1.165 1.903-1.777 0-.344-.251-1.409-.427-2.096l.645-.243c.084.268.16.553.218.847.168.553.378.762.772.762h.058l.042.378-.042.377zM43.82 5.21l.596-.595c.2.202.394.394.595.596l-.595.595zM45.833 9v-.755h.075c1.316 0 1.635-.167 1.778-.544.109-.286.025-.789-.05-1.283l.62-.118c.109.554.109 1.342.109 1.342.075.394.335.603.763.603h.058l.042.378-.042.377h-.058c-.487 0-.88-.277-1.082-.662-.268.494-.872.662-2.138.662zm2.741 1.375-.595.595-.595-.595.595-.595zm-1.5 0-.596.595-.595-.595.595-.595c.202.2.394.394.596.595M49.1 9l.008-.755h.16c.452 0 .854-.251 1.114-.78.403-.812.906-1.559 1.56-1.592 1.45-.084 1.928 2.431.712 3.085-.427.226-1.148-.042-2.062-.629-.344.445-.805.671-1.342.671zm1.836-1.266c.737.461 1.3.68 1.509.562.561-.285.293-1.736-.445-1.736-.327 0-.67.436-1.064 1.174m4.583 3.018c1.099-.377 1.903-1.165 1.903-1.777 0-.344-.251-1.409-.427-2.096l.645-.243c.235.771.428 1.76.428 2.339 0 1.014-.98 1.978-2.264 2.431zM60.682 9c-1.25 0-1.568-.637-1.543-1.97.008-.981-.042-3.018-.15-3.723l.67-.142c.1.687.16 2.9.142 3.79-.025.955.026 1.29.88 1.29h.043l.042.378-.042.377zm4.356 0c-.637 0-1.106-.36-1.651-1.149l-.017.042C63.093 8.665 62.154 9 60.788 9h-.21v-.755h.21c1.123 0 1.794-.2 1.962-.603.226-.545-.453-1.534-1.753-2.582l.093-.713 3.06-1.325.218.62-2.625 1.141c.495.41 1.048 1.014 1.384 1.635.838 1.366 1.232 1.827 1.911 1.827h.1l.043.378-.042.377zm.035 0v-.755h.118c.385 0 .729-.016 1.022-.05-.335-.293-.536-.662-.503-1.081.034-.487.302-.964.646-1.283l-.277-.076.26-.704c3.882 1.325 3.983 2.205 3.706 3.144-.277.922-1.727 1.006-2.876.57-.503.16-1.165.235-1.978.235zm1.258-1.928c0 .36.352.696.822.93.452-.176.678-.444.737-.805.059-.486-.193-.997-.645-1.056-.428-.059-.914.47-.914.93m1.677 1.215c.687.143 1.358.06 1.492-.369.1-.326-.151-.788-1.048-1.274.05.201.067.42.034.637q-.09.63-.478 1.006m3.132.663c.126-1.124.017-4.938-.092-5.643l.67-.142c.101.696.244 4.56.101 5.869zm.737 1.802c1.099-.377 1.904-1.165 1.904-1.777 0-.344-.252-1.409-.428-2.096l.646-.243c.234.771.427 1.76.427 2.339 0 1.014-.98 1.978-2.264 2.431zM13.626 30.43c-.52 0-.926-.231-1.292-.598.02.193.02.367.02.54 0 2.7-2.141 5.592-6.133 5.592-3.914 0-5.804-2.7-5.688-5.592.058-1.639.733-3.413 1.273-4.493l1.31.617c-.558 1.196-1.06 2.584-1.079 3.876C2 32.898 3.503 34.23 6.221 34.23c3.298 0 4.667-2.064 4.667-3.857 0-1.35-.636-3.529-1.06-4.82l1.426-.656c.212.636.386 1.234.52 1.774.444 1.465.869 2.024 1.852 2.024h.116l.096.868-.096.868zm-8.35-5.226 1.37-1.369 1.369 1.37-1.37 1.368zm8.306 5.226-.097-.868.097-.867h1.099c2.815 0 3.76-.521 3.76-1.697-.02-.907-.771-3.028-1.041-3.587l1.388-.733c.405.83 1.157 2.931 1.138 4.32-.02 2.236-1.659 3.432-5.033 3.432zm6.267 3.124-1.37 1.369-1.369-1.37 1.37-1.368zm-3.452 0-1.37 1.369-1.368-1.37 1.369-1.368zm16.046-3.124c-1.639 0-2.526-.983-2.93-2.449-1.273 1.928-3.915 2.757-6.827 3.027l-.424-1.696a24 24 0 0 0 1.735-.251c.521-1.967-.81-6.036-2.314-9.506l1.312-.868c1.85 3.991 2.892 7.848 2.526 9.988 1.909-.598 3.258-1.639 3.258-3.374 0-2.777-.23-5.014-.578-7.964l1.543-.328c.366 2.97.675 5.457.578 8.273.02 2.198.482 3.413 2.14 3.413h.193v1.735zm.025 0v-1.735h1.002c2.121 0 2.931-.56 2.912-1.697 0-.907-.771-3.047-1.022-3.587l1.388-.733c.386.83 1.138 2.99 1.138 4.377-.02 2.237-1.62 3.375-4.416 3.375zm1.677-10.316 1.37-1.37 1.368 1.37-1.369 1.369zm7.042 10.2c.27-2.584.02-9.641-.231-11.26l1.542-.329c.25 1.6.579 8.774.232 11.782zm-2.603-12.668c.424-1.042 1.08-1.659 1.85-1.697 1.004-.058 1.505.578 2.315.578.482 0 1.022-.308 1.35-.79l.636.559c-.502.752-1.254 1.215-1.986 1.215-.964 0-1.427-.617-2.256-.579-.482.02-.926.405-1.196 1.1zM46.02 37.39c-.077-1.022-.636-5.94-.482-8.735.077-1.37 1.234-2.218 2.468-1.793.887-1.832 2.044-3.548 3.529-3.625 3.355-.193 4.473 5.592 1.658 7.096-.925.5-2.41.038-5.476-1.755-.27-.154-.598-.058-.617.366-.097 2.603.405 7.212.443 8.176zm6.691-8.58c1.292-.656.694-3.992-1.003-3.992-.829 0-1.716 1.272-2.468 2.7 1.736 1.118 3.008 1.561 3.471 1.291m8.09 1.619c-2.873 0-3.606-1.465-3.548-4.532.02-2.256-.096-6.941-.347-8.561l1.543-.328c.231 1.581.366 6.672.327 8.716-.058 2.198.058 2.97 2.025 2.97h.096l.097.867-.096.868zm-.087 0v-1.735h.173c3.027 0 3.76-.386 4.088-1.254.25-.655.058-1.812-.116-2.95l1.427-.27c.25 1.273.25 3.085.25 3.085.174.906.772 1.389 1.756 1.389h.135l.096.867-.096.868h-.135c-1.119 0-2.025-.636-2.488-1.523-.617 1.137-2.005 1.523-4.917 1.523zm5.167 3.124-1.369 1.369-1.369-1.37 1.37-1.368zm-3.451 0-1.37 1.369-1.368-1.37 1.369-1.368zm5.797-3.124v-1.735h.771c2.816 0 3.76-.521 3.76-1.697-.019-.907-.77-3.028-1.04-3.587l1.388-.733c.404.83 1.156 2.931 1.137 4.32-.02 2.236-1.658 3.432-5.033 3.432zm4.994 2.603-1.292 1.292c-.443-.424-.868-.868-1.311-1.292l1.311-1.311c.424.443.868.868 1.292 1.311m-3.529 0c-.443.424-.867.868-1.31 1.292l-1.293-1.292c.424-.443.868-.868 1.292-1.311zm1.64 2.102-1.177 1.157-1.157-1.157 1.157-1.176z"/><g clip-path="url(#a)"><path fill="#002b67" d="M83.744 2.048A2.03 2.03 0 0 1 85.772.019c7.245-.011 14.493-.05 21.738.03 5.42.071 10.028 4.74 10.462 10.063.116 3.668.083 7.341-.022 11.01-.049 5.394-4.921 10.409-10.374 10.238-5.009.012-10.023-.016-15.038.006-.013 2.213.023 4.425-.002 6.64-.012 1.107-.929 1.98-2.035 1.974-2.247-.01-4.493.009-6.74-.008-.03-2.268-.006-4.533-.017-6.8-.006-1.097.852-2.012 1.95-2.03 2.268-.04 4.541.008 6.811.004.038-2.203.028-4.405.026-6.61a2.016 2.016 0 0 1 2.008-2.019c3.971-.02 7.941-.015 11.912 0 1.483.006 2.746-1.062 2.812-2.544.109-2.454-.012-5.13-.012-5.434 0-.278.12-1.855.033-3.42-.074-1.337-1.256-2.21-2.594-2.196-6.977.07-13.953.042-20.93.006a2.024 2.024 0 0 1-2.015-2.02q-.002-2.43 0-4.861"/><path fill="orange" d="M92.532 38.01c.017-2.285-.04-4.639-.027-6.861-2.27.004-4.543-.045-6.811-.006-1.098.02-1.956.934-1.95 2.032.01 2.266-.012 4.531.017 6.8 2.247.016 4.493-.003 6.74.008 1.106.005 2.022-.868 2.03-1.974"/></g><defs><clipPath id="a"><path fill="#fff" d="M83.723 0h34.322v40H83.723z"/></clipPath></defs></svg>