<svg xmlns="http://www.w3.org/2000/svg">
    <!-- Play Colored -->
    <symbol id="play-colored" viewBox="0 0 46 47">
        <svg width="46" height="47" viewBox="0 0 46 47" fill="none" xmlns="http://www.w3.org/2000/svg">
            <g filter="url(#filter0_dii_1578_255)">
                <rect x="2.7002" width="40" height="40" rx="20" fill="#036666"/>
                <path d="M27.6982 19.4053C28.0882 19.7055 28.0882 20.2945 27.6982 20.5947L20.4072 26.207C19.9141 26.5862 19.2002 26.2345 19.2002 25.6123V14.3877C19.2002 13.7655 19.9141 13.4138 20.4072 13.793L27.6982 19.4053Z"
                      stroke="white" stroke-width="1.5"/>
            </g>
            <defs>
                <filter id="filter0_dii_1578_255" x="0.000195265" y="-1" width="45.4" height="47.7"
                        filterUnits="userSpaceOnUse" color-interpolation-filters="sRGB">
                    <feFlood flood-opacity="0" result="BackgroundImageFix"/>
                    <feColorMatrix in="SourceAlpha" type="matrix" values="0 0 0 0 0 0 0 0 0 0 0 0 0 0 0 0 0 0 127 0"
                                   result="hardAlpha"/>
                    <feOffset dy="4"/>
                    <feGaussianBlur stdDeviation="1.35"/>
                    <feComposite in2="hardAlpha" operator="out"/>
                    <feColorMatrix type="matrix" values="0 0 0 0 0.0117647 0 0 0 0 0.4 0 0 0 0 0.4 0 0 0 0.1 0"/>
                    <feBlend mode="normal" in2="BackgroundImageFix" result="effect1_dropShadow_1578_255"/>
                    <feBlend mode="normal" in="SourceGraphic" in2="effect1_dropShadow_1578_255" result="shape"/>
                    <feColorMatrix in="SourceAlpha" type="matrix" values="0 0 0 0 0 0 0 0 0 0 0 0 0 0 0 0 0 0 127 0"
                                   result="hardAlpha"/>
                    <feMorphology radius="1" operator="erode" in="SourceAlpha" result="effect2_innerShadow_1578_255"/>
                    <feOffset dy="-1"/>
                    <feComposite in2="hardAlpha" operator="arithmetic" k2="-1" k3="1"/>
                    <feColorMatrix type="matrix" values="0 0 0 0 0 0 0 0 0 0 0 0 0 0 0 0 0 0 0.15 0"/>
                    <feBlend mode="normal" in2="shape" result="effect2_innerShadow_1578_255"/>
                    <feColorMatrix in="SourceAlpha" type="matrix" values="0 0 0 0 0 0 0 0 0 0 0 0 0 0 0 0 0 0 127 0"
                                   result="hardAlpha"/>
                    <feOffset dy="2"/>
                    <feComposite in2="hardAlpha" operator="arithmetic" k2="-1" k3="1"/>
                    <feColorMatrix type="matrix" values="0 0 0 0 1 0 0 0 0 1 0 0 0 0 1 0 0 0 0.2 0"/>
                    <feBlend mode="normal" in2="effect2_innerShadow_1578_255" result="effect3_innerShadow_1578_255"/>
                </filter>
            </defs>
        </svg>
    </symbol>

    <!-- Cost -->
    <symbol id="percentage" viewBox="0 0 93 44">
        <g filter="url(#filter0_di_1578_262)">
            <path d="M25.0536 40C22.9301 40 21.1128 39.2139 19.6018 37.6417C18.1725 36.1511 17.4579 34.4359 17.4579 32.4962V9.18836C17.4579 8.51455 17.1516 8.03471 16.539 7.74885C16.3349 7.64676 16.1205 7.59571 15.8959 7.59571H11.2404C9.99489 7.59571 9.00459 8.11639 8.26952 9.15773C7.82032 9.79071 7.59571 10.4849 7.59571 11.2404C7.59571 12.486 8.11639 13.4763 9.15773 14.2113C9.79071 14.6605 10.4849 14.8851 11.2404 14.8851H13.9051C15.2527 14.8239 16.2736 14.2726 16.9678 13.2312V16.1103C16.9678 18.0704 16.2021 19.6835 14.6707 20.9495C13.4048 21.9704 11.9653 22.4809 10.3522 22.4809C7.4732 22.4809 5.02297 21.4089 3.00153 19.2649C2.32772 18.5299 1.77642 17.7437 1.34763 16.9066C0.449209 15.1302 0 13.2517 0 11.2711C0 7.86115 1.27616 5.04339 3.82848 2.81776C4.37979 2.32772 4.96172 1.89893 5.57427 1.53139C7.28943 0.510465 9.17815 0 11.2404 0H16.2328C18.928 0.0816743 21.123 1.12302 22.8178 3.12404C24.2471 4.81879 24.9923 6.83002 25.0536 9.15773V40Z"
                  fill="#FFFEFD"/>
            <path d="M51.2882 40C49.1647 40 47.3474 39.2139 45.8364 37.6417C44.4071 36.1511 43.6925 34.4359 43.6925 32.4962V9.18836C43.6925 8.51455 43.3862 8.03471 42.7737 7.74885C42.5695 7.64676 42.3551 7.59571 42.1305 7.59571H37.475C36.2295 7.59571 35.2392 8.11639 34.5041 9.15773C34.0549 9.79071 33.8303 10.4849 33.8303 11.2404C33.8303 12.486 34.351 13.4763 35.3923 14.2113C36.0253 14.6605 36.7195 14.8851 37.475 14.8851H40.1397C41.4873 14.8239 42.5082 14.2726 43.2024 13.2312V16.1103C43.2024 18.0704 42.4368 19.6835 40.9054 20.9495C39.6394 21.9704 38.1999 22.4809 36.5868 22.4809C33.7078 22.4809 31.2576 21.4089 29.2361 19.2649C28.5623 18.5299 28.011 17.7437 27.5822 16.9066C26.6838 15.1302 26.2346 13.2517 26.2346 11.2711C26.2346 7.86115 27.5108 5.04339 30.0631 2.81776C30.6144 2.32772 31.1963 1.89893 31.8089 1.53139C33.524 0.510465 35.4128 0 37.475 0H42.4674C45.1626 0.0816743 47.3576 1.12302 49.0524 3.12404C50.4817 4.81879 51.2269 6.83002 51.2882 9.15773V40Z"
                  fill="#FFFEFD"/>
        </g>
        <path d="M68.5881 31.9C64.9281 31.9 62.2881 29.08 62.2881 25.6C62.2881 22.12 64.9281 19.3 68.5881 19.3C72.2781 19.3 74.9181 22.12 74.9181 25.6C74.9181 29.08 72.2781 31.9 68.5881 31.9ZM72.9081 39.76H70.4181L81.8781 19.48H84.3681L72.9081 39.76ZM68.5881 29.71C70.6281 29.71 72.3681 28.27 72.3681 25.6C72.3681 22.9 70.6281 21.49 68.5881 21.49C66.5781 21.49 64.8381 22.9 64.8381 25.6C64.8381 28.27 66.5781 29.71 68.5881 29.71ZM86.5281 40C82.8381 40 80.2281 37.21 80.2281 33.7C80.2281 30.22 82.8381 27.4 86.5281 27.4C90.2181 27.4 92.8281 30.22 92.8281 33.7C92.8281 37.21 90.2181 40 86.5281 40ZM86.5281 37.81C88.5681 37.81 90.2781 36.37 90.2781 33.7C90.2781 31.03 88.5681 29.62 86.5281 29.62C84.5181 29.62 82.7481 31.03 82.7481 33.7C82.7481 36.37 84.5181 37.81 86.5281 37.81Z"
              fill="#FFFEFD"/>
        <defs>
            <filter id="filter0_di_1578_262" x="0" y="0" width="51.2881" height="43.1363" filterUnits="userSpaceOnUse"
                    color-interpolation-filters="sRGB">
                <feFlood flood-opacity="0" result="BackgroundImageFix"/>
                <feColorMatrix in="SourceAlpha" type="matrix" values="0 0 0 0 0 0 0 0 0 0 0 0 0 0 0 0 0 0 127 0"
                               result="hardAlpha"/>
                <feOffset dy="3.13629"/>
                <feComposite in2="hardAlpha" operator="out"/>
                <feColorMatrix type="matrix" values="0 0 0 0 0 0 0 0 0 0 0 0 0 0 0 0 0 0 0.25 0"/>
                <feBlend mode="normal" in2="BackgroundImageFix" result="effect1_dropShadow_1578_262"/>
                <feBlend mode="normal" in="SourceGraphic" in2="effect1_dropShadow_1578_262" result="shape"/>
                <feColorMatrix in="SourceAlpha" type="matrix" values="0 0 0 0 0 0 0 0 0 0 0 0 0 0 0 0 0 0 127 0"
                               result="hardAlpha"/>
                <feOffset dy="1.56815"/>
                <feGaussianBlur stdDeviation="0.548851"/>
                <feComposite in2="hardAlpha" operator="arithmetic" k2="-1" k3="1"/>
                <feColorMatrix type="matrix" values="0 0 0 0 0 0 0 0 0 0 0 0 0 0 0 0 0 0 0.25 0"/>
                <feBlend mode="normal" in2="shape" result="effect2_innerShadow_1578_262"/>
            </filter>
        </defs>
    </symbol>

    <!-- Bar -->
    <symbol id="bar" viewBox="0 0 152 81">
        <svg width="152" height="81" viewBox="0 0 152 81" fill="none" xmlns="http://www.w3.org/2000/svg">
            <style>
                .bar {
                fill: white;
                animation: colorHighlight 5s infinite;
                }

                .bar-1 { animation-delay: 0s; }
                .bar-2 { animation-delay: 1s; }
                .bar-3 { animation-delay: 2s; }
                .bar-4 { animation-delay: 3s; }
                .bar-5 { animation-delay: 4s; }

                @keyframes colorHighlight {
                0%, 15% { fill: #00B28F; }
                20%, 100% { fill: white; }
                }
            </style>
            <g filter="url(#filter0_i_1578_266)">
                <rect width="24" height="81" rx="12" fill="#18203A"/>
            </g>
            <rect class="bar bar-1" y="13" width="24" height="68" rx="12"/>

            <g filter="url(#filter1_i_1578_266)">
                <rect x="32" width="24" height="81" rx="12" fill="#18203A"/>
            </g>
            <rect class="bar bar-2" x="32" y="5" width="24" height="76" rx="12"/>

            <g filter="url(#filter2_i_1578_266)">
                <rect x="64" width="24" height="81" rx="12" fill="#18203A"/>
            </g>
            <rect class="bar bar-3" x="64" y="17" width="24" height="64" rx="12"/>

            <g filter="url(#filter3_i_1578_266)">
                <rect x="96" width="24" height="81" rx="12" fill="#18203A"/>
            </g>
            <rect class="bar bar-4" x="96" y="13" width="24" height="68" rx="12"/>

            <g filter="url(#filter4_i_1578_266)">
                <rect x="128" width="24" height="81" rx="12" fill="#18203A"/>
            </g>
            <rect class="bar bar-5" x="128" y="25" width="24" height="56" rx="12"/>

            <defs>
                <filter id="filter0_i_1578_266" x="0" y="-0.1" width="24" height="81.1" filterUnits="userSpaceOnUse"
                        color-interpolation-filters="sRGB">
                    <feFlood flood-opacity="0" result="BackgroundImageFix"/>
                    <feBlend mode="normal" in="SourceGraphic" in2="BackgroundImageFix" result="shape"/>
                    <feColorMatrix in="SourceAlpha" type="matrix" values="0 0 0 0 0 0 0 0 0 0 0 0 0 0 0 0 0 0 127 0"
                                   result="hardAlpha"/>
                    <feOffset dy="-2"/>
                    <feGaussianBlur stdDeviation="0.05"/>
                    <feComposite in2="hardAlpha" operator="arithmetic" k2="-1" k3="1"/>
                    <feColorMatrix type="matrix" values="0 0 0 0 0 0 0 0 0 0 0 0 0 0 0 0 0 0 0.25 0"/>
                    <feBlend mode="normal" in2="shape" result="effect1_innerShadow_1578_266"/>
                </filter>
                <filter id="filter1_i_1578_266" x="32" y="-0.1" width="24" height="81.1" filterUnits="userSpaceOnUse"
                        color-interpolation-filters="sRGB">
                    <feFlood flood-opacity="0" result="BackgroundImageFix"/>
                    <feBlend mode="normal" in="SourceGraphic" in2="BackgroundImageFix" result="shape"/>
                    <feColorMatrix in="SourceAlpha" type="matrix" values="0 0 0 0 0 0 0 0 0 0 0 0 0 0 0 0 0 0 127 0"
                                   result="hardAlpha"/>
                    <feOffset dy="-2"/>
                    <feGaussianBlur stdDeviation="0.05"/>
                    <feComposite in2="hardAlpha" operator="arithmetic" k2="-1" k3="1"/>
                    <feColorMatrix type="matrix" values="0 0 0 0 0 0 0 0 0 0 0 0 0 0 0 0 0 0 0.25 0"/>
                    <feBlend mode="normal" in2="shape" result="effect1_innerShadow_1578_266"/>
                </filter>
                <filter id="filter2_i_1578_266" x="64" y="-0.1" width="24" height="81.1" filterUnits="userSpaceOnUse"
                        color-interpolation-filters="sRGB">
                    <feFlood flood-opacity="0" result="BackgroundImageFix"/>
                    <feBlend mode="normal" in="SourceGraphic" in2="BackgroundImageFix" result="shape"/>
                    <feColorMatrix in="SourceAlpha" type="matrix" values="0 0 0 0 0 0 0 0 0 0 0 0 0 0 0 0 0 0 127 0"
                                   result="hardAlpha"/>
                    <feOffset dy="-2"/>
                    <feGaussianBlur stdDeviation="0.05"/>
                    <feComposite in2="hardAlpha" operator="arithmetic" k2="-1" k3="1"/>
                    <feColorMatrix type="matrix" values="0 0 0 0 0 0 0 0 0 0 0 0 0 0 0 0 0 0 0.25 0"/>
                    <feBlend mode="normal" in2="shape" result="effect1_innerShadow_1578_266"/>
                </filter>
                <filter id="filter3_i_1578_266" x="96" y="-0.1" width="24" height="81.1" filterUnits="userSpaceOnUse"
                        color-interpolation-filters="sRGB">
                    <feFlood flood-opacity="0" result="BackgroundImageFix"/>
                    <feBlend mode="normal" in="SourceGraphic" in2="BackgroundImageFix" result="shape"/>
                    <feColorMatrix in="SourceAlpha" type="matrix" values="0 0 0 0 0 0 0 0 0 0 0 0 0 0 0 0 0 0 127 0"
                                   result="hardAlpha"/>
                    <feOffset dy="-2"/>
                    <feGaussianBlur stdDeviation="0.05"/>
                    <feComposite in2="hardAlpha" operator="arithmetic" k2="-1" k3="1"/>
                    <feColorMatrix type="matrix" values="0 0 0 0 0 0 0 0 0 0 0 0 0 0 0 0 0 0 0.25 0"/>
                    <feBlend mode="normal" in2="shape" result="effect1_innerShadow_1578_266"/>
                </filter>
                <filter id="filter4_i_1578_266" x="128" y="-0.1" width="24" height="81.1" filterUnits="userSpaceOnUse"
                        color-interpolation-filters="sRGB">
                    <feFlood flood-opacity="0" result="BackgroundImageFix"/>
                    <feBlend mode="normal" in="SourceGraphic" in2="BackgroundImageFix" result="shape"/>
                    <feColorMatrix in="SourceAlpha" type="matrix" values="0 0 0 0 0 0 0 0 0 0 0 0 0 0 0 0 0 0 127 0"
                                   result="hardAlpha"/>
                    <feOffset dy="-2"/>
                    <feGaussianBlur stdDeviation="0.05"/>
                    <feComposite in2="hardAlpha" operator="arithmetic" k2="-1" k3="1"/>
                    <feColorMatrix type="matrix" values="0 0 0 0 0 0 0 0 0 0 0 0 0 0 0 0 0 0 0.25 0"/>
                    <feBlend mode="normal" in2="shape" result="effect1_innerShadow_1578_266"/>
                </filter>
            </defs>
        </svg>
    </symbol>

    <!-- Cup -->
    <symbol id="cup" viewBox="0 0 40 40">
        <path fill-rule="evenodd" clip-rule="evenodd"
              d="M19.9999 2.08334C16.9537 2.08334 14.4352 2.35166 12.497 2.67867L12.2723 2.71639C10.5886 2.99823 9.18911 3.23249 8.09488 4.58015C7.39314 5.44442 7.16672 6.37844 7.11453 7.42185L6.29444 7.69521C5.52256 7.95245 4.84602 8.17792 4.30929 8.42762C3.72905 8.69755 3.19729 9.04524 2.79078 9.60926C2.38427 10.1733 2.22259 10.7877 2.15001 11.4235C2.08288 12.0117 2.08294 12.7248 2.08301 13.5384L2.08302 13.7805C2.083 14.4502 2.08298 15.0416 2.13242 15.5363C2.18601 16.0725 2.30466 16.5937 2.60106 17.0974C2.89746 17.6011 3.29547 17.958 3.73812 18.2652C4.14656 18.5486 4.66361 18.8359 5.24903 19.1611L9.65097 21.6066C10.55 23.3753 11.7849 24.9522 13.4833 26.0913C14.9617 27.0829 16.736 27.7053 18.8377 27.8717C18.7809 28.0145 18.7497 28.1703 18.7497 28.3333V31.25H16.366C14.9757 31.25 13.7787 32.2314 13.506 33.5947L13.1416 35.4167H9.99967C9.30932 35.4167 8.74967 35.9763 8.74967 36.6667C8.74967 37.357 9.30932 37.9167 9.99967 37.9167H29.9997C30.69 37.9167 31.2497 37.357 31.2497 36.6667C31.2497 35.9763 30.69 35.4167 29.9997 35.4167H26.8578L26.4934 33.5947C26.2207 32.2314 25.0237 31.25 23.6333 31.25H21.2497V28.3333C21.2497 28.1703 21.2185 28.0145 21.1617 27.8717C23.2636 27.7054 25.0381 27.083 26.5166 26.0913C28.2151 24.9522 29.4501 23.3751 30.3491 21.6062L34.7502 19.1611C35.3357 18.8359 35.8527 18.5486 36.2612 18.2652C36.7038 17.958 37.1018 17.6011 37.3982 17.0974C37.6946 16.5937 37.8133 16.0725 37.8669 15.5363C37.9163 15.0417 37.9163 14.4502 37.9163 13.7806L37.9163 13.5384C37.9163 12.7248 37.9164 12.0117 37.8493 11.4235C37.7767 10.7877 37.615 10.1733 37.2085 9.60926C36.802 9.04524 36.2702 8.69755 35.69 8.42762C35.1533 8.17792 34.4767 7.95245 33.7048 7.69521L32.8853 7.42205C32.8332 6.37856 32.6068 5.44447 31.905 4.58015C30.8108 3.23249 29.4113 2.99823 27.7276 2.71639L27.5029 2.67867C25.5647 2.35166 23.0461 2.08334 19.9999 2.08334ZM24.3083 35.4167L24.0419 34.085C24.003 33.8902 23.832 33.75 23.6333 33.75H16.366C16.1674 33.75 15.9964 33.8902 15.9574 34.085L15.6911 35.4167H24.3083ZM7.14716 10.0462L7.16984 10.0386C7.28913 12.5725 7.57533 15.3729 8.28798 17.9895L6.51182 17.0027C5.86323 16.6424 5.45712 16.4151 5.1635 16.2113C4.8928 16.0235 4.80464 15.9127 4.75573 15.8296C4.70681 15.7464 4.6528 15.6156 4.62003 15.2877C4.58449 14.9321 4.58304 14.4667 4.58302 13.7247L4.58302 13.6039C4.58299 12.7054 4.58487 12.1365 4.63389 11.707C4.67926 11.3095 4.75352 11.1617 4.8189 11.071C4.88429 10.9803 5.00101 10.8631 5.36379 10.6943C5.75571 10.512 6.2948 10.3303 7.14716 10.0462ZM32.83 10.0388C32.7107 12.5725 32.4245 15.3727 31.712 17.9891L33.4875 17.0027C34.136 16.6424 34.5422 16.4151 34.8358 16.2113C35.1065 16.0235 35.1946 15.9127 35.2435 15.8296C35.2925 15.7464 35.3465 15.6156 35.3792 15.2877C35.4148 14.9321 35.4162 14.4667 35.4163 13.7247L35.4163 13.6039C35.4163 12.7054 35.4144 12.1365 35.3654 11.707C35.32 11.3095 35.2458 11.1617 35.1804 11.071C35.115 10.9803 34.9983 10.8631 34.6355 10.6943C34.2436 10.512 33.7045 10.3303 32.8521 10.0462L32.83 10.0388ZM12.9129 5.14383C14.7217 4.83865 17.101 4.58334 19.9999 4.58334C22.8989 4.58334 25.2782 4.83865 27.0869 5.14383C29.0984 5.48322 29.521 5.61018 29.9642 6.15598C30.4009 6.69388 30.4424 7.20262 30.3527 9.46121C30.2033 13.2256 29.7067 17.2879 28.1688 20.3774C27.4097 21.9024 26.4171 23.1478 25.124 24.0151C23.8393 24.8768 22.1817 25.4167 19.9999 25.4167C17.8182 25.4167 16.1606 24.8768 14.8758 24.0151C13.5827 23.1478 12.5902 21.9024 11.8311 20.3774C10.2932 17.2879 9.7966 13.2256 9.64714 9.46121C9.55747 7.20262 9.59895 6.69388 10.0357 6.15598C10.4789 5.61018 10.9014 5.48322 12.9129 5.14383Z"/>
        <path d="M21.5787 10.1001C21.5787 9.69986 21.9032 9.37539 22.3034 9.37539L24.6951 9.37539L24.6951 11.767C24.6951 12.1673 24.3706 12.4918 23.9703 12.4918L21.5787 12.4918L21.5787 10.1001Z"/>
        <path d="M18.4623 17.9997C18.4623 18.4 18.1378 18.7244 17.7376 18.7244L15.346 18.7244L15.346 16.3328C15.346 15.9325 15.6704 15.6081 16.0707 15.6081L18.4623 15.6081L18.4623 17.9997Z"/>
        <path d="M18.4623 13.2164C18.4623 12.8161 18.7868 12.4917 19.187 12.4917L21.5787 12.4918L21.5786 14.8833C21.5786 15.2835 21.2542 15.608 20.8539 15.608L18.4623 15.6081L18.4623 13.2164Z"/>
    </symbol>

    <!-- Arrow Draw -->
    <symbol id="arrow-draw" viewBox="0 0 117 51">
        <path d="M13.1885 3.97006C17.6461 2.70792 22.2063 1.71947 26.8513 1.37069C31.4893 1.00373 36.208 1.34441 40.7343 2.53027C42.9946 3.12507 45.211 3.93005 47.3087 4.98298C49.405 6.03853 51.3867 7.3409 53.1636 8.89414C53.7638 9.41647 54.3374 9.97265 54.8878 10.5506C56.0385 10.0899 57.2024 9.66142 58.38 9.27606C62.8835 7.79431 67.5429 6.85967 72.2254 6.31804C76.9106 5.77794 81.6218 5.62558 86.3139 5.72585C94.5803 5.90332 102.833 6.94508 110.907 8.79732C110.785 8.50879 110.66 8.21874 110.544 7.92646C110.336 7.42667 110.143 6.91827 109.955 6.40876C109.584 5.38599 109.238 4.34976 108.946 3.28813C108.66 2.22276 108.399 1.14392 108.257 -3.18523e-06C109.108 0.776418 109.837 1.61224 110.544 2.46305C111.242 3.31608 111.892 4.19756 112.511 5.08946C112.819 5.53804 113.123 5.98773 113.411 6.44603C113.705 6.90058 113.988 7.36263 114.265 7.82842C114.816 8.75847 115.342 9.70199 115.834 10.6612L116.676 12.2898L115.052 13.1242C114.094 13.6184 113.12 14.0831 112.131 14.5209C111.637 14.7418 111.139 14.9503 110.635 15.1516C110.135 15.3585 109.626 15.5499 109.116 15.7372C108.093 16.106 107.056 16.4494 105.993 16.7395C104.925 17.0265 103.845 17.2854 102.705 17.4288C103.482 16.5838 104.32 15.8543 105.169 15.1529C106.022 14.4571 106.904 13.8095 107.796 13.1925C108.245 12.8855 108.695 12.5827 109.153 12.2955C109.237 12.2419 109.322 12.1925 109.41 12.1378C101.816 10.3093 94.0358 9.21725 86.2178 8.92246C81.6463 8.74767 77.0723 8.82106 72.5457 9.26984C68.019 9.71863 63.5355 10.5439 59.2153 11.8854C58.3786 12.1441 57.5471 12.4305 56.7258 12.7298C57.0927 13.2229 57.441 13.7299 57.7681 14.2492C59.0261 16.2552 59.9791 18.4473 60.6167 20.728C61.8779 25.2954 61.8632 30.1985 60.578 34.7759C59.3037 39.3525 56.6242 43.5925 52.8114 46.5558C50.9088 48.0309 48.7007 49.175 46.3084 49.7415C43.9084 50.3212 41.3563 50.2435 38.9822 49.5408C36.6118 48.8438 34.3727 47.4807 32.7765 45.4868C31.9761 44.4938 31.3699 43.3598 30.9418 42.1739C30.5262 40.9847 30.2844 39.7446 30.212 38.504C30.0527 36.0178 30.5539 33.5226 31.4725 31.2685C32.3878 29.0019 33.6776 26.9409 35.1229 25.0437C38.0189 21.2521 41.6122 18.0284 45.5727 15.407C48.2186 13.6579 51.0318 12.1741 53.9504 10.9411C53.5043 10.4691 53.0423 10.0125 52.5586 9.57501C50.8717 8.04908 48.9701 6.75432 46.9454 5.69084C44.9177 4.63264 42.7654 3.80836 40.5559 3.18663C36.1311 1.94692 31.4864 1.53299 26.8832 1.82155C22.2729 2.09195 17.7161 3.00145 13.2493 4.18798C8.7769 5.37826 4.38581 6.85458 -0.000388141 8.34074C4.35846 6.78605 8.7279 5.23746 13.1885 3.97006ZM46.9476 17.5157C43.152 19.937 39.7148 22.9273 36.9333 26.4475C35.5483 28.2038 34.3375 30.0854 33.4837 32.0992C32.6262 34.1073 32.1687 36.2586 32.2666 38.3999C32.3109 39.4697 32.505 40.524 32.8321 41.525C33.1758 42.5215 33.6609 43.4625 34.3004 44.2888C35.579 45.9482 37.453 47.1566 39.5111 47.7964C41.5703 48.4404 43.8049 48.5492 45.9185 48.0749C48.0467 47.6055 50.064 46.615 51.8362 45.2861C53.6085 43.9573 55.1543 42.3008 56.4069 40.4505C57.6675 38.6047 58.6103 36.5403 59.2604 34.3913C60.5472 30.0856 60.6442 25.4058 59.5113 21.025C58.9365 18.8368 58.0633 16.726 56.8914 14.7907C56.5407 14.2085 56.1563 13.642 55.7529 13.0962C52.6787 14.2816 49.7176 15.7468 46.9476 17.5157Z"/>
    </symbol>

    <!-- Line Beam -->
    <symbol id="line-beam" viewBox="0 0 83 75">
        <path d="M34.2048 70.1664C33.9263 69.0086 33.6428 67.8524 33.3281 66.7021C33.1685 66.0906 33.001 65.478 32.8832 64.8578C32.2581 61.5466 31.6724 58.2256 30.9665 54.9297C30.5224 52.9028 30.0571 50.8805 29.5707 48.8629L28.8319 45.8391L28.0591 42.824C27.8868 42.218 27.6659 41.6272 27.3987 41.0571C27.2997 40.8187 27.1452 40.6077 26.9477 40.4413C26.7502 40.275 26.5155 40.1583 26.263 40.1006C25.567 39.9257 25.0005 40.434 25.0482 41.2862C25.0928 41.8397 25.2067 42.3848 25.3874 42.9089C25.7757 44.1108 26.111 45.3249 26.3933 46.551C26.6801 47.7762 26.9164 49.0133 27.1023 50.2623C27.2055 50.9516 27.2729 51.6783 27.5157 52.3138C28.2892 54.345 28.6093 56.501 29.2101 58.579C29.6557 60.1238 29.9844 61.705 30.3835 63.2648L31.4474 67.4386C31.794 68.8317 32.1758 70.2173 32.527 71.6102C32.6792 72.1487 32.8668 72.6765 33.0888 73.1899C33.3108 73.6701 33.5595 74.1375 33.8337 74.5899C34.0752 74.9906 34.3723 74.8987 34.4193 74.3641C34.4851 73.597 34.4971 72.8267 34.4552 72.0588C34.4384 71.7435 34.4031 71.4278 34.3546 71.1138C34.2933 70.8025 34.2318 70.4902 34.1706 70.1796L34.2048 70.1664Z"/>
        <path d="M64.7342 53.5832L63.7399 52.4308L62.7162 51.3012C62.3552 50.9009 61.9921 50.4986 61.6672 50.0693C61.2322 49.4977 60.8044 48.9205 60.3789 48.3418L59.0931 46.6138L56.5298 43.1535L53.3633 38.901L50.2198 34.6304C49.8894 34.2067 49.5288 33.8074 49.1406 33.4356C48.9878 33.2766 48.7996 33.1557 48.5909 33.0826C48.3822 33.0095 48.1589 32.9861 47.9388 33.0144C47.3297 33.0794 47.0335 33.6496 47.3301 34.3223C47.5323 34.7553 47.7899 35.16 48.0964 35.5265C49.4548 37.2185 50.7039 38.9953 51.8362 40.8462C52.1188 41.3787 52.4617 41.877 52.8582 42.3313C54.169 43.6695 55.1768 45.2506 56.3987 46.6578C57.3071 47.7023 58.1415 48.8138 59.046 49.8641C60.6663 51.7309 62.3038 53.5803 64.0092 55.3692C64.6493 56.0554 65.3997 56.6303 66.23 57.0709C66.5889 57.2623 66.8111 57.0386 66.6227 56.6228C66.3483 56.0294 66.035 55.4548 65.685 54.9027C65.387 54.452 65.0623 54.0194 64.7127 53.6074L64.7342 53.5832Z"/>
        <path d="M79.893 24.6803C79.0432 24.4428 78.1919 24.2091 77.339 23.979C76.8809 23.8763 76.4295 23.7465 75.9872 23.5903C74.819 23.149 73.6605 22.6817 72.5028 22.2146C71.3444 21.749 70.1842 21.2912 69.0173 20.8525C67.5814 20.309 66.1403 19.7809 64.7004 19.2495L60.3716 17.6791C59.9223 17.5358 59.4566 17.4478 58.9849 17.417C58.5329 17.3709 58.1218 17.6449 57.7657 18.0724C57.2468 18.6951 57.1908 19.5496 57.7069 19.9521C58.0441 20.1983 58.4295 20.3716 58.8387 20.4611C60.6722 20.9295 62.4422 21.6119 64.1122 22.4943C64.5764 22.7373 65.0455 23.0303 65.5598 23.0956C67.1989 23.3106 68.6649 24.0347 70.2437 24.42C71.4149 24.71 72.5547 25.1091 73.72 25.4214C74.759 25.6999 75.7999 25.9703 76.8427 26.2325L79.9897 26.9558C80.8095 27.1489 81.6654 27.1436 82.486 26.9405C82.5701 26.925 82.6478 26.8848 82.7092 26.8251C82.7705 26.7654 82.8128 26.689 82.8304 26.6056C82.8481 26.5221 82.8404 26.4356 82.8083 26.3569C82.7763 26.2783 82.7213 26.2112 82.6505 26.1643C82.1861 25.822 81.7015 25.5076 81.1992 25.2229C80.7743 25.023 80.3349 24.8548 79.8846 24.7197L79.893 24.6803Z"/>
        <path d="M70.7456 -9.82554e-06C70.5112 0.0393183 70.2756 0.0700268 70.0431 0.123675L69.3456 0.287084C69.1006 0.351084 68.8508 0.394483 68.5989 0.41683C67.9249 0.452458 67.2475 0.462659 66.5754 0.510121C65.9022 0.549854 65.2293 0.593467 64.5598 0.66144C63.735 0.744087 62.9122 0.840903 62.093 0.964981L59.6355 1.3365C59.3808 1.39359 59.1387 1.49748 58.9216 1.64284C58.7009 1.7726 58.5948 2.12377 58.5604 2.56813C58.5103 3.2156 58.7408 3.86651 59.0945 3.97699C59.3136 4.03666 59.5465 4.02527 59.7598 3.94445C60.7297 3.62987 61.7511 3.50962 62.7647 3.59068C63.0481 3.61088 63.3491 3.67521 63.6041 3.54367C64.4196 3.13333 65.3034 3.17586 66.1436 2.93283C66.7674 2.74773 67.413 2.69519 68.0407 2.52859C69.161 2.23674 70.2845 1.97213 71.3991 1.64229C71.8623 1.51284 72.2749 1.24334 72.5796 0.871125C72.6162 0.8248 72.6422 0.771153 72.6558 0.713936C72.6695 0.656719 72.6705 0.597319 72.6587 0.539895C72.6469 0.482471 72.6227 0.428412 72.5876 0.381503C72.5526 0.334594 72.5076 0.295967 72.4559 0.268333C72.3016 0.21195 72.1444 0.160935 71.9865 0.115961C71.8325 0.0685663 71.6746 0.0344333 71.5145 0.0139331C71.2606 -0.00337816 71.0054 0.00256264 70.7522 0.0316833L70.7456 -9.82554e-06Z"/>
        <path d="M2.19693 53.4524C2.44498 52.9408 2.68727 52.4275 2.9238 51.9127C3.04227 51.6371 3.17726 51.3687 3.32802 51.1089C3.75855 50.4356 4.18245 49.7562 4.59396 49.0682C5.00253 48.3787 5.38448 47.6743 5.7398 46.9551C6.1674 46.0661 6.5687 45.1638 6.93115 44.2461C7.29392 43.3286 7.63149 42.402 7.94384 41.4661C8.02716 41.1719 8.06018 40.8663 8.04151 40.5621C8.03891 40.2669 7.78859 40.0002 7.42179 39.7726C6.8872 39.4418 6.21246 39.4078 5.94801 39.7244C5.79139 39.9292 5.69021 40.1704 5.65426 40.4246C5.44669 41.5642 5.01416 42.6532 4.38186 43.628C4.20964 43.9007 3.99072 44.1659 3.94747 44.4808C3.81217 45.4919 3.23888 46.3263 2.90235 47.258C2.77493 47.604 2.62886 47.943 2.46478 48.2736C2.30789 48.6076 2.14067 48.9367 1.98747 49.2729C1.4398 50.471 0.878885 51.6698 0.262101 52.844C0.0183506 53.3459 -0.0579432 53.9112 0.0444504 54.4568C0.0727007 54.7216 0.310301 54.8645 0.634428 54.7879L0.944159 54.6795C0.993127 54.6651 1.03885 54.6412 1.07873 54.6093L1.19536 54.526C1.34834 54.4149 1.49453 54.2948 1.63313 54.1663C1.74347 54.062 1.84247 53.9464 1.92847 53.8215C2.00829 53.6936 2.0828 53.5619 2.16456 53.4356L2.19693 53.4524Z"/>
    </symbol>

    <!-- Call -->
    <symbol id="call" viewBox="0 0 19 19">
        <path d="M10.7089 12.7992L10.2682 12.356V12.356L10.7089 12.7992ZM11.0885 12.4218L11.5292 12.865V12.865L11.0885 12.4218ZM13.1024 12.1578L12.8038 12.7069H12.8038L13.1024 12.1578ZM14.6944 13.0233L14.3959 13.5724L14.6944 13.0233ZM15.1431 15.7358L15.5837 16.179V16.179L15.1431 15.7358ZM13.9593 16.9129L13.5186 16.4697V16.4697L13.9593 16.9129ZM12.8552 17.4709L12.9132 18.0932V18.0932L12.8552 17.4709ZM4.6378 13.9388L5.07848 13.4956L4.6378 13.9388ZM0.627406 6.45465L0.00341314 6.49011L0.0034132 6.49011L0.627406 6.45465ZM6.02293 7.66447L6.46361 8.10766V8.10766L6.02293 7.66447ZM6.15353 5.45288L6.65386 5.07832V5.07832L6.15353 5.45288ZM5.10271 4.04921L4.60238 4.42377L4.60238 4.42377L5.10271 4.04921ZM2.50954 3.81234L2.95022 4.25553L2.95022 4.25553L2.50954 3.81234ZM1.20154 5.11291L0.760859 4.66971H0.760859L1.20154 5.11291ZM7.34427 11.2477L7.78495 10.8045L7.34427 11.2477ZM10.7089 12.7992L11.1496 13.2424L11.5292 12.865L11.0885 12.4218L10.6478 11.9786L10.2682 12.356L10.7089 12.7992ZM13.1024 12.1578L12.8038 12.7069L14.3959 13.5724L14.6944 13.0233L14.9929 12.4742L13.4009 11.6087L13.1024 12.1578ZM15.1431 15.7358L14.7024 15.2926L13.5186 16.4697L13.9593 16.9129L14.4 17.356L15.5837 16.179L15.1431 15.7358ZM12.8552 17.4709L12.7972 16.8486C11.589 16.9613 8.46303 16.8609 5.07848 13.4956L4.6378 13.9388L4.19712 14.382C7.89054 18.0544 11.4057 18.2338 12.9132 18.0932L12.8552 17.4709ZM4.6378 13.9388L5.07848 13.4956C1.85234 10.2878 1.31792 7.58969 1.2514 6.41919L0.627406 6.45465L0.0034132 6.49011C0.0871373 7.9633 0.748855 10.9533 4.19712 14.382L4.6378 13.9388ZM5.78392 7.90212L6.2246 8.34532L6.46361 8.10766L6.02293 7.66447L5.58225 7.22127L5.34324 7.45892L5.78392 7.90212ZM6.15353 5.45288L6.65386 5.07832L5.60304 3.67465L5.10271 4.04921L4.60238 4.42377L5.6532 5.82744L6.15353 5.45288ZM2.50954 3.81234L2.06886 3.36914L0.760859 4.66971L1.20154 5.11291L1.64222 5.55611L2.95022 4.25553L2.50954 3.81234ZM5.78392 7.90212C5.34324 7.45892 5.34264 7.45952 5.34205 7.46011C5.34184 7.46032 5.34124 7.46092 5.34083 7.46133C5.34001 7.46215 5.33918 7.46299 5.33834 7.46385C5.33665 7.46557 5.3349 7.46736 5.3331 7.46923C5.32949 7.47297 5.32567 7.47702 5.32165 7.48139C5.31362 7.49011 5.30479 7.5001 5.29534 7.51137C5.27645 7.53392 5.25504 7.56168 5.23254 7.59488C5.18743 7.66146 5.13828 7.74948 5.09657 7.86018C5.01146 8.08606 4.96584 8.38381 5.02304 8.75252C5.13491 9.47359 5.63152 10.426 6.90359 11.6909L7.34427 11.2477L7.78495 10.8045C6.59451 9.6208 6.31095 8.90047 6.25827 8.56089C6.23319 8.39928 6.2592 8.31973 6.2663 8.3009C6.27069 8.28925 6.27278 8.28806 6.26739 8.29602C6.26475 8.29991 6.26031 8.30601 6.25344 8.31422C6.24999 8.31832 6.24593 8.32297 6.24116 8.32815C6.23877 8.33074 6.23621 8.33347 6.23345 8.33633C6.23208 8.33776 6.23065 8.33922 6.22918 8.34072C6.22844 8.34147 6.22769 8.34223 6.22693 8.343C6.22655 8.34338 6.22596 8.34396 6.22577 8.34415C6.22519 8.34473 6.2246 8.34532 5.78392 7.90212ZM7.34427 11.2477L6.90359 11.6909C8.17608 12.9561 9.13296 13.4486 9.85528 13.5594C10.2243 13.616 10.5219 13.5708 10.7477 13.4868C10.8584 13.4455 10.9465 13.3969 11.0132 13.3522C11.0465 13.3299 11.0743 13.3087 11.0969 13.2899C11.1082 13.2806 11.1183 13.2718 11.127 13.2638C11.1314 13.2598 11.1355 13.256 11.1392 13.2524C11.1411 13.2507 11.1429 13.2489 11.1447 13.2472C11.1455 13.2464 11.1464 13.2456 11.1472 13.2448C11.1476 13.2444 11.1482 13.2438 11.1484 13.2436C11.149 13.243 11.1496 13.2424 10.7089 12.7992C10.2682 12.356 10.2688 12.3554 10.2694 12.3548C10.2696 12.3546 10.2702 12.354 10.2706 12.3537C10.2714 12.3529 10.2721 12.3522 10.2729 12.3514C10.2744 12.35 10.2758 12.3485 10.2773 12.3472C10.2802 12.3444 10.2829 12.3419 10.2855 12.3395C10.2907 12.3348 10.2954 12.3308 10.2995 12.3274C10.3077 12.3206 10.3137 12.3162 10.3175 12.3137C10.3253 12.3085 10.3237 12.3108 10.3113 12.3154C10.2909 12.323 10.2091 12.349 10.0448 12.3238C9.70041 12.271 8.97496 11.9877 7.78495 10.8045L7.34427 11.2477ZM5.10271 4.04921L5.60304 3.67465C4.75361 2.54 3.0833 2.36045 2.06886 3.36914L2.50954 3.81234L2.95022 4.25553C3.39329 3.81498 4.18019 3.85982 4.60238 4.42377L5.10271 4.04921ZM0.627406 6.45465L1.2514 6.41919C1.23501 6.13076 1.36729 5.82948 1.64222 5.55611L1.20154 5.11291L0.760859 4.66971C0.313093 5.11494 -0.0389215 5.74519 0.00341314 6.49011L0.627406 6.45465ZM13.9593 16.9129L13.5186 16.4697C13.2896 16.6974 13.0441 16.8256 12.7972 16.8486L12.8552 17.4709L12.9132 18.0932C13.5254 18.0362 14.027 17.7269 14.4 17.356L13.9593 16.9129ZM6.02293 7.66447L6.46361 8.10766C7.28404 7.2919 7.34502 6.00156 6.65386 5.07832L6.15353 5.45288L5.6532 5.82744C5.98945 6.27659 5.93942 6.86613 5.58225 7.22127L6.02293 7.66447ZM14.6944 13.0233L14.3959 13.5724C15.0775 13.9429 15.1836 14.8141 14.7024 15.2926L15.1431 15.7358L15.5837 16.179C16.7007 15.0684 16.3562 13.2153 14.9929 12.4742L14.6944 13.0233ZM11.0885 12.4218L11.5292 12.865C11.8492 12.5468 12.3642 12.4679 12.8038 12.7069L13.1024 12.1578L13.4009 11.6087C12.4978 11.1178 11.3771 11.2534 10.6478 11.9786L11.0885 12.4218Z"/>
        <mask id="path-2-inside-1_482_22" fill="white">
            <path d="M16.1455 2.74414L16.1455 7.03315C16.1455 7.42582 15.8272 7.74414 15.4345 7.74414L11.1455 7.74414L11.1455 3.45513C11.1455 3.06246 11.4638 2.74414 11.8565 2.74414L16.1455 2.74414Z"/>
        </mask>
        <path d="M17.3955 1.49414L17.3955 5.78315C17.3955 6.86617 16.5175 7.74414 15.4345 7.74414L14.8955 7.74414C14.8955 7.74414 14.8955 7.42582 14.8955 7.03315L14.8955 3.99414L17.3955 1.49414ZM14.8955 3.99414M11.1455 7.74414L11.1455 2.74414L11.1455 7.74414M11.1455 3.45513C11.1455 2.37211 12.0235 1.49414 13.1065 1.49414L17.3955 1.49414L14.8955 3.99414L11.8565 3.99414C11.4638 3.99414 11.1455 3.99414 11.1455 3.99414L11.1455 3.45513ZM11.1455 3.99414M16.1455 7.74414L11.1455 7.74414L16.1455 7.74414"
              mask="url(#path-2-inside-1_482_22)"/>
        <mask id="path-4-inside-2_482_22" fill="white">
            <path d="M12.8955 6.08075L12.8955 8.33223C12.8955 8.7249 12.5772 9.04322 12.1845 9.04322L9.93304 9.04322L9.93304 6.79174C9.93304 6.39907 10.2514 6.08075 10.644 6.08075L12.8955 6.08075Z"/>
        </mask>
        <path d="M14.1455 4.83075L14.1455 7.08223C14.1455 8.16525 13.2675 9.04322 12.1845 9.04322L11.6455 9.04322C11.6455 9.04322 11.6455 8.7249 11.6455 8.33223L11.6455 7.33075L14.1455 4.83075ZM11.6455 7.33075M9.93304 9.04322L9.93304 6.08075L9.93304 9.04322M9.93304 6.79174C9.93304 5.70872 10.811 4.83075 11.894 4.83075L14.1455 4.83075L11.6455 7.33075L10.644 7.33075C10.2514 7.33075 9.93304 7.33075 9.93304 7.33075L9.93304 6.79174ZM9.93304 7.33075M12.8955 9.04322L9.93304 9.04322L12.8955 9.04322"
              mask="url(#path-4-inside-2_482_22)"/>
    </symbol>

    <!-- edit -->
    <symbol id="edit" viewBox="0 0 20 20">
        <path fill-rule="evenodd" clip-rule="evenodd"
              d="M9.11965 1.0415H10.8803C12.4118 1.04149 13.6248 1.04148 14.5742 1.16912C15.5512 1.30047 16.342 1.57724 16.9656 2.20087C17.2097 2.44495 17.2097 2.84068 16.9656 3.08476C16.7216 3.32884 16.3258 3.32883 16.0817 3.08476C15.7291 2.73208 15.246 2.52069 14.4076 2.40797C13.5512 2.29283 12.4224 2.2915 10.8333 2.2915H9.16667C7.57765 2.2915 6.44876 2.29283 5.59237 2.40797C4.75397 2.52069 4.27093 2.73208 3.91825 3.08476C3.56558 3.43743 3.35419 3.92047 3.24147 4.75888C3.12633 5.61526 3.125 6.74415 3.125 8.33317V11.6665C3.125 13.2555 3.12633 14.3844 3.24147 15.2408C3.35419 16.0792 3.56558 16.5622 3.91825 16.9149C4.27093 17.2676 4.75397 17.479 5.59237 17.5917C6.44876 17.7068 7.57765 17.7082 9.16667 17.7082H10.8333C12.4224 17.7082 13.5512 17.7068 14.4076 17.5917C15.246 17.479 15.7291 17.2676 16.0817 16.9149C16.6617 16.335 16.8373 15.4339 16.8678 13.3241C16.8728 12.979 17.1567 12.7032 17.5018 12.7082C17.8469 12.7132 18.1227 12.9971 18.1177 13.3422C18.0884 15.3651 17.9575 16.8069 16.9656 17.7988C16.342 18.4224 15.5512 18.6992 14.5742 18.8306C13.6248 18.9582 12.4118 18.9582 10.8803 18.9582H9.11966C7.58819 18.9582 6.37516 18.9582 5.42581 18.8306C4.4488 18.6992 3.65801 18.4224 3.03437 17.7988C2.41073 17.1752 2.13397 16.3844 2.00261 15.4074C1.87498 14.458 1.87499 13.245 1.875 11.7135V8.28616C1.87499 6.75469 1.87498 5.54166 2.00261 4.59232C2.13397 3.6153 2.41073 2.82451 3.03437 2.20087C3.65801 1.57724 4.4488 1.30047 5.42581 1.16912C6.37516 1.04148 7.58819 1.04149 9.11965 1.0415ZM15.0943 5.87114C15.9782 4.98718 17.4114 4.98718 18.2954 5.87114C19.1793 6.75509 19.1793 8.18827 18.2954 9.07222L14.3326 13.035C14.117 13.2506 13.9712 13.3965 13.8078 13.524C13.6156 13.6739 13.4077 13.8024 13.1876 13.9072C13.0006 13.9964 12.8049 14.0616 12.5156 14.158L10.7792 14.7367C10.3959 14.8645 9.97323 14.7648 9.68749 14.479C9.40175 14.1933 9.30197 13.7706 9.42976 13.3873L9.99689 11.6859C10.0008 11.6741 10.0047 11.6624 10.0085 11.6509C10.1049 11.3616 10.1701 11.1659 10.2593 10.9789C10.3641 10.7589 10.4927 10.5509 10.6426 10.3587C10.77 10.1954 10.9159 10.0495 11.1315 9.83393C11.1401 9.82535 11.1488 9.81666 11.1576 9.80786L15.0943 5.87114ZM17.4115 6.75502C17.0157 6.35922 16.374 6.35922 15.9782 6.75502L15.8267 6.90651C15.8349 6.93441 15.8443 6.96409 15.8552 6.99527C15.9335 7.22122 16.0823 7.52006 16.3644 7.80214C16.6464 8.08421 16.9453 8.23296 17.1712 8.31135C17.2024 8.32217 17.2321 8.33161 17.26 8.33982L17.4115 8.18834C17.8073 7.79254 17.8073 7.15082 17.4115 6.75502ZM16.3054 9.29447C16.0405 9.15532 15.7544 8.95996 15.4805 8.68602C15.2066 8.41208 15.0112 8.12605 14.872 7.86115L12.0415 10.6917C11.7906 10.9426 11.7025 11.0322 11.6282 11.1275C11.5341 11.2481 11.4535 11.3786 11.3877 11.5167C11.3357 11.6258 11.295 11.7445 11.1827 12.0812L10.8492 13.0819L11.0846 13.3173L12.0854 12.9838C12.422 12.8716 12.5408 12.8308 12.6499 12.7788C12.7879 12.713 12.9184 12.6324 13.039 12.5383C13.1343 12.464 13.2239 12.376 13.4748 12.1251L16.3054 9.29447Z"/>
        <mask id="path-3-inside-1_1578_1137" fill="white">
            <path d="M5.5 5.5H10.789C11.1817 5.5 11.5 5.81832 11.5 6.21099L11.5 11.5H6.21099C5.81832 11.5 5.5 11.1817 5.5 10.789L5.5 5.5Z"/>
        </mask>
        <path d="M4 4H9.28901C10.5101 4 11.5 4.9899 11.5 6.21099L11.5 7C11.5 7 11.1817 7 10.789 7H7L4 4ZM7 7M11.5 11.5H5.5H11.5M6.21099 11.5C4.9899 11.5 4 10.5101 4 9.28901L4 4L7 7L7 10.789C7 11.1817 7 11.5 7 11.5H6.21099ZM7 11.5M11.5 5.5L11.5 11.5L11.5 5.5"
              mask="url(#path-3-inside-1_1578_1137)"/>
    </symbol>

    <!-- Section Icon -->
    <symbol id="section-icon" viewBox="0 0 39 39">
        <path d="M23.9992 6.65036C23.9992 5.38287 25.0267 4.35537 26.2942 4.35537L33.8677 4.35537L33.8677 11.9289C33.8677 13.1963 32.8402 14.2239 31.5727 14.2239L23.9992 14.2239L23.9992 6.65036Z"/>
        <path d="M14.1307 31.6657C14.1307 32.9332 13.1032 33.9607 11.8357 33.9607L4.26218 33.9607L4.26218 26.3872C4.26218 25.1197 5.28969 24.0922 6.55718 24.0922L14.1307 24.0922L14.1307 31.6657Z"/>
        <path d="M14.1306 16.5185C14.1306 15.251 15.1581 14.2235 16.4256 14.2235L23.9992 14.2239L23.9991 21.797C23.9991 23.0645 22.9716 24.092 21.7041 24.092L14.1307 24.0922L14.1306 16.5185Z"/>
    </symbol>

    <!-- Dot Symbol -->
    <symbol id="dot-symbol" viewBox="0 0 10 9">
        <path d="M5.82684 0.455412C5.21963 -0.151803 4.23513 -0.151804 3.62792 0.455411L-0.000211359 4.08384L3.62792 7.71185C4.23513 8.31907 5.21963 8.31907 5.82684 7.71185L9.45508 4.08375L5.82684 0.455412Z"/>
    </symbol>

    <!-- Dot Symbol 2 -->
    <symbol id="dot-symbol-2" viewBox="0 0 8 8">
        <path d="M0 3C0 1.34315 1.34315 0 3 0H8V5C8 6.65685 6.65685 8 5 8H0V3Z"/>
    </symbol>

    <!-- Feature icon -->
    <symbol id="feature-icon-1" viewBox="0 0 22 22">
        <path d="M9.25 7.75H14V12.5C14 13.3284 13.3284 14 12.5 14H7.75V9.25C7.75 8.42157 8.42157 7.75 9.25 7.75Z"
              stroke="white"/>
        <path d="M2 15H6.75V19.75C6.75 20.5784 6.07843 21.25 5.25 21.25H0.5V16.5C0.5 15.6716 1.17157 15 2 15Z"
              stroke="white"/>
        <path d="M14.5 2C14.5 0.895431 15.3954 0 16.5 0H21.75V5.25C21.75 6.35457 20.8546 7.25 19.75 7.25H14.5V2Z"
              fill="white"/>
    </symbol>
    <symbol id="feature-icon-2" viewBox="0 0 22 22">
        <path d="M7.25 9.25C7.25 8.14543 8.14543 7.25 9.25 7.25H14.5V12.5C14.5 13.6046 13.6046 14.5 12.5 14.5H7.25V9.25Z"
              fill="white"/>
        <path d="M2 15H6.75V19.75C6.75 20.5784 6.07843 21.25 5.25 21.25H0.5V16.5C0.5 15.6716 1.17157 15 2 15Z"
              stroke="white"/>
        <path d="M16.5 0.5H21.25V5.25C21.25 6.07843 20.5784 6.75 19.75 6.75H15V2C15 1.17157 15.6716 0.5 16.5 0.5Z"
              stroke="white"/>
    </symbol>
    <symbol id="feature-icon-3" viewBox="0 0 22 22">
        <path d="M9.25 7.75H14V12.5C14 13.3284 13.3284 14 12.5 14H7.75V9.25C7.75 8.42157 8.42157 7.75 9.25 7.75Z"
              stroke="white"/>
        <path d="M0 16.5C0 15.3954 0.895431 14.5 2 14.5H7.25V19.75C7.25 20.8546 6.35457 21.75 5.25 21.75H0V16.5Z"
              fill="white"/>
        <path d="M16.5 0.5H21.25V5.25C21.25 6.07843 20.5784 6.75 19.75 6.75H15V2C15 1.17157 15.6716 0.5 16.5 0.5Z"
              stroke="white"/>
    </symbol>

    <!-- Arrow down -->
    <symbol id="arrow-down" viewBox="0 0 12 14">
        <mask id="path-1-inside-1_1578_437" fill="white">
            <path d="M6 11.3137L1.49291 6.80663C0.857913 6.17163 0.857913 5.1421 1.49291 4.5071L6 1.23978e-05L10.5071 4.5071C11.1421 5.1421 11.1421 6.17163 10.5071 6.80663L6 11.3137Z"/>
        </mask>
        <path d="M6 13.23L1.49291 8.7229C0.328748 7.55874 0.328748 5.67126 1.49291 4.5071L1.49291 4.5071C1.38708 4.61294 1.81605 5.2135 2.45105 5.84849L6 9.39745V13.23ZM6 9.39745M6 1.23978e-05L11.6569 5.65687L6 1.23978e-05M10.5071 4.5071C11.6713 5.67126 11.6713 7.55874 10.5071 8.7229L6 13.23V9.39745L9.54895 5.84849C10.184 5.2135 10.6129 4.61294 10.5071 4.5071L10.5071 4.5071ZM10.5071 4.5071M0.343146 5.65687L6 1.23978e-05L0.343146 5.65687"
              fill="#036666" mask="url(#path-1-inside-1_1578_437)"/>
    </symbol>

    <!-- Check -->
    <symbol id="check" viewBox="0 0 20 20">
        <path d="M8.00195 11.5873C8.00195 10.8669 8.58594 10.283 9.30632 10.283H12.0029V12.9795C12.0029 13.6999 11.4189 14.2839 10.6985 14.2839H8.00195V11.5873Z"/>
        <path d="M4.00098 15.5886C4.00098 14.8682 4.58496 14.2842 5.30535 14.2842H8.0019V16.9807C8.0019 17.7011 7.41791 18.2851 6.69753 18.2851H4.00098V15.5886Z"/>
        <path d="M12.002 7.5866C12.002 6.86621 12.5859 6.28223 13.3063 6.28223H16.0029V8.97878C16.0029 9.69916 15.4189 10.2831 14.6985 10.2831H12.002V7.5866Z"/>
        <path d="M0 11.5859C0 10.8655 0.583986 10.2815 1.30437 10.2815H4.00092V12.978C4.00092 13.6984 3.41693 14.2824 2.69655 14.2824H0V11.5859Z"/>
        <path d="M15.999 3.58977C15.999 2.86939 16.583 2.2854 17.3034 2.2854H19.9999V4.98195C19.9999 5.70233 19.416 6.28632 18.6956 6.28632H15.999V3.58977Z"/>
    </symbol>

    <!-- Close -->
    <symbol id="close" viewBox="0 0 20 20">
        <path d="M7.87207 9.16648C7.87207 8.45173 8.45149 7.87231 9.16624 7.87231H11.9146V10.6207C11.9146 11.3354 11.3352 11.9149 10.6205 11.9149H7.87207V9.16648Z"/>
        <path d="M3.83008 13.2095C3.83008 12.4947 4.4095 11.9153 5.12425 11.9153H7.87263V14.6637C7.87263 15.3784 7.29321 15.9578 6.57846 15.9578H3.83008V13.2095Z"/>
        <path d="M11.9141 5.124C11.9141 4.40925 12.4935 3.82983 13.2082 3.82983H15.9566V6.57822C15.9566 7.29297 15.3772 7.87239 14.6624 7.87239H11.9141V5.124Z"/>
        <path d="M3.83594 5.124C3.83594 4.40925 4.41536 3.82983 5.13011 3.82983H7.87849V6.57822C7.87849 7.29297 7.29907 7.87239 6.58432 7.87239H3.83594V5.124Z"/>
        <path d="M12.1338 13.4219C12.1338 12.7071 12.7132 12.1277 13.428 12.1277H16.1763V14.8761C16.1763 15.5908 15.5969 16.1702 14.8822 16.1702H12.1338V13.4219Z"/>
        <path d="M0 1.29417C0 0.579418 0.579419 0 1.29417 0H4.04255V2.74839C4.04255 3.46314 3.46313 4.04255 2.74839 4.04255H0V1.29417Z"/>
        <path d="M15.957 17.2517C15.957 16.5369 16.5364 15.9575 17.2512 15.9575H19.9996V18.7059C19.9996 19.4207 19.4202 20.0001 18.7054 20.0001H15.957V17.2517Z"/>
        <path d="M15.957 1.29417C15.957 0.579418 16.5364 0 17.2512 0H19.9996V2.74839C19.9996 3.46314 19.4202 4.04255 18.7054 4.04255H15.957V1.29417Z"/>
        <path d="M0 17.2517C0 16.5369 0.579419 15.9575 1.29417 15.9575H4.04255V18.7059C4.04255 19.4207 3.46313 20.0001 2.74839 20.0001H0V17.2517Z"/>
    </symbol>

    <!-- Dot Info -->
    <symbol id="dot-info" viewBox="0 0 16 16">
        <path d="M0 5C0 2.23858 2.23858 0 5 0H16V11C16 13.7614 13.7614 16 11 16H0V5Z"/>
        <path d="M8.00016 4.16658C8.27631 4.16658 8.50016 4.39044 8.50016 4.66658V8.66659C8.50016 8.94273 8.27631 9.16659 8.00016 9.16659C7.72402 9.16659 7.50016 8.94273 7.50016 8.66659V4.66658C7.50016 4.39044 7.72402 4.16658 8.00016 4.16658Z"
              fill="white"/>
        <path d="M8.00016 11.3333C8.36835 11.3333 8.66683 11.0348 8.66683 10.6666C8.66683 10.2984 8.36835 9.99992 8.00016 9.99992C7.63197 9.99992 7.3335 10.2984 7.3335 10.6666C7.3335 11.0348 7.63197 11.3333 8.00016 11.3333Z"
              fill="white"/>
    </symbol>

    <!-- Table Icon -->
    <symbol id="table-icon-1" viewBox="0 0 16 16" fill="none">
        <path d="M6.47461 5.4248H9.79883V8.75C9.79883 9.3299 9.32892 9.7998 8.74902 9.7998H5.42383V6.47559C5.42383 5.89569 5.89471 5.4248 6.47461 5.4248Z"
              stroke="#18203A" stroke-width="0.7"/>
        <path d="M1.40039 10.5H4.72461V13.8252C4.72461 14.4051 4.2547 14.875 3.6748 14.875H0.349609V11.5508C0.349609 10.9709 0.820492 10.5 1.40039 10.5Z"
              stroke="#18203A" stroke-width="0.7"/>
        <path d="M10.1494 1.4C10.1494 0.626802 10.7762 0 11.5494 0H15.2244V3.675C15.2244 4.4482 14.5976 5.075 13.8244 5.075H10.1494V1.4Z"
              fill="#18203A"/>
    </symbol>
    <symbol id="table-icon-2" viewBox="0 0 16 16" fill="none">
        <path d="M5.0752 6.47495C5.0752 5.70175 5.702 5.07495 6.4752 5.07495H10.1502V8.74995C10.1502 9.52315 9.52339 10.15 8.7502 10.15H5.0752V6.47495Z"
              fill="#18203A"/>
        <path d="M1.40039 10.4995H4.72461V13.8247C4.72461 14.4046 4.2547 14.8745 3.6748 14.8745H0.349609V11.5503C0.349609 10.9704 0.820492 10.4995 1.40039 10.4995Z"
              stroke="#18203A" stroke-width="0.7"/>
        <path d="M11.5508 0.349609H14.875V3.6748C14.875 4.2547 14.4051 4.72461 13.8252 4.72461H10.5V1.40039C10.5 0.820491 10.9709 0.349609 11.5508 0.349609Z"
              stroke="#18203A" stroke-width="0.7"/>
    </symbol>
    <symbol id="table-icon-3" viewBox="0 0 16 16" fill="none">
        <path d="M6.47559 5.4248H9.7998V8.75C9.7998 9.3299 9.3299 9.7998 8.75 9.7998H5.4248V6.47559C5.4248 5.89569 5.89569 5.4248 6.47559 5.4248Z"
              stroke="#18203A" stroke-width="0.7"/>
        <path d="M0 11.5504C0 10.7772 0.626801 10.1504 1.4 10.1504H5.075V13.8254C5.075 14.5986 4.4482 15.2254 3.675 15.2254H0V11.5504Z"
              fill="#18203A"/>
        <path d="M11.5508 0.349609H14.875V3.6748C14.875 4.2547 14.4051 4.72461 13.8252 4.72461H10.5V1.40039C10.5 0.820491 10.9709 0.349609 11.5508 0.349609Z"
              stroke="#18203A" stroke-width="0.7"/>
    </symbol>

    <!-- Carousel Arrow -->
    <symbol id="carousel-arrow" viewBox="0 0 38 17">
        <path d="M7.26575 1.01483C8.48018 -0.199602 10.4492 -0.199604 11.6636 1.01483L18.9199 8.27169L11.6636 15.5277C10.4492 16.7421 8.48018 16.7421 7.26575 15.5277L0.00927663 8.27151L7.26575 1.01483Z"/>
        <mask id="path-2-inside-1_1578_1051" fill="white">
            <path d="M37.3481 8.23438L30.0663 0.952535C28.7963 -0.317459 26.7372 -0.317456 25.4673 0.952537L18.1854 8.23437L25.4673 15.5162C26.7372 16.7862 28.7963 16.7862 30.0663 15.5162L37.3481 8.23438Z"/>
        </mask>
        <path d="M41.1807 8.23438L33.8989 0.952538C31.5705 -1.37578 27.7956 -1.37578 25.4673 0.952538L25.4673 0.952537C25.6789 0.740872 26.88 1.59882 28.15 2.86881L33.5156 8.23437L41.1807 8.23438ZM33.5156 8.23437M18.1854 8.23437L27.7668 17.8157L18.1854 8.23437M25.4673 15.5162C27.7956 17.8445 31.5705 17.8445 33.8989 15.5162L41.1807 8.23438L33.5156 8.23437L28.15 13.5999C26.88 14.8699 25.6789 15.7279 25.4673 15.5162L25.4673 15.5162ZM25.4673 15.5162M27.7668 -1.34699L18.1854 8.23437L27.7668 -1.34699"
              mask="url(#path-2-inside-1_1578_1051)"/>
        <mask id="path-4-inside-2_1578_1051" fill="white">
            <path d="M19.1626 8.23438L11.8808 0.952535C10.6108 -0.317459 8.5517 -0.317456 7.28171 0.952537L-0.000130926 8.23437L7.28171 15.5162C8.5517 16.7862 10.6108 16.7862 11.8808 15.5162L19.1626 8.23438Z"/>
        </mask>
        <path d="M22.9951 8.23438L15.7133 0.952538C13.385 -1.37578 9.61003 -1.37578 7.28171 0.952538L7.28171 0.952537C7.49337 0.740872 8.69449 1.59882 9.96449 2.86881L15.3301 8.23437L22.9951 8.23438ZM15.3301 8.23437M-0.000130926 8.23437L9.58123 17.8157L-0.000130926 8.23437M7.2817 15.5162C9.61003 17.8445 13.385 17.8445 15.7133 15.5162L22.9951 8.23438L15.3301 8.23437L9.96449 13.5999C8.69449 14.8699 7.49337 15.7279 7.28171 15.5162L7.2817 15.5162ZM7.28171 15.5162M9.58123 -1.34699L-0.000130926 8.23437L9.58123 -1.34699"
              mask="url(#path-4-inside-2_1578_1051)"/>
    </symbol>

    <!-- Play -->
    <symbol id="play" viewBox="0 0 27 28">
        <path d="M24.5803 10.2913C27.5764 11.9064 27.5764 16.0874 24.5803 17.7024L6.49027 27.4542C3.57842 29.0239 -1.45604e-07 26.9808 0 23.7487L8.78601e-07 4.24511C1.0242e-06 1.01293 3.57842 -1.03014 6.49026 0.539546L24.5803 10.2913Z"/>
    </symbol>

    <!-- Watch Video -->
    <symbol id="watch-video" viewBox="0 0 146 146">
        <path d="M89.1436 4.78817L89.3553 4.63345L90.1078 4.8781L89.4855 12.3006L89.6315 12.3481L93.2898 6.85639L94.2332 7.16311L93.9555 13.7539L94.1128 13.805L97.9696 7.43407L98.7221 7.67872L98.8025 7.92837L94.5656 14.896L93.0044 14.3885L93.2654 8.53737L90.0394 13.4245L88.4783 12.917L89.1436 4.78817Z"
              fill="white"/>
        <path d="M97.7334 16.2371C96.6547 15.7374 96.3649 14.9481 96.8641 13.8691C97.3632 12.7901 98.1522 12.5004 99.231 13.0001L101.192 13.9084L101.579 13.0724C101.81 12.5722 101.676 12.2063 101.176 11.9747L98.8825 10.9125L99.0809 10.4837L99.6583 10.3607L101.523 11.2244C102.595 11.7207 102.882 12.5048 102.387 13.5767L100.552 17.5425L97.7334 16.2371ZM97.6668 14.3841C97.4354 14.8843 97.5697 15.2502 98.0698 15.4818L100.042 16.3951L100.87 14.6051L98.8979 13.6918C98.3979 13.4602 98.0321 13.5945 97.8007 14.0947L97.6668 14.3841Z"
              fill="white"/>
        <path d="M105.062 17.9956L108.409 12.5677L109.213 13.0641L108.159 14.7728L110.069 15.9517L109.635 16.6553L107.725 15.4765L105.803 18.5925C105.514 19.0615 105.604 19.4408 106.073 19.7304L107.379 20.537L107.131 20.9391L106.543 20.9924L105.639 20.434C104.634 19.8135 104.442 19.0007 105.062 17.9956Z"
              fill="white"/>
        <path d="M110.299 21.3761L111.917 19.3429C112.652 18.4187 113.481 18.3244 114.405 19.0602L116.216 20.5023L116.365 21.0738L116.071 21.4435L113.891 19.7071C113.459 19.3638 113.072 19.4077 112.729 19.839L110.965 22.0571C110.621 22.4884 110.665 22.8757 111.097 23.219L113.277 24.9554L112.983 25.3251L112.392 25.308L110.582 23.866C109.658 23.1302 109.564 22.3003 110.299 21.3761Z"
              fill="white"/>
        <path d="M114.967 27.5155L121.184 21.3732L121.848 22.0456L119.999 23.8717L121.659 25.5528C122.488 26.3933 122.483 27.2286 121.643 28.0586L118.535 31.1298L117.871 30.4574L121.063 27.3032C121.455 26.9158 121.458 26.526 121.071 26.1338L119.411 24.4527L115.631 28.1879L114.967 27.5155Z"
              fill="white"/>
        <path d="M130.588 33.5073L130.843 33.5195L131.28 34.2488L126.241 39.9455L126.387 40.1886L133.788 38.4319L134.22 39.1511L134.11 39.382L125.982 41.2583L125.107 39.7997L130.588 33.5073Z"
              fill="white"/>
        <path d="M135.611 43.9297L136.624 43.4758L137.049 44.4244L136.036 44.8783L135.611 43.9297ZM128.981 46.9518L134.585 44.4411L134.971 45.3035L129.366 47.8142L128.981 46.9518Z"
              fill="white"/>
        <path d="M132.644 51.0131L135.124 50.2409C136.252 49.8899 136.991 50.2783 137.342 51.4061L138.043 53.6615L140.524 52.8894L140.804 53.7916L132.46 56.3888L131.478 53.2311C131.127 52.1034 131.516 51.364 132.644 51.0131ZM132.811 51.9503C132.285 52.1141 132.104 52.4592 132.267 52.9854L132.969 55.2409L137.254 53.9072L136.552 51.6517C136.389 51.1255 136.044 50.9442 135.518 51.108L132.811 51.9503Z"
              fill="white"/>
        <path d="M134.881 58.6134L137.436 58.1423C138.597 57.9282 139.285 58.4019 139.499 59.5634L139.777 61.0732C139.991 62.2347 139.517 62.9225 138.356 63.1366L136.718 63.4385L135.969 59.3734L134.936 59.564C134.394 59.6639 134.173 59.9848 134.272 60.5269L134.828 63.5466L134.364 63.6323L133.93 63.2319L133.459 60.6767C133.245 59.5153 133.719 58.8275 134.881 58.6134ZM136.724 59.2342L137.302 62.3702L138.301 62.186C138.843 62.0861 139.064 61.7651 138.964 61.2231L138.686 59.7132C138.586 59.1712 138.265 58.9502 137.723 59.0501L136.724 59.2342Z"
              fill="white"/>
        <path d="M136.134 66.1027L138.727 65.9395C139.905 65.8653 140.532 66.4175 140.606 67.5962L140.71 69.2463C140.784 70.425 140.231 71.0514 139.053 71.1256L136.46 71.2888C135.281 71.363 134.655 70.8108 134.581 69.6321L134.477 67.982C134.403 66.8033 134.955 66.1769 136.134 66.1027ZM136.075 67.0531C135.525 67.0877 135.267 67.38 135.302 67.9301L135.406 69.5802C135.44 70.1302 135.733 70.3879 136.283 70.3533L139.111 70.1753C139.661 70.1406 139.919 69.8483 139.884 69.2983L139.781 67.6481C139.746 67.0981 139.454 66.8404 138.904 66.875L136.075 67.0531Z"
              fill="white"/>
        <path d="M141.192 87.8409L141.351 88.0497L141.121 88.8067L133.689 88.3224L133.644 88.4693L139.204 92.0255L138.915 92.9747L132.321 92.8195L132.273 92.9777L138.716 96.7162L138.486 97.4732L138.238 97.5582L131.191 93.4508L131.669 91.8802L137.523 92.0324L132.576 88.8972L133.053 87.3266L141.192 87.8409Z"
              fill="white"/>
        <path d="M129.911 96.6476C130.389 95.5594 131.173 95.255 132.261 95.7342C133.349 96.2134 133.653 96.9971 133.175 98.0853L132.304 100.063L133.147 100.435C133.652 100.657 134.015 100.516 134.237 100.011L135.255 97.698L135.687 97.8884L135.821 98.4637L134.993 100.345C134.518 101.426 133.739 101.728 132.659 101.252L128.66 99.4906L129.911 96.6476ZM131.761 96.5466C131.257 96.3244 130.894 96.4656 130.672 96.9701L129.797 98.9591L131.602 99.754L132.477 97.765C132.699 97.2606 132.558 96.8973 132.053 96.6751L131.761 96.5466Z"
              fill="white"/>
        <path d="M128.293 104.016L133.781 107.264L133.301 108.077L131.573 107.055L130.431 108.986L129.72 108.565L130.861 106.634L127.711 104.769C127.236 104.488 126.859 104.585 126.578 105.06L125.797 106.382L125.391 106.141L125.326 105.554L125.867 104.639C126.468 103.622 127.277 103.415 128.293 104.016Z"
              fill="white"/>
        <path d="M125.014 109.318L127.077 110.898C128.014 111.617 128.124 112.445 127.406 113.383L126 115.221L125.431 115.381L125.056 115.093L126.75 112.88C127.085 112.442 127.034 112.056 126.596 111.721L124.346 109.997C123.909 109.662 123.523 109.713 123.188 110.151L121.494 112.364L121.119 112.077L121.125 111.486L122.531 109.648C123.249 108.71 124.077 108.6 125.014 109.318Z"
              fill="white"/>
        <path d="M118.97 114.103L125.225 120.206L124.565 120.882L122.706 119.068L121.057 120.759C120.233 121.605 119.398 121.616 118.553 120.791L115.425 117.739L116.085 117.063L119.297 120.197C119.691 120.582 120.081 120.577 120.466 120.182L122.114 118.491L118.31 114.779L118.97 114.103Z"
              fill="white"/>
        <path d="M113.274 129.845L113.267 130.1L112.546 130.551L106.759 125.62L106.519 125.77L108.412 133.14L107.702 133.585L107.469 133.48L105.442 125.385L106.884 124.483L113.274 129.845Z"
              fill="white"/>
        <path d="M102.955 135.066L103.428 136.07L102.487 136.513L102.015 135.508L102.955 135.066ZM99.8114 128.492L102.425 134.049L101.57 134.451L98.9566 128.894L99.8114 128.492Z"
              fill="white"/>
        <path d="M95.8198 132.235L96.6378 134.701C97.0096 135.822 96.6351 136.568 95.5143 136.941L93.2727 137.685L94.0907 140.151L93.194 140.449L90.4426 132.154L93.5809 131.112C94.7017 130.74 95.448 131.114 95.8198 132.235ZM94.886 132.42C94.7124 131.897 94.3642 131.723 93.8411 131.896L91.5995 132.641L93.0124 136.9L95.254 136.156C95.7771 135.982 95.9518 135.634 95.7783 135.111L94.886 132.42Z"
              fill="white"/>
        <path d="M88.2681 134.612L88.7867 137.158C89.0225 138.315 88.5617 139.012 87.4046 139.248L85.9003 139.554C84.7431 139.79 84.0466 139.33 83.8109 138.173L83.4785 136.541L87.5286 135.715L87.3188 134.685C87.2088 134.145 86.8838 133.93 86.3438 134.04L83.3351 134.654L83.2408 134.191L83.633 133.749L86.1788 133.23C87.3359 132.994 88.0324 133.455 88.2681 134.612ZM87.6818 136.467L84.5575 137.104L84.7602 138.099C84.8702 138.64 85.1952 138.854 85.7352 138.744L87.2396 138.438C87.7796 138.327 87.9946 138.002 87.8846 137.462L87.6818 136.467Z"
              fill="white"/>
        <path d="M80.8062 136.007L81.0181 138.596C81.1144 139.773 80.574 140.41 79.397 140.507L77.7491 140.642C76.5721 140.738 75.9354 140.198 75.8391 139.021L75.6272 136.431C75.5309 135.254 76.0713 134.617 77.2483 134.521L78.8962 134.386C80.0732 134.29 80.7099 134.83 80.8062 136.007ZM79.855 135.966C79.81 135.417 79.5129 135.165 78.9636 135.21L77.3157 135.345C76.7665 135.39 76.5143 135.687 76.5592 136.236L76.7904 139.061C76.8353 139.61 77.1324 139.863 77.6817 139.818L79.3296 139.683C79.8789 139.638 80.131 139.341 80.0861 138.791L79.855 135.966Z"
              fill="white"/>
        <path d="M59.1786 141.475L58.9729 141.637L58.2117 141.421L58.554 133.981L58.4063 133.939L54.9574 139.564L54.0031 139.293L54.0324 132.697L53.8733 132.652L50.2591 139.164L49.4979 138.948L49.4082 138.701L53.3797 131.579L54.9589 132.027L54.9184 137.884L57.9582 132.878L59.5373 133.327L59.1786 141.475Z"
              fill="white"/>
        <path d="M50.1634 130.357C51.2602 130.816 51.5795 131.594 51.1214 132.691C50.6632 133.788 49.8856 134.107 48.7888 133.648L46.7949 132.814L46.4398 133.664C46.2274 134.173 46.3755 134.534 46.8839 134.746L49.2156 135.721L49.0336 136.157L48.4612 136.302L46.5653 135.509C45.4757 135.053 45.1585 134.281 45.6137 133.191L47.2978 129.159L50.1634 130.357ZM50.2998 132.206C50.5122 131.698 50.3641 131.337 49.8557 131.124L47.8508 130.286L47.0907 132.106L49.0955 132.944C49.604 133.157 49.9645 133.009 50.1769 132.5L50.2998 132.206Z"
              fill="white"/>
        <path d="M42.7731 128.876L39.6321 134.426L38.8101 133.961L39.7989 132.213L37.8466 131.107L38.2538 130.388L40.2061 131.494L42.0093 128.308C42.2807 127.828 42.1767 127.452 41.6972 127.181L40.3614 126.424L40.594 126.013L41.1795 125.937L42.1043 126.461C43.1319 127.043 43.3548 127.848 42.7731 128.876Z"
              fill="white"/>
        <path d="M37.4097 125.696L35.8698 127.789C35.1699 128.74 34.3445 128.865 33.3937 128.165L31.5299 126.792L31.3596 126.226L31.6395 125.846L33.8836 127.499C34.3273 127.826 34.7125 127.767 35.0392 127.323L36.7189 125.04C37.0456 124.596 36.987 124.211 36.5433 123.884L34.2992 122.231L34.5792 121.851L35.1695 121.846L37.0332 123.218C37.9841 123.919 38.1096 124.745 37.4097 125.696Z"
              fill="white"/>
        <path d="M32.5171 119.738L26.5363 126.11L25.8477 125.463L27.6258 123.569L25.9044 121.952C25.0438 121.143 25.0175 120.308 25.8257 119.447L28.8161 116.261L29.5047 116.908L26.4335 120.18C26.0563 120.582 26.0685 120.972 26.4702 121.349L28.1916 122.966L31.8285 119.091L32.5171 119.738Z"
              fill="white"/>
        <path d="M16.6836 114.339L16.4282 114.336L15.9638 113.624L20.7846 107.741L20.6298 107.504L13.2998 109.538L12.8418 108.836L12.9424 108.601L20.9943 106.42L21.9232 107.844L16.6836 114.339Z"
              fill="white"/>
        <path d="M11.2688 104.113L10.2736 104.605L9.81361 103.673L10.8089 103.181L11.2688 104.113ZM17.7808 100.843L12.275 103.564L11.8568 102.716L17.3627 99.9961L17.7808 100.843Z"
              fill="white"/>
        <path d="M13.9679 96.9236L11.5179 97.7887C10.4044 98.1819 9.65112 97.8217 9.25825 96.708L8.47252 94.4805L6.02261 95.3457L5.70832 94.4547L13.9489 91.5447L15.0489 94.6631C15.4418 95.7768 15.0814 96.5303 13.9679 96.9236ZM13.7649 95.9933C14.2846 95.8097 14.4528 95.4581 14.2694 94.9384L13.4837 92.7109L9.25203 94.2052L10.0378 96.4327C10.2211 96.9524 10.5726 97.1205 11.0923 96.937L13.7649 95.9933Z"
              fill="white"/>
        <path d="M11.4505 89.4123L8.91499 89.9794C7.76247 90.2371 7.05747 89.7897 6.79998 88.6372L6.46524 87.1388C6.20774 85.9862 6.65526 85.2811 7.80777 85.0233L9.43282 84.6599L10.334 88.6939L11.3598 88.4645C11.8976 88.3442 12.1065 88.0151 11.9863 87.4773L11.3168 84.4806L11.7778 84.3775L12.2266 84.7612L12.7931 87.2968C13.0506 88.4494 12.603 89.1546 11.4505 89.4123ZM9.58491 88.8614L8.88968 85.7495L7.89851 85.9712C7.36067 86.0914 7.15183 86.4205 7.272 86.9584L7.60674 88.4567C7.7269 88.9946 8.0559 89.2034 8.59374 89.0831L9.58491 88.8614Z"
              fill="white"/>
        <path d="M9.91592 81.9749L7.33088 82.2358C6.15586 82.3543 5.50912 81.8261 5.39066 80.6511L5.22481 79.006C5.10635 77.831 5.63463 77.1842 6.80964 77.0656L9.39468 76.8047C10.5697 76.6861 11.2164 77.2144 11.3349 78.3894L11.5008 80.0344C11.6192 81.2095 11.0909 81.8563 9.91592 81.9749ZM9.93865 81.023C10.487 80.9676 10.7335 80.6658 10.6782 80.1174L10.5124 78.4724C10.4571 77.924 10.1553 77.6775 9.60696 77.7329L6.78691 78.0175C6.23857 78.0728 5.99204 78.3747 6.04732 78.923L6.21317 80.5681C6.26845 81.1164 6.57027 81.3629 7.11861 81.3076L9.93865 81.023Z"
              fill="white"/>
        <path d="M4.04009 60.4437L3.87363 60.2411L4.07511 59.4759L11.5199 59.6796L11.559 59.5312L5.86926 56.1871L6.12188 55.2278L12.7168 55.1343L12.7589 54.9744L6.18022 51.4815L6.38171 50.7163L6.62636 50.622L13.8223 54.4608L13.4043 56.0483L7.54866 56.1169L12.6103 59.0633L12.1923 60.6508L4.04009 60.4437Z"
              fill="white"/>
        <path d="M14.981 51.218C14.5436 52.3235 13.7722 52.6573 12.6669 52.2194C11.5616 51.7816 11.2277 51.0099 11.6651 49.9045L12.4603 47.8949L11.6039 47.5556C11.0915 47.3527 10.7339 47.5074 10.5312 48.0199L9.60122 50.3699L9.16203 50.1959L9.00646 49.6261L9.76257 47.7154C10.1971 46.6173 10.9634 46.2857 12.0614 46.7206L16.1239 48.3299L14.981 51.218ZM13.1353 51.3888C13.6477 51.5918 14.0053 51.437 14.2081 50.9246L15.0076 48.904L13.174 48.1776L12.3745 50.1982C12.1717 50.7106 12.3265 51.0684 12.8389 51.2713L13.1353 51.3888Z"
              fill="white"/>
        <path d="M16.3194 43.7935L10.7124 40.7551L11.1621 39.9242L12.9273 40.8808L13.9955 38.9075L14.7223 39.3013L13.6541 41.2746L16.873 43.0189C17.3575 43.2815 17.731 43.1704 17.9934 42.6858L18.7242 41.3356L19.1395 41.5607L19.2262 42.1449L18.7202 43.0796C18.158 44.1182 17.3577 44.3562 16.3194 43.7935Z"
              fill="white"/>
        <path d="M19.3982 38.3717L17.2776 36.8705C16.3137 36.1882 16.1726 35.3648 16.8545 34.4006L18.191 32.5106L18.7529 32.3296L19.1384 32.6026L17.5292 34.8782C17.211 35.3282 17.2769 35.7124 17.7267 36.0309L20.0401 37.6685C20.4899 37.9869 20.8739 37.9212 21.1921 37.4712L22.8013 35.1955L23.1869 35.4685L23.2033 36.0589L21.8669 37.9488C21.185 38.9131 20.3621 39.054 19.3982 38.3717Z"
              fill="white"/>
        <path d="M25.2594 33.3619L18.7787 27.4988L19.4121 26.7979L21.3388 28.5409L22.9225 26.7885C23.7144 25.9123 24.5482 25.8704 25.4239 26.6627L28.6643 29.5942L28.0308 30.2952L24.7029 27.2844C24.2942 26.9147 23.9051 26.9342 23.5356 27.3431L21.9519 29.0955L25.8929 32.6609L25.2594 33.3619Z"
              fill="white"/>
        <path d="M30.3523 17.4158L30.3501 17.1602L31.0532 16.6821L37.0222 21.3922L37.2565 21.2329L35.0866 13.9395L35.78 13.4681L36.0166 13.5642L38.3468 21.5769L36.9405 22.5331L30.3523 17.4158Z"
              fill="white"/>
        <path d="M40.4726 11.8109L39.9626 10.8249L40.8856 10.347L41.3955 11.3331L40.4726 11.8109ZM43.862 18.2615L41.0408 12.8067L41.8798 12.3723L44.701 17.8271L43.862 18.2615Z"
              fill="white"/>
        <path d="M47.7055 14.3702L46.7952 11.9368C46.3814 10.8306 46.7275 10.0705 47.8335 9.65631L50.0454 8.82797L49.1351 6.39449L50.0199 6.06316L53.0819 14.2485L49.9851 15.4082C48.8791 15.8223 48.1193 15.4764 47.7055 14.3702ZM48.6316 14.1495C48.8247 14.6657 49.1793 14.8272 49.6955 14.6339L51.9074 13.8055L50.3351 9.60226L48.1231 10.4306C47.607 10.6239 47.4455 10.9786 47.6386 11.4948L48.6316 14.1495Z"
              fill="white"/>
        <path d="M55.1637 11.7097L54.5496 9.18511C54.2705 8.03758 54.7046 7.32409 55.8521 7.04464L57.3437 6.68134C58.4912 6.40188 59.2045 6.83592 59.4836 7.98344L59.8772 9.60145L55.8612 10.5795L56.1096 11.6008C56.2399 12.1364 56.5727 12.3389 57.1082 12.2085L60.0916 11.4819L60.2032 11.9409L59.828 12.3969L57.3036 13.0118C56.1562 13.2912 55.4429 12.8572 55.1637 11.7097ZM55.6797 9.83366L58.7778 9.07912L58.5378 8.09225C58.4075 7.55674 58.0746 7.35419 57.5391 7.48461L56.0475 7.8479C55.512 7.97832 55.3094 8.31128 55.4397 8.84679L55.6797 9.83366Z"
              fill="white"/>
        <path d="M62.5658 10.0342L62.2565 7.45454C62.1159 6.28195 62.6319 5.62529 63.8045 5.48455L65.4461 5.28752C66.6187 5.14679 67.2752 5.66272 67.4158 6.83531L67.7251 9.41501C67.8656 10.5876 67.3496 11.2443 66.1771 11.385L64.5355 11.582C63.3629 11.7228 62.7063 11.2068 62.5658 10.0342ZM63.5179 10.0389C63.5835 10.5861 63.8899 10.8269 64.4371 10.7612L66.0787 10.5642C66.6259 10.4985 66.8667 10.1921 66.8011 9.64486L66.4637 6.83064C66.3981 6.28343 66.0917 6.04266 65.5445 6.10834L63.9029 6.30537C63.3557 6.37104 63.1149 6.67748 63.1805 7.22469L63.5179 10.0389Z"
              fill="white"/>
    </symbol>

    <!-- banner Background -->
    <symbol id="banner-bg" viewBox="0 0 226 196">
        <path d="M154 186H-20V12C-20 -22.2417 7.75835 -50 42 -50H216V124C216 158.242 188.242 186 154 186Z"
              stroke="url(#paint0_linear_1578_1122)" fill="#0C101D" stroke-width="20"/>
        <defs>
            <linearGradient id="paint0_linear_1578_1122" x1="226" y1="196" x2="139.5" y2="94.5"
                            gradientUnits="userSpaceOnUse">
                <stop stop-color="#036666"/>
                <stop offset="1" stop-color="#0C101D"/>
            </linearGradient>
        </defs>
    </symbol>

    <!-- Telegram -->
    <symbol id="telegram" viewBox="0 0 24 24" fill="none">
        <path d="M11.9847 15.4083L15.2267 19.0943C16.4267 20.4593 17.0277 21.1423 17.6567 20.9753C18.2847 20.8093 18.5007 19.9113 18.9317 18.1143L21.3217 8.14628C21.9867 5.37828 22.3187 3.99528 21.5807 3.31228C20.8427 2.62928 19.5637 3.13728 17.0057 4.15228L5.13974 8.86528C3.09374 9.67828 2.07074 10.0843 2.00574 10.7823C1.99809 10.8534 1.99809 10.9252 2.00574 10.9963C2.06874 11.6953 3.08974 12.1043 5.13374 12.9233C6.05874 13.2943 6.52174 13.4803 6.85374 13.8353C6.89107 13.8753 6.92707 13.9166 6.96174 13.9593C7.26774 14.3393 7.39774 14.8393 7.65874 15.8353L8.14774 17.7023C8.40074 18.6723 8.52774 19.1583 8.86074 19.2243C9.19374 19.2903 9.48274 18.8883 10.0617 18.0833L11.9847 15.4083ZM11.9847 15.4083L11.6677 15.0783C11.3057 14.7003 11.1247 14.5123 11.1247 14.2783C11.1247 14.0443 11.3047 13.8553 11.6677 13.4783L15.2407 9.75428"
              stroke-width="1.5" stroke-linecap="round" stroke-linejoin="round"/>
    </symbol>

    <!-- Instagram -->
    <symbol id="instagram" viewBox="0 0 24 24">
        <path d="M12.0001 7.19249C9.33995 7.19249 7.19308 9.33937 7.19308 11.9995C7.19308 14.6597 9.33995 16.8066 12.0001 16.8066C14.6603 16.8066 16.8071 14.6597 16.8071 11.9995C16.8071 9.33937 14.6603 7.19249 12.0001 7.19249ZM12.0001 15.1237C10.2798 15.1237 8.87589 13.7198 8.87589 11.9995C8.87589 10.2792 10.2798 8.87531 12.0001 8.87531C13.7204 8.87531 15.1243 10.2792 15.1243 11.9995C15.1243 13.7198 13.7204 15.1237 12.0001 15.1237ZM17.004 5.87531C16.3829 5.87531 15.8814 6.37687 15.8814 6.99796C15.8814 7.61906 16.3829 8.12062 17.004 8.12062C17.6251 8.12062 18.1267 7.6214 18.1267 6.99796C18.1269 6.85048 18.0979 6.70441 18.0416 6.56812C17.9852 6.43183 17.9026 6.308 17.7983 6.20371C17.694 6.09943 17.5701 6.01674 17.4339 5.96039C17.2976 5.90403 17.1515 5.87512 17.004 5.87531ZM21.3704 11.9995C21.3704 10.7058 21.3821 9.42374 21.3095 8.13234C21.2368 6.63234 20.8946 5.30109 19.7978 4.20421C18.6985 3.10499 17.3696 2.76515 15.8696 2.69249C14.5759 2.61984 13.2939 2.63156 12.0025 2.63156C10.7087 2.63156 9.42667 2.61984 8.13527 2.69249C6.63527 2.76515 5.30402 3.10734 4.20714 4.20421C3.10792 5.30343 2.76808 6.63234 2.69542 8.13234C2.62277 9.42609 2.63449 10.7081 2.63449 11.9995C2.63449 13.2909 2.62277 14.5753 2.69542 15.8667C2.76808 17.3667 3.11027 18.698 4.20714 19.7948C5.30636 20.8941 6.63527 21.2339 8.13527 21.3066C9.42902 21.3792 10.711 21.3675 12.0025 21.3675C13.2962 21.3675 14.5782 21.3792 15.8696 21.3066C17.3696 21.2339 18.7009 20.8917 19.7978 19.7948C20.897 18.6956 21.2368 17.3667 21.3095 15.8667C21.3845 14.5753 21.3704 13.2933 21.3704 11.9995ZM19.3079 17.5261C19.1368 17.9527 18.9306 18.2714 18.6001 18.5995C18.2696 18.93 17.9532 19.1362 17.5267 19.3073C16.2939 19.7972 13.3665 19.687 12.0001 19.687C10.6337 19.687 7.70402 19.7972 6.47121 19.3097C6.04464 19.1386 5.72589 18.9323 5.39777 18.6019C5.0673 18.2714 4.86105 17.955 4.68996 17.5284C4.20246 16.2933 4.31261 13.3659 4.31261 11.9995C4.31261 10.6331 4.20246 7.70343 4.68996 6.47062C4.86105 6.04406 5.0673 5.72531 5.39777 5.39718C5.72824 5.06906 6.04464 4.86046 6.47121 4.68937C7.70402 4.20187 10.6337 4.31203 12.0001 4.31203C13.3665 4.31203 16.2962 4.20187 17.529 4.68937C17.9556 4.86046 18.2743 5.06671 18.6025 5.39718C18.9329 5.72765 19.1392 6.04406 19.3103 6.47062C19.7978 7.70343 19.6876 10.6331 19.6876 11.9995C19.6876 13.3659 19.7978 16.2933 19.3079 17.5261Z"/>
    </symbol>

    <!-- Telegram -->
    <symbol id="whatsapp" viewBox="0 0 24 24">
        <path d="M17.5858 13.5787L14.5858 12.0787C14.4677 12.0199 14.3362 11.9933 14.2045 12.0015C14.0728 12.0097 13.9456 12.0525 13.8358 12.1256L12.4586 13.0444C11.8264 12.6968 11.3062 12.1766 10.9586 11.5444L11.8774 10.1672C11.9505 10.0573 11.9933 9.93016 12.0015 9.79848C12.0097 9.6668 11.9831 9.53528 11.9242 9.41719L10.4242 6.41719C10.3621 6.29163 10.266 6.186 10.1468 6.11226C10.0277 6.03853 9.89028 5.99964 9.75017 6C8.75561 6 7.80179 6.39509 7.09852 7.09835C6.39526 7.80161 6.00018 8.75544 6.00017 9.75C6.00266 11.9373 6.87265 14.0343 8.41928 15.5809C9.96592 17.1275 12.0629 17.9975 14.2502 18C14.7426 18 15.2303 17.903 15.6852 17.7145C16.1402 17.5261 16.5536 17.2499 16.9018 16.9017C17.25 16.5534 17.5263 16.14 17.7147 15.6851C17.9032 15.2301 18.0002 14.7425 18.0002 14.25C18.0003 14.1107 17.9616 13.9741 17.8884 13.8555C17.8152 13.7369 17.7104 13.6411 17.5858 13.5787ZM14.2502 16.5C12.4606 16.498 10.7448 15.7862 9.4794 14.5208C8.21396 13.2553 7.50216 11.5396 7.50017 9.75C7.50003 9.2298 7.68014 8.72562 8.00986 8.32326C8.33958 7.9209 8.79853 7.64521 9.30861 7.54313L10.3849 9.69938L9.46892 11.0625C9.40048 11.1652 9.35842 11.2831 9.34649 11.406C9.33455 11.5288 9.3531 11.6526 9.40049 11.7666C9.9371 13.0419 10.9517 14.0565 12.227 14.5931C12.3413 14.6426 12.4661 14.6629 12.5902 14.6521C12.7143 14.6413 12.8337 14.5998 12.9377 14.5312L14.3074 13.6181L16.4636 14.6944C16.3607 15.205 16.0838 15.6642 15.6802 15.9935C15.2765 16.3228 14.7711 16.5018 14.2502 16.5ZM12.0002 2.25C10.3169 2.24963 8.66213 2.68508 7.19704 3.51396C5.73194 4.34285 4.50641 5.53692 3.63971 6.97997C2.77302 8.42301 2.29469 10.0659 2.25129 11.7486C2.20789 13.4314 2.60089 15.0967 3.39205 16.5825L2.32799 19.7747C2.23985 20.039 2.22706 20.3226 2.29105 20.5938C2.35504 20.8649 2.49328 21.1129 2.69029 21.3099C2.88729 21.5069 3.13526 21.6451 3.40642 21.7091C3.67757 21.7731 3.96119 21.7603 4.22549 21.6722L7.41768 20.6081C8.72527 21.3036 10.1741 21.6921 11.6543 21.744C13.1344 21.7959 14.6069 21.51 15.9601 20.9079C17.3132 20.3057 18.5114 19.4033 19.4636 18.269C20.4159 17.1346 21.0972 15.7983 21.4559 14.3613C21.8146 12.9244 21.8412 11.4246 21.5337 9.97578C21.2263 8.52701 20.5928 7.16732 19.6813 5.99992C18.7699 4.83253 17.6045 3.88811 16.2736 3.23836C14.9427 2.58861 13.4812 2.25061 12.0002 2.25ZM12.0002 20.25C10.5498 20.251 9.12495 19.8691 7.86955 19.1428C7.77763 19.0895 7.67544 19.0563 7.56974 19.0455C7.46404 19.0347 7.35724 19.0464 7.25643 19.08L3.75018 20.25L4.91924 16.7438C4.95294 16.643 4.96485 16.5362 4.95418 16.4305C4.94351 16.3248 4.91051 16.2226 4.85736 16.1306C3.94796 14.5584 3.58284 12.7299 3.81864 10.929C4.05444 9.12801 4.87798 7.4552 6.16151 6.17006C7.44503 4.88491 9.11679 4.05925 10.9175 3.82118C12.7181 3.5831 14.547 3.94591 16.1204 4.85333C17.6938 5.76074 18.9238 7.16204 19.6196 8.83983C20.3153 10.5176 20.4379 12.3781 19.9684 14.1327C19.4989 15.8873 18.4634 17.4379 17.0227 18.5439C15.582 19.65 13.8165 20.2497 12.0002 20.25Z"/>
    </symbol>

    <!-- Close Icon -->
    <symbol id="close-icon" viewBox="0 0 40 40">
        <path d="M16.7173 14.9495C16.2292 14.4613 15.4377 14.4613 14.9496 14.9495C14.4614 15.4376 14.4614 16.2291 14.9496 16.7172L18.2324 20L14.9496 23.2828C14.4614 23.7709 14.4614 24.5624 14.9496 25.0506C15.4378 25.5387 16.2292 25.5387 16.7174 25.0506L20.0001 21.7678L23.2829 25.0505C23.771 25.5387 24.5625 25.5387 25.0506 25.0505C25.5388 24.5624 25.5388 23.7709 25.0506 23.2828L21.7679 20L25.0507 16.7173C25.5388 16.2291 25.5388 15.4376 25.0507 14.9495C24.5625 14.4613 23.7711 14.4613 23.2829 14.9495L20.0001 18.2323L16.7173 14.9495Z"
              fill="white"/>
        <path fill-rule="evenodd" clip-rule="evenodd"
              d="M20.0958 2.08334H19.9045C16.0572 2.08332 13.0421 2.0833 10.6897 2.39958C8.28178 2.72331 6.38174 3.39888 4.89039 4.89023C3.39904 6.38158 2.72347 8.28162 2.39974 10.6895C2.08346 13.042 2.08348 16.057 2.0835 19.9043V20.0956C2.08348 23.9429 2.08346 26.958 2.39974 29.3105C2.72347 31.7184 3.39904 33.6184 4.89039 35.1098C6.38174 36.6011 8.28178 37.2767 10.6897 37.6004C13.0422 37.9167 16.0572 37.9167 19.9045 37.9167H20.0958C23.9431 37.9167 26.9582 37.9167 29.3107 37.6004C31.7186 37.2767 33.6186 36.6011 35.1099 35.1098C36.6013 33.6184 37.2769 31.7184 37.6006 29.3105C37.9169 26.958 37.9169 23.943 37.9168 20.0956V19.9044C37.9169 16.0571 37.9169 13.042 37.6006 10.6895C37.2769 8.28162 36.6013 6.38158 35.1099 4.89023C33.6186 3.39888 31.7186 2.72331 29.3107 2.39958C26.9582 2.0833 23.9431 2.08332 20.0958 2.08334ZM6.65816 6.658C7.60758 5.70857 8.89212 5.16375 11.0228 4.87729C13.1894 4.58599 16.0365 4.58334 20.0002 4.58334C23.9639 4.58334 26.8109 4.58599 28.9775 4.87729C31.1082 5.16375 32.3927 5.70857 33.3422 6.658C34.2916 7.60742 34.8364 8.89196 35.1229 11.0226C35.4142 13.1893 35.4168 16.0363 35.4168 20C35.4168 23.9637 35.4142 26.8107 35.1229 28.9774C34.8364 31.108 34.2916 32.3926 33.3422 33.342C32.3927 34.2914 31.1082 34.8363 28.9775 35.1227C26.8109 35.414 23.9639 35.4167 20.0002 35.4167C16.0365 35.4167 13.1894 35.414 11.0228 35.1227C8.89212 34.8363 7.60758 34.2914 6.65816 33.342C5.70873 32.3926 5.16391 31.108 4.87745 28.9774C4.58615 26.8107 4.5835 23.9637 4.5835 20C4.5835 16.0363 4.58615 13.1893 4.87745 11.0226C5.16391 8.89196 5.70873 7.60742 6.65816 6.658Z"
              fill="white"/>
    </symbol>
</svg>