<svg xmlns="http://www.w3.org/2000/svg">
    <!-- Call -->
    <symbol id="call" viewBox="0 0 20 20">
        <path d="m12.13 12.956-.38.4s-.902.95-3.364-1.643-1.56-3.542-1.56-3.542l.239-.252c.588-.62.644-1.615.13-2.341L6.145 4.09c-.636-.899-1.865-1.018-2.594-.25L2.243 5.218c-.361.38-.603.873-.574 1.42.075 1.4.673 4.411 4.01 7.925 3.54 3.725 6.86 3.874 8.218 3.74.43-.043.803-.274 1.104-.591l1.184-1.247c.799-.84.574-2.283-.449-2.872l-1.592-.916a1.63 1.63 0 0 0-2.014.28"/>
        <path fill-rule="evenodd"
              d="M18.333 5.833a4.167 4.167 0 0 1-6.021 3.732.68.68 0 0 0-.479-.055l-.927.248a.542.542 0 0 1-.664-.664l.248-.927a.68.68 0 0 0-.055-.478 4.167 4.167 0 1 1 7.899-1.855M14.167 4.01c.431 0 .78.35.78.782v.26h.261a.781.781 0 1 1 0 1.563h-.26v.26a.781.781 0 0 1-1.563 0v-.26h-.26a.781.781 0 1 1 0-1.563h.26v-.26c0-.432.35-.782.782-.782"
              clip-rule="evenodd"/>
    </symbol>

    <!-- User -->
    <symbol id="user" viewBox="0 0 20 20">
        <circle cx="10" cy="5" r="3.333"/>
        <ellipse cx="10" cy="14.167" rx="5.833" ry="3.333"/>
    </symbol>

    <!-- Hamburger Menu -->
    <symbol id="hamburger-menu" viewBox="0 0 32 32">
        <path fill-rule="evenodd"
              d="M27.667 9.333a1 1 0 0 1-1 1H5.333a1 1 0 1 1 0-2h21.334a1 1 0 0 1 1 1M27.667 16a1 1 0 0 1-1 1H5.333a1 1 0 1 1 0-2h21.334a1 1 0 0 1 1 1M27.667 22.667a1 1 0 0 1-1 1H5.333a1 1 0 1 1 0-2h21.334a1 1 0 0 1 1 1"
              clip-rule="evenodd"/>
    </symbol>

    <!-- Search -->
    <symbol id="search" viewBox="0 0 24 24" fill="none">
        <circle cx="11.6" cy="11.6" r="7.6" stroke-width="1.5"/>
        <path stroke-linecap="round" stroke-width="1.5" d="M17.2 17.2 20 20"/>
    </symbol>

    <!-- Arrow Linear -->
    <symbol id="arrow-linear" viewBox="0 0 18 9" fill="none">
        <path d="M17.5 4.5C10.8611 4.5 7.13891 4.5 0.5 4.5M4.19565 8.5L0.5 4.5L4.19565 0.5" stroke-linecap="round"
              stroke-linejoin="round"/>
    </symbol>

    <!-- Top Shape of service -->
    <symbol id="top-shape" viewBox="0 0 142 2">
        <path d="M0 0H140C140 0 97.4016 1.5 70 1.5C42.5984 1.5 0 0 0 0Z" fill-opacity="0.4"/>
    </symbol>
</svg>