<svg xmlns="http://www.w3.org/2000/svg">
    <!-- Logo White -->
    <symbol id="logo-white" viewBox="0 0 73 24">
        <svg width="73" height="24" viewBox="0 0 73 24" fill="none" xmlns="http://www.w3.org/2000/svg">
            <path d="M8.59167 11C8.27929 11 8.03633 10.8612 7.81651 10.6413C7.82808 10.757 7.82808 10.8612 7.82808 10.9653C7.82808 12.585 6.54385 14.3205 4.14895 14.3205C1.80032 14.3205 0.666505 12.7007 0.735923 10.9653C0.770631 9.98188 1.17557 8.91747 1.49952 8.26958L2.28625 8.6398C1.95073 9.35712 1.64992 10.1901 1.63835 10.9653C1.61521 12.4809 2.51764 13.2792 4.14895 13.2792C6.12735 13.2792 6.94879 12.0413 6.94879 10.9653C6.94879 10.1554 6.56699 8.84806 6.31246 8.0729L7.16861 7.67953C7.29588 8.06133 7.4 8.41998 7.48099 8.74393C7.74709 9.62322 8.00162 9.95874 8.59167 9.95874H8.66109L8.71894 10.4794L8.66109 11H8.59167ZM3.58204 7.86464L4.40348 7.0432C4.68115 7.32087 4.94725 7.58697 5.22492 7.86464L4.40348 8.68608C4.12581 8.40841 3.85971 8.14231 3.58204 7.86464ZM8.5651 11L8.50725 10.4794L8.5651 9.95874H9.22456C10.9137 9.95874 11.4806 9.64636 11.4806 8.94061C11.4691 8.39684 11.0178 7.12419 10.8559 6.78867L11.6889 6.34903C11.9318 6.84652 12.3831 8.1076 12.3715 8.94061C12.3599 10.2827 11.3765 11 9.35183 11H8.5651ZM12.3252 12.8743L11.5038 13.6957C11.2261 13.418 10.96 13.1519 10.6823 12.8743L11.5038 12.0528C11.7814 12.3305 12.0475 12.5966 12.3252 12.8743ZM10.2543 12.8743L9.43281 13.6957C9.15514 13.418 8.88904 13.1519 8.61137 12.8743L9.43281 12.0528C9.71048 12.3305 9.97659 12.5966 10.2543 12.8743ZM19.882 11C18.8986 11 18.3664 10.41 18.1235 9.53066C17.3599 10.6876 15.7748 11.1851 14.0278 11.3471L13.7733 10.329C14.132 10.2943 14.4791 10.2364 14.8146 10.1786C15.1269 8.99846 14.3286 6.55728 13.4262 4.47475L14.213 3.95412C15.3236 6.34903 15.9484 8.66294 15.7286 9.94717C16.874 9.58851 17.6838 8.96375 17.6838 7.92249C17.6838 6.25647 17.545 4.9144 17.3367 3.14425L18.2623 2.94757C18.4821 4.72928 18.6672 6.22176 18.6094 7.91092C18.621 9.22985 18.8986 9.95874 19.8936 9.95874H20.0093V11H19.882ZM19.8966 11V9.95874H20.4982C21.7709 9.95874 22.2568 9.62322 22.2452 8.94061C22.2452 8.39684 21.7824 7.11262 21.632 6.78867L22.465 6.34903C22.6964 6.84652 23.1477 8.14231 23.1477 8.97532C23.1361 10.3174 22.1758 11 20.4982 11H19.8966ZM20.9032 4.81027L21.7246 3.98883C22.0023 4.2665 22.2684 4.5326 22.546 4.81027L21.7246 5.63171C21.4469 5.35404 21.1808 5.08794 20.9032 4.81027ZM25.1282 10.9306C25.2902 9.38026 25.1398 5.14579 24.9894 4.17395L25.915 3.97726C26.0654 4.93754 26.262 9.24142 26.0538 11.0463L25.1282 10.9306ZM23.5663 3.32937C23.8209 2.70461 24.2142 2.33438 24.677 2.31124C25.2786 2.27653 25.5794 2.65833 26.0654 2.65833C26.3546 2.65833 26.6785 2.47322 26.8752 2.18398L27.257 2.51949C26.9562 2.97071 26.505 3.24838 26.0654 3.24838C25.4869 3.24838 25.2092 2.87815 24.7117 2.90129C24.4225 2.91286 24.1564 3.14425 23.9944 3.56076L23.5663 3.32937ZM28.0281 15.1766C27.9818 14.5634 27.6463 11.6132 27.7389 9.9356C27.7852 9.11416 28.4793 8.6051 29.2198 8.85963C29.752 7.76052 30.4462 6.73082 31.337 6.68454C33.3501 6.56885 34.0212 10.0397 32.332 10.9422C31.7767 11.243 30.8858 10.9653 29.0462 9.88932C28.8843 9.79676 28.6876 9.85461 28.676 10.1091C28.6182 11.671 28.919 14.4362 28.9421 15.0146L28.0281 15.1766ZM32.0428 10.0282C32.8179 9.63479 32.4593 7.63325 31.4411 7.63325C30.9437 7.63325 30.4115 8.39684 29.9602 9.25299C31.0015 9.92403 31.7651 10.1901 32.0428 10.0282ZM36.8967 11C35.1729 11 34.7332 10.1207 34.7679 8.28115C34.7795 6.92751 34.7101 4.1161 34.5597 3.14425L35.4853 2.94757C35.6241 3.89628 35.7051 6.95065 35.6819 8.17702C35.6472 9.49595 35.7166 9.95874 36.8967 9.95874H36.9546L37.0124 10.4794L36.9546 11H36.8967ZM36.8442 11V9.95874H36.9484C38.7648 9.95874 39.2044 9.72735 39.4011 9.20671C39.5515 8.81335 39.4358 8.11917 39.3317 7.43657L40.1878 7.27459C40.3382 8.03819 40.3382 9.12573 40.3382 9.12573C40.4424 9.6695 40.801 9.95874 41.3911 9.95874H41.4721L41.5299 10.4794L41.4721 11H41.3911C40.72 11 40.1763 10.6182 39.8986 10.086C39.5284 10.7686 38.6954 11 36.9484 11H36.8442ZM39.9449 12.8743L39.1234 13.6957C38.8458 13.418 38.5797 13.1519 38.302 12.8743L39.1234 12.0528C39.4011 12.3305 39.6672 12.5966 39.9449 12.8743ZM37.8739 12.8743L37.0525 13.6957C36.7748 13.418 36.5087 13.1519 36.231 12.8743L37.0525 12.0528C37.3302 12.3305 37.5963 12.5966 37.8739 12.8743ZM41.3523 11V9.95874H41.8151C43.5042 9.95874 44.0712 9.64636 44.0712 8.94061C44.0596 8.39684 43.6084 7.12419 43.4464 6.78867L44.2794 6.34903C44.5224 6.84652 44.9736 8.1076 44.962 8.94061C44.9504 10.2827 43.967 11 41.9423 11H41.3523ZM44.3488 12.5619L43.5737 13.3371C43.3076 13.0825 43.053 12.8164 42.7869 12.5619L43.5737 11.7752C43.8282 12.0413 44.0943 12.2958 44.3488 12.5619ZM42.2316 12.5619C41.9655 12.8164 41.711 13.0825 41.4449 13.3371L40.6697 12.5619C40.9242 12.2958 41.1903 12.0413 41.4449 11.7752L42.2316 12.5619ZM43.215 13.823L42.5093 14.5172C42.2779 14.2858 42.0465 14.0544 41.8151 13.823L42.5093 13.1172C42.7407 13.3486 42.9836 13.5916 43.215 13.823Z" fill="white"/>
            <path d="M1.83956 22.3206C1.03975 22.3206 0.415998 21.7924 0.45624 20.9775C0.471331 20.6153 0.622239 20.1676 0.783207 19.8457L1.12526 20.0117C0.969326 20.3336 0.853631 20.6656 0.8486 20.9725C0.83854 21.5006 1.22084 21.8678 1.83956 21.8678C2.60416 21.8678 2.95125 21.4554 2.91603 20.6405C2.85064 19.0308 2.79531 18.065 2.75507 17.6424L3.15246 17.5569C3.1927 17.9744 3.243 19.0559 3.30839 20.6203C3.34864 21.6918 2.81543 22.3206 1.83956 22.3206ZM4.88986 21.058C4.14035 21.058 3.9492 20.6757 3.96429 19.8759C3.96932 19.2873 3.93914 18.065 3.87375 17.6424L4.27617 17.5569C4.33653 17.9694 4.37174 19.2974 4.36168 19.8306C4.34659 20.404 4.37677 20.6052 4.88986 20.6052H4.91501L4.94016 20.8316L4.91501 21.058H4.88986ZM4.86703 21.058V20.6052H4.9123C5.70205 20.6052 5.8932 20.5046 5.97871 20.2783C6.04411 20.1073 5.9938 19.8054 5.94853 19.5086L6.32077 19.4382C6.38616 19.7702 6.38616 20.2431 6.38616 20.2431C6.43144 20.4795 6.58737 20.6052 6.84392 20.6052H6.87913L6.90428 20.8316L6.87913 21.058H6.84392C6.55216 21.058 6.31574 20.892 6.19501 20.6606C6.03405 20.9574 5.67187 21.058 4.9123 21.058H4.86703ZM5.0129 18.6887L5.37005 18.3316C5.49078 18.4523 5.60647 18.568 5.7272 18.6887L5.37005 19.0459C5.24933 18.9251 5.13363 18.8094 5.0129 18.6887ZM5.91332 18.6887L6.27047 18.3316C6.39119 18.4523 6.50689 18.568 6.62762 18.6887L6.27047 19.0459C6.14974 18.9251 6.03405 18.8094 5.91332 18.6887ZM6.82706 21.058V20.6052H6.87233C7.66208 20.6052 7.85323 20.5046 7.93874 20.2783C8.00414 20.1073 7.95383 19.8054 7.90856 19.5086L8.2808 19.4382C8.34619 19.7702 8.34619 20.2431 8.34619 20.2431C8.39147 20.4795 8.5474 20.6052 8.80395 20.6052H8.83916L8.86431 20.8316L8.83916 21.058H8.80395C8.51219 21.058 8.27577 20.892 8.15504 20.6606C7.99408 20.9574 7.6319 21.058 6.87233 21.058H6.82706ZM8.17517 21.8729L7.81802 22.23C7.69729 22.1093 7.5816 21.9936 7.46087 21.8729L7.81802 21.5157C7.93874 21.6364 8.05444 21.7521 8.17517 21.8729ZM7.27475 21.8729L6.9176 22.23C6.79688 22.1093 6.68118 21.9936 6.56045 21.8729L6.9176 21.5157C7.03833 21.6364 7.15402 21.7521 7.27475 21.8729ZM12.595 21.058C12.0115 21.0529 11.6443 20.8467 11.4682 20.4292C10.7942 20.7712 10.11 21.058 9.24484 21.058H8.78206V20.6052H9.24484C10.1352 20.6052 10.8394 20.3638 11.5135 20.0066C11.5839 19.9664 11.6543 19.9312 11.7248 19.901C11.4984 19.8608 11.2821 19.7803 11.0507 19.6646C10.774 19.5187 10.5125 19.408 10.2509 19.408C9.94405 19.403 9.70259 19.6294 9.60199 19.8306L9.33036 19.6445C9.54666 19.2068 9.87362 18.9754 10.266 18.9805C10.5728 18.9855 10.8193 19.1113 11.1966 19.3024C11.5235 19.4684 11.7952 19.6143 12.1674 19.6897L12.1825 20.0871C12.0618 20.1223 11.9511 20.1777 11.77 20.2732C11.9209 20.4694 12.2026 20.6002 12.595 20.6052H12.6453L12.6704 20.8316L12.6453 21.058H12.595ZM10.095 21.8226L10.4521 21.4654C10.5728 21.5861 10.6885 21.7018 10.8093 21.8226L10.4521 22.1797C10.3314 22.059 10.2157 21.9433 10.095 21.8226ZM12.5942 21.058V20.6052H12.7954C13.5298 20.6052 13.7763 20.4694 13.7763 20.1626C13.7712 19.9262 13.5751 19.3728 13.5046 19.227L13.8668 19.0358C13.9725 19.2521 14.1686 19.8004 14.1636 20.1626C14.1586 20.7461 13.731 21.058 12.8507 21.058H12.5942ZM13.9071 21.8829L13.5499 22.2401C13.4292 22.1194 13.3135 22.0037 13.1928 21.8829L13.5499 21.5258C13.6706 21.6465 13.7863 21.7622 13.9071 21.8829ZM13.0066 21.8829L12.6495 22.2401C12.5288 22.1194 12.4131 22.0037 12.2924 21.8829L12.6495 21.5258C12.7702 21.6465 12.8859 21.7622 13.0066 21.8829ZM15.6458 21.0731C15.0522 21.0731 14.685 20.8568 14.519 20.7159L14.7152 20.3839C14.8611 20.4644 15.1277 20.6405 15.6106 20.6405C16.008 20.6405 16.2243 20.4996 16.2796 20.3889C16.3903 20.1475 16.1388 19.5891 15.2585 18.9402L15.4848 18.5479C16.3903 19.232 16.8581 20.0268 16.6066 20.5902C16.4657 20.9071 16.0784 21.0731 15.6458 21.0731ZM20.0716 22.4614C19.1862 22.4614 18.5474 21.9081 18.5876 21.0026C18.6027 20.5801 18.7788 20.1123 18.9196 19.8306L19.2617 19.9916C19.1158 20.3034 18.985 20.6656 18.98 21.0026C18.9699 21.6616 19.3623 22.0087 20.0716 22.0087C20.7255 22.0087 21.2537 21.6968 21.304 21.5208C21.2587 21.4101 20.8009 21.0781 20.303 20.8718L20.3985 20.4443C20.8613 20.5399 21.2839 20.6052 21.6963 20.6052H21.8171L21.8422 20.8316L21.8171 21.058H21.6963C21.5655 21.058 21.4348 21.0529 21.309 21.0378C21.5303 21.1888 21.6963 21.3598 21.6913 21.5358C21.6712 21.9986 20.9418 22.4614 20.0716 22.4614ZM21.7262 21.058V20.6052H21.9878C22.5411 20.6052 22.7524 20.4594 22.7474 20.1626C22.7474 19.9262 22.5462 19.3678 22.4808 19.227L22.843 19.0358C22.9436 19.2521 23.1397 19.8155 23.1397 20.1777C23.1347 20.7612 22.7172 21.058 21.9878 21.058H21.7262ZM22.1639 18.3668L22.521 18.0096C22.6417 18.1304 22.7574 18.2461 22.8782 18.3668L22.521 18.7239C22.4003 18.6032 22.2846 18.4875 22.1639 18.3668ZM24.7161 21.058C23.9666 21.058 23.7755 20.6757 23.7906 19.8759C23.7956 19.2873 23.7654 18.065 23.7 17.6424L24.1024 17.5569C24.1628 17.9694 24.198 19.2974 24.188 19.8306C24.1729 20.404 24.203 20.6052 24.7161 20.6052H24.7413L24.7664 20.8316L24.7413 21.058H24.7161ZM24.6933 21.058V20.6052H24.9549C25.5082 20.6052 25.7195 20.4594 25.7144 20.1626C25.7144 19.9262 25.5132 19.3678 25.4478 19.227L25.81 19.0358C25.9106 19.2521 26.1068 19.8155 26.1068 20.1777C26.1018 20.7612 25.6843 21.058 24.9549 21.058H24.6933ZM24.7134 21.888L25.0706 21.5308C25.1913 21.6515 25.307 21.7672 25.4277 21.888L25.0706 22.2451C24.9498 22.1244 24.8342 22.0087 24.7134 21.888ZM27.9307 21.058C27.7948 21.058 27.6842 21.0228 27.5936 20.9674V21.0429C27.5936 21.6515 27.0051 22.23 26.2355 22.5017L26.0644 22.1093C26.7234 21.8829 27.2063 21.4101 27.2063 21.0429C27.2063 20.8366 27.0554 20.1978 26.9498 19.7853L27.3371 19.6394C27.3874 19.8004 27.4327 19.9714 27.4679 20.1475C27.5685 20.4795 27.6942 20.6052 27.9307 20.6052H27.9659L27.991 20.8316L27.9659 21.058H27.9307ZM26.7083 18.7843L27.0655 18.4271C27.1862 18.5479 27.3019 18.6636 27.4226 18.7843L27.0655 19.1414C26.9447 19.0207 26.829 18.905 26.7083 18.7843ZM27.9158 21.058V20.6052H27.9611C28.7508 20.6052 28.942 20.5046 29.0275 20.2783C29.0929 20.1073 29.0426 19.8054 28.9973 19.5086L29.3696 19.4382C29.4349 19.7702 29.4349 20.2431 29.4349 20.2431C29.4802 20.4795 29.6362 20.6052 29.8927 20.6052H29.9279L29.9531 20.8316L29.9279 21.058H29.8927C29.6009 21.058 29.3645 20.892 29.2438 20.6606C29.0828 20.9574 28.7206 21.058 27.9611 21.058H27.9158ZM29.5607 21.8829L29.2036 22.2401C29.0828 22.1194 28.9671 22.0037 28.8464 21.8829L29.2036 21.5258C29.3243 21.6465 29.44 21.7622 29.5607 21.8829ZM28.6603 21.8829L28.3031 22.2401C28.1824 22.1194 28.0667 22.0037 27.946 21.8829L28.3031 21.5258C28.4239 21.6465 28.5396 21.7622 28.6603 21.8829ZM29.8758 21.058L29.8809 20.6052H29.9764C30.2481 20.6052 30.4895 20.4543 30.6455 20.1374C30.8869 19.6495 31.1887 19.2018 31.5811 19.1817C32.4513 19.1314 32.7381 20.6405 32.0087 21.0328C31.7521 21.1686 31.3195 21.0077 30.7712 20.6555C30.565 20.9222 30.2883 21.058 29.9664 21.058H29.8758ZM30.9775 20.2984C31.4201 20.5751 31.7572 20.7059 31.8829 20.6354C32.2199 20.4644 32.059 19.5942 31.6163 19.5942C31.4201 19.5942 31.2139 19.8557 30.9775 20.2984ZM33.7277 22.1093C34.3867 21.8829 34.8696 21.4101 34.8696 21.0429C34.8696 20.8366 34.7187 20.1978 34.613 19.7853L35.0004 19.6394C35.1412 20.1022 35.2569 20.6958 35.2569 21.0429C35.2569 21.6515 34.6684 22.23 33.8987 22.5017L33.7277 22.1093ZM36.8251 21.058C36.0756 21.058 35.8844 20.6757 35.8995 19.8759C35.9046 19.2873 35.8744 18.065 35.809 17.6424L36.2114 17.5569C36.2718 17.9694 36.307 19.2974 36.2969 19.8306C36.2818 20.404 36.312 20.6052 36.8251 20.6052H36.8502L36.8754 20.8316L36.8502 21.058H36.8251ZM39.4391 21.058C39.0568 21.058 38.7751 20.8417 38.4481 20.3688L38.438 20.394C38.272 20.8568 37.7087 21.058 36.8887 21.058H36.763V20.6052H36.8887C37.5628 20.6052 37.9652 20.4845 38.0658 20.2431C38.2016 19.9161 37.7942 19.3225 37.0145 18.6937L37.0698 18.2662L38.9059 17.4714L39.0366 17.8436L37.4622 18.5278C37.759 18.7742 38.091 19.1364 38.2922 19.5086C38.7952 20.3286 39.0316 20.6052 39.4391 20.6052H39.4994L39.5246 20.8316L39.4994 21.058H39.4391ZM39.4601 21.058V20.6052H39.5305C39.7619 20.6052 39.9681 20.5952 40.1442 20.5751C39.943 20.399 39.8223 20.1777 39.8424 19.9262C39.8625 19.6344 40.0235 19.3477 40.2297 19.1565L40.0637 19.1113L40.2197 18.6887C42.5487 19.4835 42.609 20.0117 42.443 20.5751C42.277 21.1284 41.4068 21.1787 40.7177 20.9171C40.4158 21.0127 40.0184 21.058 39.5305 21.058H39.4601ZM40.2146 19.901C40.2146 20.1173 40.4259 20.3185 40.7076 20.4594C40.9792 20.3537 41.115 20.1928 41.1503 19.9765C41.1855 19.6847 41.0346 19.3779 40.7629 19.3427C40.5064 19.3074 40.2146 19.6243 40.2146 19.901ZM41.2207 20.6304C41.6332 20.7159 42.0356 20.6656 42.1161 20.4091C42.1764 20.2129 42.0255 19.9362 41.4873 19.6445C41.5175 19.7652 41.5275 19.896 41.5074 20.0268C41.4722 20.2783 41.3766 20.4795 41.2207 20.6304ZM43.1002 21.0278C43.1757 20.3537 43.1103 18.065 43.0449 17.6424L43.4473 17.5569C43.5077 17.9744 43.5932 20.2934 43.5077 21.0781L43.1002 21.0278ZM43.5426 22.1093C44.2016 21.8829 44.6845 21.4101 44.6845 21.0429C44.6845 20.8366 44.5336 20.1978 44.4279 19.7853L44.8153 19.6394C44.9561 20.1022 45.0718 20.6958 45.0718 21.0429C45.0718 21.6515 44.4833 22.23 43.7136 22.5017L43.5426 22.1093Z" fill="white"/>
            <g clip-path="url(#clip0_6015_6992)">
                <path d="M52.2628 1.2286C52.2631 0.556945 52.8074 0.0123532 53.479 0.0112936C57.826 0.00443583 62.1753 -0.0191109 66.5219 0.0292404C69.7744 0.0720702 72.5391 2.87336 72.7994 6.06716C72.8686 8.26788 72.8488 10.4719 72.7863 12.6726C72.7567 15.9093 69.8337 18.9184 66.5615 18.8161C63.5562 18.8227 60.5477 18.8062 57.539 18.8193C57.5314 20.147 57.553 21.4747 57.5379 22.8038C57.5303 23.4676 56.9805 23.9912 56.3167 23.9881C54.9688 23.9817 53.6209 23.9931 52.273 23.9829C52.2552 22.622 52.269 21.2631 52.2623 19.9032C52.259 19.2446 52.7738 18.6959 53.4323 18.6845C54.7935 18.6608 56.1573 18.69 57.5192 18.6875C57.542 17.3658 57.5356 16.0441 57.5344 14.7209C57.5338 14.054 58.0725 13.5134 58.7393 13.5101C61.1223 13.4984 63.5039 13.501 65.8866 13.5103C66.7768 13.5138 67.5343 12.873 67.5738 11.9837C67.6393 10.5111 67.5665 8.90592 67.5665 8.72315C67.5665 8.55655 67.6385 7.61014 67.5865 6.67121C67.542 5.86922 66.8331 5.34552 66.0299 5.35353C61.844 5.39524 57.6582 5.37886 53.4724 5.35739C52.8046 5.35397 52.2644 4.81298 52.2634 4.14526C52.2618 3.17325 52.2623 2.20066 52.2628 1.2286Z" fill="white"/>
                <path d="M57.5351 22.8054C57.5452 21.4347 57.5116 20.0225 57.5192 18.6891C56.1573 18.6916 54.7935 18.6624 53.4323 18.6861C52.7738 18.6975 52.259 19.2462 52.2623 19.9048C52.269 21.2647 52.2552 22.6236 52.273 23.9845C53.6209 23.9948 54.9688 23.9833 56.3167 23.9897C56.9805 23.9928 57.5302 23.4692 57.5351 22.8054Z" fill="white"/>
            </g>
            <defs>
                <clipPath id="clip0_6015_6992">
                    <rect width="20.5932" height="24" fill="white" transform="translate(52.25)"/>
                </clipPath>
            </defs>
        </svg>
    </symbol>

    <!-- Call -->
    <symbol id="call" viewBox="0 0 20 20">
        <path d="m12.13 12.956-.38.4s-.902.95-3.364-1.643-1.56-3.542-1.56-3.542l.239-.252c.588-.62.644-1.615.13-2.341L6.145 4.09c-.636-.899-1.865-1.018-2.594-.25L2.243 5.218c-.361.38-.603.873-.574 1.42.075 1.4.673 4.411 4.01 7.925 3.54 3.725 6.86 3.874 8.218 3.74.43-.043.803-.274 1.104-.591l1.184-1.247c.799-.84.574-2.283-.449-2.872l-1.592-.916a1.63 1.63 0 0 0-2.014.28"/>
        <path fill-rule="evenodd"
              d="M18.333 5.833a4.167 4.167 0 0 1-6.021 3.732.68.68 0 0 0-.479-.055l-.927.248a.542.542 0 0 1-.664-.664l.248-.927a.68.68 0 0 0-.055-.478 4.167 4.167 0 1 1 7.899-1.855M14.167 4.01c.431 0 .78.35.78.782v.26h.261a.781.781 0 1 1 0 1.563h-.26v.26a.781.781 0 0 1-1.563 0v-.26h-.26a.781.781 0 1 1 0-1.563h.26v-.26c0-.432.35-.782.782-.782"
              clip-rule="evenodd"/>
    </symbol>

    <!-- User -->
    <symbol id="user" viewBox="0 0 20 20">
        <circle cx="10" cy="5" r="3.333"/>
        <ellipse cx="10" cy="14.167" rx="5.833" ry="3.333"/>
    </symbol>

    <!-- User 2 -->
    <symbol id="user-2" viewBox="0 0 24 24">
        <circle cx="12" cy="6" r="4" fill="#1844DA"/>
        <path d="M20 17.5C20 19.9853 20 22 12 22C4 22 4 19.9853 4 17.5C4 15.0147 7.58172 13 12 13C16.4183 13 20 15.0147 20 17.5Z" fill="#BACAFF"/>
    </symbol>

    <!-- Hamburger Menu -->
    <symbol id="hamburger-menu" viewBox="0 0 32 32">
        <path fill-rule="evenodd"
              d="M27.667 9.333a1 1 0 0 1-1 1H5.333a1 1 0 1 1 0-2h21.334a1 1 0 0 1 1 1M27.667 16a1 1 0 0 1-1 1H5.333a1 1 0 1 1 0-2h21.334a1 1 0 0 1 1 1M27.667 22.667a1 1 0 0 1-1 1H5.333a1 1 0 1 1 0-2h21.334a1 1 0 0 1 1 1"
              clip-rule="evenodd"/>
    </symbol>

    <!-- Search -->
    <symbol id="search" viewBox="0 0 24 24" fill="none">
        <circle cx="11.6" cy="11.6" r="7.6" stroke-width="1.5"/>
        <path stroke-linecap="round" stroke-width="1.5" d="M17.2 17.2 20 20"/>
    </symbol>

    <!-- Arrow Linear -->
    <symbol id="arrow-linear" viewBox="0 0 18 9" fill="none">
        <path d="M17.5 4.5C10.8611 4.5 7.13891 4.5 0.5 4.5M4.19565 8.5L0.5 4.5L4.19565 0.5" stroke-linecap="round"
              stroke-linejoin="round"/>
    </symbol>

    <!-- Arrow Linear 2 -->
    <symbol id="arrow-linear-2" viewBox="0 0 20 20">
        <path fill-rule="evenodd" d="M8.775 4.558a.625.625 0 0 1 0 .884L4.842 9.375h11.825a.625.625 0 1 1 0 1.25H4.842l3.933 3.933a.625.625 0 1 1-.884.884l-5-5a.625.625 0 0 1 0-.884l5-5a.625.625 0 0 1 .884 0" clip-rule="evenodd"/>
    </symbol>

    <!-- Arrow Down -->
    <symbol id="arrow-down" viewBox="0 0 20 20">
        <path fill-rule="evenodd" d="M3.692 7.093a.625.625 0 0 1 .882-.068L10 11.677l5.427-4.652a.625.625 0 0 1 .813.95l-5.833 5c-.234.2-.58.2-.814 0l-5.833-5a.625.625 0 0 1-.068-.882" clip-rule="evenodd"/>
    </symbol>

    <!-- Arrow Down 2 -->
    <symbol id="arrow-down-2" viewBox="0 0 32 32" fill="none">
        <path d="M23.4665 12.8L15.9999 19.2L8.5332 12.8" stroke-width="2" stroke-linecap="round" stroke-linejoin="round"/>
    </symbol>

    <!-- Top Shape of service -->
    <symbol id="top-shape" viewBox="0 0 142 2">
        <path d="M0 0H140C140 0 97.4016 1.5 70 1.5C42.5984 1.5 0 0 0 0Z"/>
    </symbol>

    <!-- Right Shape of service -->
    <symbol id="right-shape" viewBox="0 0 1 48">
        <path d="M1 48V0S0 14.605 0 24s1 24 1 24" fill-opacity="1"/>
    </symbol>

    <!-- Quote -->
    <symbol id="quote" viewBox="0 0 49 45">
        <path d="m48.012.456-1.09 8.592q-3.992-.277-6.171 1.478t-2.904 4.896q-.726 3.141-.273 7.113h10.439V44.8h-20.06V20.688q0-10.902 5.083-16.444Q38.21-1.392 48.012.456m-27.955 0-1.088 8.592q-3.994-.277-6.172 1.478t-2.905 4.896q-.726 3.141-.272 7.113h10.438V44.8H0V20.688Q0 9.786 5.082 4.244 10.256-1.392 20.058.456z"/>
    </symbol>

    <!-- Star -->
    <symbol id="star" viewBox="0 0 20 20">
        <g clip-path="url(#clip0_5053_1815)">
            <path d="M9.08893 1.30865C9.19133 1.16195 9.32763 1.04214 9.48626 0.95942C9.64488 0.876695 9.82114 0.833496 10 0.833496C10.1789 0.833496 10.3552 0.876695 10.5138 0.95942C10.6724 1.04214 10.8088 1.16195 10.9112 1.30865L13.7312 5.35643C13.8739 5.56109 14.0813 5.71177 14.32 5.7842L19.0412 7.2142C19.2126 7.26615 19.3689 7.35876 19.4968 7.48415C19.6247 7.60954 19.7204 7.76399 19.7757 7.93434C19.831 8.10469 19.8443 8.28589 19.8145 8.4625C19.7847 8.63911 19.7127 8.8059 19.6045 8.94865L16.6267 12.8809C16.4757 13.08 16.3962 13.3243 16.4012 13.5742L16.4989 18.5053C16.5024 18.6843 16.4626 18.8616 16.3828 19.0219C16.303 19.1822 16.1857 19.3208 16.0407 19.426C15.8958 19.5312 15.7276 19.5998 15.5505 19.626C15.3734 19.6522 15.1925 19.6352 15.0234 19.5764L10.3645 17.9598C10.1284 17.8778 9.87165 17.8778 9.6356 17.9598L4.9756 19.5764C4.80651 19.635 4.62579 19.6518 4.4488 19.6255C4.27181 19.5992 4.10379 19.5306 3.95902 19.4254C3.81425 19.3203 3.69703 19.1817 3.61731 19.0215C3.53759 18.8613 3.49774 18.6842 3.50115 18.5053L3.59893 13.5742C3.60419 13.3244 3.52512 13.0802 3.37448 12.8809L0.396706 8.94865C0.288755 8.80598 0.216848 8.63936 0.1871 8.46295C0.157351 8.28654 0.170641 8.10555 0.225839 7.93538C0.281036 7.7652 0.37651 7.61087 0.504142 7.48551C0.631775 7.36014 0.787791 7.26745 0.958929 7.21531L5.68004 5.7842C5.9188 5.71177 6.12623 5.56109 6.26893 5.35643L9.08893 1.30865Z"/>
        </g>
        <defs>
            <clipPath id="clip0_5053_1815">
                <rect width="20" height="20"/>
            </clipPath>
        </defs>
    </symbol>

    <!-- Whatsapp -->
    <symbol id="social-whatsapp" viewBox="0 0 24 24">
        <g clip-path="url(#clip0_5002_314)">
            <path d="M12 24C18.6274 24 24 18.6274 24 12C24 5.37258 18.6274 0 12 0C5.37258 0 0 5.37258 0 12C0 13.9196 0.450739 15.734 1.25215 17.343C1.46512 17.7706 1.53601 18.2593 1.41254 18.7207L0.697811 21.392C0.387545 22.5516 1.44842 23.6125 2.60802 23.3022L5.27926 22.5875C5.74072 22.464 6.22945 22.5349 6.65703 22.7478C8.26604 23.5493 10.0804 24 12 24Z"
                  fill="white"/>
        </g>
        <path d="M14.5375 13.6038L14.2339 13.9057C14.2339 13.9057 13.5122 14.6233 11.5422 12.6645C9.57216 10.7057 10.2939 9.98805 10.2939 9.98805L10.4851 9.79793C10.9561 9.32957 11.0005 8.57762 10.5896 8.02866L9.74892 6.90573C9.24027 6.22629 8.25739 6.13653 7.67438 6.71623L6.62798 7.75669C6.3389 8.04413 6.14518 8.41674 6.16867 8.83008C6.22877 9.88755 6.70722 12.1628 9.37699 14.8174C12.2082 17.6325 14.8646 17.7444 15.9509 17.6431C16.2945 17.6111 16.5934 17.4361 16.8342 17.1966L17.7812 16.255C18.4205 15.6194 18.2402 14.5296 17.4223 14.085L16.1486 13.3926C15.6116 13.1007 14.9573 13.1864 14.5375 13.6038Z"
              fill="#07041D"/>
        <defs>
            <clipPath id="clip0_5002_314">
                <rect width="24" height="24" fill="white"/>
            </clipPath>
        </defs>
    </symbol>

    <!-- Linkedin -->
    <symbol id="social-linkedin" viewBox="0 0 24 24">
        <g clip-path="url(#clip0_5002_310)">
            <g clip-path="url(#clip1_5002_310)">
                <path d="M22.2234 0H1.77187C0.792187 0 0 0.773438 0 1.72969V22.2656C0 23.2219 0.792187 24 1.77187 24H22.2234C23.2031 24 24 23.2219 24 22.2703V1.72969C24 0.773438 23.2031 0 22.2234 0ZM7.12031 20.4516H3.55781V8.99531H7.12031V20.4516ZM5.33906 7.43438C4.19531 7.43438 3.27188 6.51094 3.27188 5.37187C3.27188 4.23281 4.19531 3.30937 5.33906 3.30937C6.47813 3.30937 7.40156 4.23281 7.40156 5.37187C7.40156 6.50625 6.47813 7.43438 5.33906 7.43438ZM20.4516 20.4516H16.8937V14.8828C16.8937 13.5562 16.8703 11.8453 15.0422 11.8453C13.1906 11.8453 12.9094 13.2937 12.9094 14.7891V20.4516H9.35625V8.99531H12.7687V10.5609H12.8156C13.2891 9.66094 14.4516 8.70938 16.1813 8.70938C19.7859 8.70938 20.4516 11.0813 20.4516 14.1656V20.4516Z"
                      fill="white"/>
            </g>
        </g>
        <defs>
            <clipPath id="clip0_5002_310">
                <rect width="24" height="24" rx="6" fill="white"/>
            </clipPath>
            <clipPath id="clip1_5002_310">
                <rect width="24" height="24" fill="white"/>
            </clipPath>
        </defs>
    </symbol>

    <!-- Telegram -->
    <symbol id="social-telegram" viewBox="0 0 24 24">
        <g clip-path="url(#clip0_5002_306)">
            <g clip-path="url(#clip1_5002_306)">
                <path fill-rule="evenodd" clip-rule="evenodd"
                      d="M24 12C24 18.6274 18.6274 24 12 24C5.37258 24 0 18.6274 0 12C0 5.37258 5.37258 0 12 0C18.6274 0 24 5.37258 24 12ZM12.43 8.85893C11.2628 9.3444 8.93014 10.3492 5.43189 11.8733C4.86383 12.0992 4.56626 12.3202 4.53917 12.5363C4.49339 12.9015 4.95071 13.0453 5.57347 13.2411C5.65818 13.2678 5.74595 13.2954 5.83594 13.3246C6.44864 13.5238 7.27283 13.7568 7.70129 13.766C8.08994 13.7744 8.52373 13.6142 9.00264 13.2853C12.2712 11.079 13.9584 9.96381 14.0643 9.93977C14.139 9.92281 14.2426 9.90148 14.3128 9.96385C14.3829 10.0262 14.376 10.1443 14.3686 10.176C14.3233 10.3691 12.5281 12.0381 11.5991 12.9018C11.3095 13.171 11.1041 13.362 11.0621 13.4056C10.968 13.5033 10.8721 13.5958 10.78 13.6846C10.2108 14.2333 9.78391 14.6448 10.8036 15.3168C11.2936 15.6397 11.6858 15.9067 12.077 16.1731C12.5042 16.4641 12.9303 16.7543 13.4816 17.1157C13.6221 17.2077 13.7562 17.3034 13.8869 17.3965C14.3841 17.751 14.8307 18.0694 15.3826 18.0186C15.7032 17.9891 16.0345 17.6876 16.2027 16.7884C16.6002 14.6631 17.3816 10.0585 17.5622 8.16097C17.578 7.99473 17.5581 7.78197 17.5422 7.68857C17.5262 7.59518 17.4928 7.46211 17.3714 7.3636C17.2276 7.24694 17.0056 7.22234 16.9064 7.22408C16.455 7.23203 15.7626 7.47282 12.43 8.85893Z"
                      fill="white"/>
            </g>
        </g>
        <defs>
            <clipPath id="clip0_5002_306">
                <rect width="24" height="24" fill="white"/>
            </clipPath>
            <clipPath id="clip1_5002_306">
                <rect width="24" height="24" fill="white"/>
            </clipPath>
        </defs>
    </symbol>

    <!-- landline -->
    <symbol id="contact-landline" viewBox="0 0 24 24">
        <path d="M5.88889 16C3.74111 16 2 14.2091 2 12C2 9.79086 3.74111 8 5.88889 8C8.03666 8 9.77778 9.79086 9.77778 12C9.77778 12.8499 9.5201 13.6378 9.08073 14.2857H14.9193C14.4799 13.6378 14.2222 12.8499 14.2222 12C14.2222 9.79086 15.9633 8 18.1111 8C20.2589 8 22 9.79086 22 12C22 14.2091 20.2589 16 18.1111 16H5.88889Z"
              fill="white"/>
    </symbol>

    <!-- mobile -->
    <symbol id="contact-mobile" viewBox="0 0 24 24">
        <path d="M13.9624 5.31617L13.3134 6.4791C12.7277 7.52858 12.9628 8.90533 13.8853 9.8278C13.8853 9.8278 15.0042 10.9467 12.9755 12.9755C10.9468 15.0042 9.8278 13.8853 9.8278 13.8853C8.90533 12.9628 7.52858 12.7277 6.4791 13.3134L5.31617 13.9624C3.73144 14.8468 3.54428 17.0692 4.93723 18.4622C5.77423 19.2992 6.7996 19.9505 7.93309 19.9934C9.84122 20.0658 13.0817 19.5829 16.3323 16.3323C19.5829 13.0817 20.0658 9.84122 19.9934 7.93309C19.9505 6.7996 19.2992 5.77423 18.4622 4.93723C17.0692 3.54428 14.8468 3.73144 13.9624 5.31617Z"
              fill="white"/>
        <path d="M10.7405 1.87983C10.6743 1.47094 10.2878 1.19357 9.87889 1.25976C9.85358 1.26461 9.77214 1.27983 9.72947 1.28933C9.64415 1.30834 9.52512 1.33759 9.37671 1.38082C9.07993 1.46726 8.66533 1.60967 8.16771 1.8378C7.17143 2.29456 5.84562 3.09356 4.46982 4.46936C3.09402 5.84516 2.29501 7.17097 1.83826 8.16725C1.61012 8.66487 1.46772 9.07947 1.38128 9.37625C1.33805 9.52466 1.30879 9.64369 1.28979 9.72901C1.28029 9.77168 1.27335 9.80594 1.2685 9.83125L1.26275 9.86245C1.19655 10.2713 1.4714 10.6739 1.88029 10.7401C2.28801 10.8061 2.67211 10.53 2.73994 10.1231C2.74203 10.1121 2.74776 10.0828 2.75392 10.0551C2.76626 9.9997 2.7876 9.91188 2.82143 9.79572C2.88911 9.56339 3.00664 9.21806 3.2018 8.79238C3.59163 7.94207 4.29262 6.76789 5.53048 5.53002C6.76834 4.29216 7.94253 3.59117 8.79284 3.20134C9.21852 3.00618 9.56385 2.88865 9.79618 2.82097C9.91234 2.78714 10.0583 2.75363 10.1137 2.7413C10.5207 2.67347 10.8065 2.28755 10.7405 1.87983Z"
              fill="white"/>
        <path fill-rule="evenodd" clip-rule="evenodd"
              d="M10.5143 5.3293C10.4005 4.93102 9.98536 4.7004 9.58708 4.81419L9.79312 5.53534C9.58708 4.81419 9.58708 4.81419 9.58708 4.81419L9.58564 4.81461L9.58411 4.81505L9.58077 4.81602L9.57302 4.81834L9.55324 4.8245C9.53816 4.82932 9.51933 4.8356 9.49688 4.84357C9.45196 4.85951 9.39261 4.88217 9.3198 4.91337C9.17412 4.97581 8.97505 5.07223 8.73054 5.21694C8.24108 5.50662 7.57289 5.9878 6.78792 6.77277C6.00294 7.55775 5.52177 8.22593 5.23208 8.7154C5.08737 8.95991 4.99095 9.15897 4.92852 9.30466C4.89732 9.37746 4.87465 9.43682 4.85871 9.48173C4.85075 9.50418 4.84447 9.52301 4.83964 9.53809L4.83348 9.55788L4.83117 9.56563L4.83019 9.56896L4.82975 9.5705C4.82975 9.5705 4.82934 9.57194 5.55048 9.77798L4.82934 9.57194C4.71554 9.97021 4.94616 10.3853 5.34444 10.4991C5.73933 10.6119 6.15078 10.3862 6.26866 9.99413L6.27235 9.98335C6.27769 9.96832 6.28872 9.93874 6.30724 9.89554C6.34424 9.8092 6.41133 9.66797 6.52295 9.47938C6.74592 9.10264 7.14862 8.53339 7.84858 7.83343C8.54853 7.13348 9.11778 6.73078 9.49452 6.50781C9.68311 6.39619 9.82434 6.32909 9.91068 6.29209C9.95388 6.27358 9.98346 6.26254 9.99849 6.25721L10.0093 6.25352C10.4013 6.13564 10.6271 5.72419 10.5143 5.3293Z"
              fill="white"/>
    </symbol>

    <!-- email -->
    <symbol id="contact-email" viewBox="0 0 24 24">
        <path fill-rule="evenodd" clip-rule="evenodd"
              d="M3.17157 5.17157C2 6.34315 2 8.22876 2 12C2 15.7712 2 17.6569 3.17157 18.8284C4.34315 20 6.22876 20 10 20H14C17.7712 20 19.6569 20 20.8284 18.8284C22 17.6569 22 15.7712 22 12C22 8.22876 22 6.34315 20.8284 5.17157C19.6569 4 17.7712 4 14 4H10C6.22876 4 4.34315 4 3.17157 5.17157ZM18.5762 7.51986C18.8413 7.83807 18.7983 8.31099 18.4801 8.57617L16.2837 10.4066C15.3973 11.1452 14.6789 11.7439 14.0448 12.1517C13.3843 12.5765 12.7411 12.8449 12 12.8449C11.2589 12.8449 10.6157 12.5765 9.95518 12.1517C9.32112 11.7439 8.60271 11.1452 7.71636 10.4066L5.51986 8.57617C5.20165 8.31099 5.15866 7.83807 5.42383 7.51986C5.68901 7.20165 6.16193 7.15866 6.48014 7.42383L8.63903 9.22291C9.57199 10.0004 10.2197 10.5384 10.7666 10.8901C11.2959 11.2306 11.6549 11.3449 12 11.3449C12.3451 11.3449 12.7041 11.2306 13.2334 10.8901C13.7803 10.5384 14.428 10.0004 15.361 9.22291L17.5199 7.42383C17.8381 7.15866 18.311 7.20165 18.5762 7.51986Z"
              fill="white"/>
    </symbol>

    <!-- address -->
    <symbol id="contact-address" viewBox="0 0 24 24">
        <path fill-rule="evenodd" clip-rule="evenodd"
              d="M12 2C7.58172 2 4 6.00258 4 10.5C4 14.9622 6.55332 19.8124 10.5371 21.6744C11.4657 22.1085 12.5343 22.1085 13.4629 21.6744C17.4467 19.8124 20 14.9622 20 10.5C20 6.00258 16.4183 2 12 2ZM12 12C13.1046 12 14 11.1046 14 10C14 8.89543 13.1046 8 12 8C10.8954 8 10 8.89543 10 10C10 11.1046 10.8954 12 12 12Z"
              fill="white"/>
    </symbol>

    <!-- Footer Shape -->
    <symbol id="footer-shape" viewBox="0 0 632 101">
        <svg width="632" height="101" viewBox="0 0 632 101" fill="none" xmlns="http://www.w3.org/2000/svg">
            <path d="M512.374 0.5H-102.504L-103.495 100.5H631.18C629.585 97.4004 628.19 94.5328 626.813 91.6973C625.336 88.6554 623.88 85.6503 622.208 82.4268L564.441 15.1846C558.078 10.4409 549.056 6.76936 539.611 4.28223C530.743 1.94692 521.541 0.665599 513.884 0.514648L512.374 0.5Z" fill="url(#paint0_linear_5007_273)" stroke="url(#paint1_linear_5007_273)"/>
            <defs>
                <linearGradient id="paint0_linear_5007_273" x1="406.016" y1="1.65127e-08" x2="405.886" y2="100.873" gradientUnits="userSpaceOnUse">
                    <stop stop-color="#3B56FF" stop-opacity="0.08"/>
                    <stop offset="0.497712" stop-color="#3B56FF" stop-opacity="0.03"/>
                    <stop offset="0.772" stop-color="#3B56FF" stop-opacity="0"/>
                </linearGradient>
                <linearGradient id="paint1_linear_5007_273" x1="264" y1="101" x2="264" y2="0" gradientUnits="userSpaceOnUse">
                    <stop stop-color="#3B56FF" stop-opacity="0"/>
                    <stop offset="1" stop-color="#3B56FF" stop-opacity="0.14"/>
                </linearGradient>
            </defs>
        </svg>
    </symbol>

    <!-- Rounded Shape -->
    <symbol id="rounded-shape" viewBox="0 0 102 99">
        <svg width="102" height="99" viewBox="0 0 102 99" fill="none" xmlns="http://www.w3.org/2000/svg">
            <path d="M0 99C45.0207 21.4041 80.8966 0 102 0V99H0Z" fill="url(#paint0_linear_4108_14952)"/>
            <defs>
                <linearGradient id="paint0_linear_4108_14952" x1="255.754" y1="0" x2="255.754" y2="99" gradientUnits="userSpaceOnUse">
                    <stop stop-color="#3B56FF" stop-opacity="0.12"/>
                    <stop offset="0.5" stop-color="#3B56FF" stop-opacity="0.03"/>
                    <stop offset="0.77" stop-color="#233499" stop-opacity="0"/>
                </linearGradient>
            </defs>
        </svg>
    </symbol>

    <!-- Card Shape -->
    <symbol id="card-shape" viewBox="0 0 152 256" fill="none">
        <g clip-path="url(#clip0_4085_7902)"><path d="M153.053 -48.2847C157.884 20.4973 107.462 230.878 0 267.843" stroke="url(#paint0_linear_4085_7902)" stroke-opacity="0.12" stroke-width="1.01859"/><path d="M29.7785 262.73C124.342 226.928 168.712 23.1688 164.461 -43.4484L261.972 347.369L109.861 404.96C93.0685 336.966 30.1544 262.587 29.7785 262.73Z" fill="url(#paint1_linear_4085_7902)"/><path d="M164.461 -41.6263C168.712 24.9909 124.342 228.75 29.7786 264.552" stroke="url(#paint2_linear_4085_7902)" stroke-opacity="0.12" stroke-width="1.01859"/></g><defs><linearGradient id="paint0_linear_4085_7902" x1="155.867" y1="-23.2253" x2="-12.3489" y2="251.866" gradientUnits="userSpaceOnUse"><stop stop-color="white"/><stop offset="1" stop-color="white" stop-opacity="0"/></linearGradient><linearGradient id="paint1_linear_4085_7902" x1="88.4051" y1="-14.6528" x2="230.047" y2="359.456" gradientUnits="userSpaceOnUse"><stop stop-color="#000733"/><stop offset="0.727" stop-color="#000733" stop-opacity="0"/></linearGradient><linearGradient id="paint2_linear_4085_7902" x1="166.937" y1="-17.3557" x2="-2.62415" y2="234.583" gradientUnits="userSpaceOnUse"><stop stop-color="white"/><stop offset="0.6875" stop-color="white" stop-opacity="0"/></linearGradient><clipPath id="clip0_4085_7902"><rect width="152" height="256" fill="white"/></clipPath></defs>
    </symbol>

    <!-- Iran -->
    <symbol id="iran" viewBox="0 0 24 24" fill="none">
        <path fill="url(#paint0_linear_4096_8157)" d="m23.032 19.277-.017-.024-.012-.014-.01-.006-.029-.01-.013-.009-.03-.027-.014-.005h-.011l-.063.02h-.015l-.02-.002-.03.002-.06.018-.03.005-.066.013-.032.002-.036-.008-.027-.015-.009-.003-.008.001-.016.01h-.009l-.017-.01-.05-.044.018-.001.011-.009.008-.014.005-.018.002-.021-.006-.014-.022-.027.06-.136.007-.053-.006-.067-.011-.12-.006-.064-.01-.104-.006-.077-.03-.125-.022-.089.019-.147.016-.134-.005-.045-.026-.015-.187.038-.024-.015-.072-.078-.017-.028-.008-.023-.007-.013-.012-.007-.02-.007-.018-.01-.012-.016-.01-.017-.013-.016-.032-.016-.152-.031-.095-.043-.037-.008-.076-.006-.035-.011-.055-.032-.069-.019-.021-.012-.036-.041-.073-.068-.048-.061-.118-.107-.034-.041-.033-.072-.033-.037-.006-.02-.002-.022-.007-.025-.048-.111-.01-.014-.013-.01-.015-.007-.01-.007-.002-.007.003-.008.009-.009.01-.01.004-.013-.003-.011-.011-.009-.02-.008-.009-.02-.006-.022-.012-.018-.012-.007-.01-.001-.011-.004-.012-.014-.006-.014-.003-.033-.004-.015-.015-.022-.036-.04-.011-.027v-.026l.014-.046.002-.026-.011-.033-.02-.014-.024-.01-.023-.018-.094-.112-.09-.107-.087-.104-.075-.09-.06-.071-.093-.11.066-.077.087-.102.178-.211.095-.114.065-.077.124-.148.094-.112.132-.158.145-.175.095-.114.02-.021-.004-.007-.001-.002.002-.024.002-.009.007-.004-.004-.091-.005-.016.022-.043.008-.028v-.026l-.006-.027-.014-.043-.02-.043-.003-.014-.002-.039-.01-.03-.03-.05-.011-.028v-.027l.007-.057-.008-.025-.04-.052-.024-.017-.03-.013-.195-.028-.225-.033-.197-.028-.192-.028-.116-.017-.038-.016-.014-.126-.016-.065-.003-.031.014-.1-.016-.124-.002-.065.008-.084-.001-.029-.005-.014-.006-.013-.002-.014.01-.03-.007-.007-.01-.006-.004-.008.009-.02.03-.04.007-.022.015-.107.003-.11-.04-.145-.05-.188-.047-.157-.042-.143-.04-.136-.039-.132-.032-.111-.017-.088-.002-.107.007-.02.056-.075.062-.083.056-.076.044-.06.033-.029.037-.023.013-.016.006-.027-.002-.024-.004-.023.003-.02.02-.013.055-.003.017-.007.01-.017-.01-.02-.02-.017-.018-.01-.038-.01-.044-.003-.085.004-.09-.007-.093-.038-.072-.07-.029-.1.01-.045.035-.08.003-.054-.033-.21-.015-.138.007-.062.032-.065.037-.047.04-.042.054-.028.018-.02-.008-.03.082-.004.116-.007.086-.006-.013-.026-.085-.11-.019-.036-.01-.016-.015-.013-.028-.013-.01-.01-.01-.033-.007-.01-.01-.004-.012-.002.017-.03.028-.014.063-.009.029-.008.022-.015.052-.06.006-.01.008-.01.015-.008.016-.003.015.001.014-.003.011-.016.005-.034-.004-.036.002-.033.02-.024.037-.028.022-.04.007-.024.035-.011.01-.046.004-.05v-.011l-.006-.026-.001-.015.003-.017.017-.026.003-.014.004-.027.017-.052.007-.058.008-.02.028-.04-.012-.012-.002-.011.003-.013.002-.016-.003-.005-.04-.056-.007-.013.007-.007.012-.006v-.013l-.006-.014-.006-.006v-.043l.007-.03.017-.014h.024l.028-.005.021-.013.01-.024-.006-.072.006-.03.006-.015.024-.032.007-.014.01-.044.012-.027.027-.033.016-.027.007-.029-.003-.029-.012-.057-.008-.013-.029-.043-.015-.032-.003-.038.004-.008.016-.015.004-.01-.001-.025v-.008l.008-.033v-.015l-.007-.01.007-.032v-.022l-.005-.022-.005-.05-.008-.025-.01-.024-.011-.02-.019-.022-.02-.018-.023-.013-.028-.004-.016-.007.013-.017.023-.02.015-.014v-.013l-.004-.029.004-.017.007-.007.01-.004.01-.007.005-.015v-.013l.002-.014.004-.013.005-.01.013-.015.002-.009-.002-.007-.003-.043-.017-.088-.017-.028-.004-.013v-.034l-.002-.014-.005-.015-.005-.008-.007-.01-.01-.006-.01-.005.003-.01.002-.004.003-.005-.016-.041.007-.07.025-.114-.007-.022-.002-.017.005-.015.007-.01.006-.014.005-.016.001-.018-.002-.017-.004-.014-.01-.022-.009-.048-.046-.006-.057-.01-.118.001-.137.003-.245.005-.16.002-.183.004-.038-.021-.023-.042-.034-.087-.024-.04-.122-.147-.053-.082-.043-.091-.034-.046-.043-.018-.094-.017-.042-.025-.076-.063-.165-.054-.012-.001-.011.006-.014.02-.008.01-.01.002-.016-.012-.008-.024-.006-.027-.008-.022-.019-.021-.017-.003-.036.014h-.01l-.01-.005-.009-.008-.007-.008-.02-.004-.002-.01.003-.013.001-.01.002-.003.004-.005.001-.007-.006-.01-.022-.024-.072-.06-.013-.02-.023-.098-.002-.03.004-.016.007-.015.004-.012-.003-.012-.007-.016.004-.032-.005-.02-.023-.03-.023-.022-.026-.007-.065.03-.024-.003-.154-.11-.037-.039-.013-.007-.033-.005-.015-.005-.017-.011-.045-.021-.089-.02-.07-.04-.005.011-.003.021-.015.02-.012.004h-.012l-.025-.004h-.013l-.008.007-.007.008-.01.006-.026.003-.026-.004-.05-.02-.057-.051-.02-.01-.022.002-.017.012-.014.02-.01.025-.016.024-.02.01-.104.01-.016-.004-.03-.022-.015-.007-.09-.013-.02-.008-.018-.016-.006-.017v-.02l-.003-.026-.004-.01-.018-.035-.001-.01.002-.011v-.01l-.009-.01-.02-.01-.018-.004-.038-.003-.076-.018-.18-.086-.04-.01h-.019l-.019.005-.019.002-.017-.008-.007-.009-.01-.021-.008-.008-.01-.003-.019.005-.01-.001-.014-.01-.014-.012-.016-.01h-.017l-.017.004-.056.002-.059-.017-.019-.003-.02.003-.018.006-.018.002-.165-.065-.029-.039.023-.076.003-.025-.006-.025-.025-.035-.013-.043-.038-.041-.013-.02-.02-.05-.027-.046-.005-.013v-.01l-.004-.01-.013-.008-.024-.008-.013-.002-.012.002-.02.01-.014.014-.023.04-.013.015-.038.024-.016.015-.02.011-.024-.003-.046-.02-.172-.031-.018-.006-.04-.023-.044-.036-.011-.003-.055.01-.093.04-.018.004-.016-.007-.014-.012-.016-.01-.02-.005-.105.004-.041.016-.04.027-.072.067-.007.02.031.036.006.025-.005.027-.01.023-.02.013-.098.017-.018-.003-.041-.017-.047-.006-.164.03-.018-.001-.016-.005-.03-.017-.02-.006h-.059l-.017-.006-.044-.026-.072-.016h-.034l-.227.048-.073.003-.028.011-.085.066-.024.013-.024.019-.013.002-.052.017-.025.014-.01.023-.014.006-.067.012-.022.008-.01.01-.012.027-.009.011-.012.005-.017.003-.013.007-.006.02-.01.015-.053.06-.173.119-.034.037-.015.024-.006.023-.005.029-.02.045.002.03.004.008.014.012.005.01.001.01-.001.034-.004.021-.015.036-.004.022-.005.01-.03.025-.054.036-.014.013-.023.01-.028.03-.017.008h-.026l-.07-.015-.026.004-.194.113-.041.013h-.025l-.027-.003-.025.001-.021.014-.022.02-.02.01h-.023l-.313-.027.011.123.005.02.035.094.026.12.018.054.027.042-.026.049-.003.02.021.01.018.009.006.024v.148l-.009.024-.013.012-.144.039-.02-.007-.018-.01-.178-.016-.047-.02-.028-.038h.009l.023-.009-.037.002-.017-.005-.009-.016h.059l.067.009.018-.004.032-.012.017-.003.03.01.018.002.014-.007.052-.017.082-.01.065-.022.003-.055-.056.048-.083.02-.452.025-.051.009-.382.085-.19.058-.196.059-.196.04-.205.038-.197.05-.189.068-.212.029-.205-.06-.212-.038-.205-.059-.32-.063-.097-.044-.166-.117-.18-.099-.018-.014-.034-.037-.016-.007-.024-.006-.127-.086-.022-.006-.017-.01-.057-.069-.083-.063-.04-.038-.035-.057-.027-.077-.016-.026-.01-.02-.015-.053-.01-.02.004-.052-.036-.034-.054-.021-.15-.035-.096-.037.01-.011h.006l.013.004.01-.002-.04-.02-.037.006-.04.016-.047.007-.441-.06-.087-.028-.185-.097-.083-.06-.078-.08-.058-.087-.024-.055-.012-.056.002-.01.003-.014v-.015l-.04-.066-.01-.022-.004-.031v-.033l.01-.028-.048-.17-.016-.177-.022-.054-.002-.077-.008-.031.013-.043-.003-.128-.075-.016h-.037l-.025.014-.023.023-.03.018-.03.013-.028.008-.059-.005-.037-.035-.03-.053-.044-.054-.017-.025-.02-.02-.019-.03-.018-.017-.015-.02-.008-.039-.013-.031h-.027l-.058.027-.035-.001-.021-.02-.018-.026-.056-.045-.002-.025.005-.028-.009-.034-.014-.012-.152-.075-.075-.06-.023-.042-.003-.06.011-.017.06-.037.004-.01v-.01l.003-.01.212-.038.048-.029.01-.016.01-.019.005-.02v-.02l-.006-.02-.034-.074-.017-.017-.066-.027-.065-.063-.029-.04-.015-.04.002-.05.021-.042.033-.032.04-.02.071-.014.06-.04.042-.014-.025-.054-.032-.044-.079-.073-.193-.231-.07-.066-.023-.015-.016-.005-.013.02-.012.012-.014.003-.088-.002-.027.008-.022.015-.067.069-.16.09-.06.06-.015.01-.026.004-.08.027-.048.027-.038.031-.057.074-.038.039-.048.027-.114.044-.055.034-.011.013-.004.014-.042.067-.02.056-.005.01-.012.015-.077.043-.014.003-.017-.005-.032-.014h-.018l-.02.01-.017.014-.015.018-.03.051-.006.01-.01.007-.019.01-.008.007-.014.022-.02.045-.019.018-.066.034-.02.017-.016.02-.033.067-.013.021-.016.018-.018.014-.018.012-.025.01-.02.001-.021-.005-.12-.054-.016-.003-.012.001-.028.01-.044.001-.015.004-.023.01-.06.044-.02.01-.076.01h-.011l-.067-.016-.076-.034-.242-.051-.085-.033-.103-.002-.065-.016h-.032l-.014-.004-.024-.014-.031-.008-.026-.013-.025-.016-.013-.016-.002-.016.003-.012.005-.013.002-.015-.005-.01-.027-.012-.011-.008-.006-.012-.01-.032-.004-.012-.01-.011-.011-.007-.01-.007-.008-.015.01-.022-.007-.016-.015-.01-.016-.002-.011-.006V2.83l.003-.014-.003-.01h-.011l-.01.003-.009.006-.003.002-.12-.04-.03.01-.007-.022-.012-.074-.008-.016-.01-.014-.027-.062-.01-.015-.01-.005-.012-.014-.01-.016-.003-.01-.006-.008-.042-.028-.004-.005-.002-.007-.004-.006-.01-.003H2.01l-.03-.022-.003-.01.01-.018-.025-.021-.014-.03-.034-.143-.014-.032-.024-.017.004-.005.004-.006-.027-.001-.025-.005-.02-.012-.004-.004-.093-.068-.022-.019-.069-.032-.015-.018-.031-.046-.018-.013-.028.008-.122.1-.006.018.006.048-.003.023-.007.02-.038.076-.005.02-.002.024.002.021.004.02v.017l-.012.018-.006.033.004.028v.027l-.02.029-.022.016-.06.027-.024.006-.03-.002-.079-.04-.027-.003-.063.017-.026.003-.026-.003H.951l-.017.006-.023.015-.013.018.007.018.03.035.005.015.007.031.014.03v.01l-.003.01v.014l.004.012.014.03v.013l-.007.026.001.013.03.023.05.027.045.031.01.036-.024.045-.005.024.01.058-.01.017-.02.015-.015.028.006.01.004.01.004.023.007.01.01.009.01.009v.025l.003.012.005.01.011.034.016.022.019.018.06.029.006.043-.031.106-.005.03.003.018.005.018.006.026-.005.01-.01.01-.004.01.015.007.02.007.01.006.008.01.008.023v.03l-.006.059.01.074v.025l-.015.059v.017l.003.037v.014l-.004.024.003.012.01.008.018.007.057.011.038-.022.014-.003.018.007.017.014.014.02.009.022v.023l-.025.038-.042.032-.033.037.005.07-.003.028-.008.028-.007.022-.009.011-.02.009-.01.008-.001.013.01.027-.007.01-.022.01-.015.012-.011.018-.01.03-.01.023-.027.031-.01.021-.01.02-.008.017-.002.018.006.02v.02l-.01.015-.011.015-.005.016.02.032.04.006.074-.009.014.004.042.02.012.01.007.012.004.017.007.018.012.016.009.003.008-.003.007-.001.01.007v.007l-.005.023v.009l.008.016.016.002.019-.007.014-.008.031-.004.032.015.03.025.041.052.003.013-.012.019-.04.032-.01.013-.004.044.023.025.026.02.005.025-.011.029-.007.035-.003.036.006.03.005.024-.015.043.007.024.015.009.043.003.018.014.016.041.01.012.042-.006.011.013.007.02.01.02.065.042.027.03-.004.047-.014.017-.016.01-.014.012-.008.026.004.029.01.024.008.024-.007.028-.016.041v.014l.01.026.006.01.008.003.009.003.008.006.005.009.006.022.005.007.01.002.023-.007h.011l.008.004.013.014.025.013.008.014-.002.015-.013.016-.006.038.006.025.011.024.006.032-.007.034-.016.026-.04.05-.012.035.008.025.023.015.03.007.036-.002.016.003.015.012.01.013.012.008.014.005h.015l.019.01.017.024.028.05.012.032-.002.026-.022.052-.012.049-.001.03-.004.002-.014.006-.005.003-.003.023.017.021.022.02.015.015.001.02.008.012.01.01.009.014.005.018.002.014.004.013.013.015.031.015.034-.003.064-.026.03.002.02.026.012.035.006.033.003.061.007.025.022.028-.028.018.007.017.021.017.017.016.005.027-.002.065.005.03.036.047.015.028-.005.029-.014.022-.014.029-.007.03.007.022.02.021.025.004.026-.009.022-.015h.001l.02-.007.039-.018.03-.001.07.026.042.039.015.009.031.006.034.031.054.076.029.072.014.019.02.006.044-.013.013.002.019.013.023-.001.022-.012.028-.023h.012l.012.004.011.001.037-.013.073.004.024-.008.022-.013.018-.006h.02l.035.013.008.002.006.005.005.029.005.01.007.007.01.008.023.01.024-.001.05-.01.02-.009.02-.014.02-.01.026.003.019.013.009.02-.003.021-.013.024-.018.016-.035.022-.016.023-.018.017-.024.003-.045-.002-.058.03-.023.005-.08-.002-.024.008-.015.016-.009.023-.004.025v.023l.011.054-.003.02-.035-.011h-.005l-.006.001.01.028.013.027.004.006.002.006-.001.006-.005.005-.009.007-.006.01-.003.01v.014l.015.04.074.118.063.056.028.032.008.041-.008.02-.014.017-.01.018.002.022.016.011h.045l.017.014-.004.037-.025.042-.015.04.024.028-.01.017-.012.006-.014.003-.03.01-.02-.005h-.012l-.03.02-.017.015-.019.005-.034-.015H3.14l-.012-.004-.024-.016-.017-.005-.008.003-.016.026v.007l.002.017-.002.006-.007.004-.016.001-.007.003-.013.012-.005.016v.018l.003.02.01.036-.002.026-.01.025-.01.035-.016.023-.032-.011-.034-.018-.026.001-.008.027.002.035-.005.034-.032.023-.033.003-.015.006-.01.016-.004.016.002.029-.004.016-.031.036-.01.023.018.02.01.004.01.009.008.01.004.01.004.016.005.008.006.007.005.01.004.026v.026l.004.024.013.018.003.009v.015l-.003.014-.005.01h-.007l-.025-.008-.079-.007-.035-.008-.04-.02-.045-.014-.004.038.01.056-.002.041-.006.011-.006.01-.008.01-.008.007-.06.013-.012.019.036.114.015.03.02.015.024-.018h.025l.024.015.018.027.006.031-.002.035-.016.066-.005.013-.017.026-.002.012.006.016.008.012.007.012v.015l-.012.016-.046.038-.017.018-.028.025-.013.03-.01.035-.017.039-.01.01-.011.007-.025.011.024.034.026.014.03.002.034-.005h.003l.002.002.002.002.103.185.015.017.017.015.016.016.008.023.005.028.008.024.011.023.016.022.017.018.054.038.009.021v.049l.007.01.02-.005.02-.013.033-.032.02-.009.056-.001.025-.006-.005.042.02.02.025.017.008.03-.014.021-.054.034-.018.023.02.017.033.008.035-.004.021-.02.006-.004.006-.001.006.001.005.003.004.002.004.003.038.048.013.024.01.026.003.027v.024l.006.02.04.037.045.064.036.03.016.016.01.023v.014l-.006.026-.001.011.005.013.013.008.001.013-.008.017-.016.02-.03.03-.025.018-.019.004-.019-.001-.025.002-.023.013-.001.017.015.013.051.006.022.01.016.014.007.019-.008.023-.017.017-.02.016-.013.017.024.054.068.008.135-.015.122.038.114.054.033.033.111.064.053.043.075.045.048.054.346.3v.001l.037.027.035.018.036.008.04-.004.02-.008.053-.029.016.002.065.022.025.013.015.017.012.02.02.025.03.023.007.01.002.016-.005.009-.006.007-.01.026-.005.005v.006l.008.018.005.008.034.033.006.007.004.008.02.028.008.008.011.005.006.017.022.017.006.018-.001.019-.006.013-.007.012-.005.014-.002.02.001.01.008.006.018.005.014.01.01.013.01.012.017.002.022.01.02.027.026.059.018.02.04.02.011.024.006.024.04.073.009.01.02.014.01.009.005.012.006.023.004.01.019.02.045.035.016.024.003.029-.007.03-.175.475-.007.552h.378l.012.008.004.017-.004.64.002.04.121.018.013.005.012.007.02.02.014.027.01.029.01.058.005.012.009.01.013.006.013.002h.014l.042-.008h.015l.013.006.011.01.024.038.037.042.044.04.008.011.005.014.003.014-.003.015-.009.01-.01.01-.01.012-.002.014.002.01.015.03.022.026.007.013.003.003.021.066.002.017.01.026.006.008.008.008.015.012.017.01.045.015v-.001l-.002-.002h.002l.007-.008v.008l.084.008.026-.008.01-.006.01-.01.01-.01.003-.014-.003-.018-.016-.025-.006-.016.004-.023.018.005.05.026h.08l.022.01.02-.009.078.01.023-.007.021-.017.015-.024.007-.026v-.014l-.007-.026v-.014l.003-.015.01-.027.002-.016-.006-.06-.008-.03-.01-.023-.018-.021-.024-.018-.02-.02-.008-.028.004-.007.007-.01.005-.01-.013-.012.006-.017.01-.016.004-.006.063-.058.014-.004.062.009h.02l.022-.023-.009-.024L6.63 15l-.036-.008-.031-.013.008-.027.033-.02.041.006.02-.011h.02l.02.007.023.004.006-.002.01-.006.008-.002.008.005.013.018.006.005.016-.004.012-.01.01-.002.01.015-.005.006-.002.005-.002.017.018-.013.018-.02.014-.006.009.048.01.02.017.012.024-.005v.022l-.007.015-.034.043-.022.039-.007.018-.015-.021-.015-.014-.02-.008-.025-.003-.016-.005-.047-.025-.024-.006-.02.003-.038.013-.025.002-.047-.009-.019.006-.012.021.036.01.03.015.021.027.007.043.016.014.076.045.027.009.02.002.012.013.01.017.02.013.02-.003.017-.016.012-.021.006-.023.014.01v.008l-.004.008-.002.01v.027l.005.008.016.011.004.004-.002.055.01.011.03.002.024-.005.043-.018.024-.004.01.003.016.012.013.003.014-.001.025-.006.012-.002.025.002.01.003.012.004.012.008.005.005.003.007.008.012.009.023v.06l.003.021.033.047.036.009.042-.018.36-.23.042-.014.043-.007.041.005.04.015.017.012.007.014.006.022.015.026.019.024.016.013-.007.035.026.075-.013.044.016.008.007.01-.005.007-.018.002.005.014v.024l.004.016.004.007.045.045.047.03.022.018.027.04.053.096.03.044.031.035.017.025.007.026.01.014.069.026.037.038.018.026.008.022.01.017.06.05.033.05.007.014v-.04l.018.009.022.03.016.028.008.035.006.052v.051l-.007.033.013.025.008.008.01.003-.002.01-.005.053-.018-.02-.01.01-.007.022-.009.018-.01.016-.003.016.002.031.01.037.026.022.032.005.03-.019.02-.003.09-.006.028.005.004.007.003.01v.023l.005.006.01-.003.01-.006.007-.002.014.013.008.013.01.038.02-.006.012.02.003.03-.004.028-.008.014-.023.02-.009.01-.001.014.005.011.002.01-.013.01-.01-.021-.02-.024-.022-.019-.023-.008-.023.014-.004.032.006.036.01.025.054.068.009.026.009.014.023.006.046.003.049.01.037.024.03.035.025.047.015.057v.166l.01.04.07.173.01.014.037.04.04.062.014.017.04.036.024.039.002.034-.025.07v.034l.005.018.01.014.081.077.022.016.054.015.028.013.013.021.004.031.01.025.016.02.052.054.024.018.032.01.006.006.003.01.002.013.005.008.014.003.126.01.023-.002.068-.015.057.001.028.007.021.014.019.006.08-.01.054.007.048.02.041.028.136.126.043.022.205.044.042.018.038.03.086.089.008.013.018.042.01.016.017.014.046.018.019.015.01.03-.014.013-.025.003h-.022l-.024.002-.019.008-.01.017.001.026.023.025.15.066.042.028.092.083.053.015.024.014.01.028.01.013.069.017.014.018.012.02.016.017.024.008.025.002.39.132.037.023.02.024.01.026.002.06.007.026.016.02.112.084.086.05.06.052.014.005.027-.014.028.002.051.016h.026l.046-.014.053-.007.075-.035.024-.005h.012l.01.005.022.018.012.003.02.004.079.023.024.002.088-.006.021-.006.024-.004.024.005.034.027.022.04.017.04.02.034.042.02.105-.005.05.01.035.032.014.037.02.03.05.007.098-.009.014.003.02.011.014.003.012-.003.008-.008.008-.008.007-.006.125-.073.11-.09.013-.007.075-.068.017-.007.05-.015.023-.003.028-.006.011-.017.006-.023.014-.025.044-.02.052.007.093.032.052.002.048-.01.043-.021.038-.033.016-.026.013-.037.007-.038-.004-.031-.009.008-.007.004-.016.005.062-.069.012-.01.015-.007.038-.036.022-.01h.012l.036.009h.043l.01-.003.017-.012.013-.003.038.002.012-.002.048-.011.051-.006.012-.005.022-.017.006-.005v-.005l.028-.023.077-.047.02-.017.01-.006.008-.002.007-.004.002-.014.004-.006.02-.019.008-.006.03-.006.075-.003.025-.012.026-.018.037-.01.071-.004.035.005.06.024.035.007.072.004.034.007.028.016.008-.01.025.008.12.002.01.005.01.012.01.013.017.006h.031l.015-.006.013-.013.008.029.018.026.028.02.033.004v.01l-.01.007-.02.022-.005.004-.011.005v.01l.007.007.015-.004v.013l.002.01.007.005.022-.011.008.005.006.009.006.004.006.003.005.006.007.006.01.003.012-.002.035-.016-.007.01-.004.013.001.012.01.009-.014.006-.011.008-.013.004h-.016l.01.012.036.023-.001.021.014.02.039.034.016.023.074.297.004.06-.02.159.001.012.004.029.003.011.006.01.022.02.012.024.009.028.006.058.01.008-.007.034.076.083.015.04-.012.027-.036.038-.007.027.002.015.011.025.005.02.016.047.003.015.002.005.005.001.014-.002.005.001.026.03.002.005.01.01.01.025.015.051.028.065.007.062.008.02.017.009.153.01-.008.008.078.024.028.003.012-.002.023-.006.014-.001.013.003.023.012.014.002.064-.014.026-.003h.029l.023.007.019.016.011.029.002.01v.004l-.003.007-.005.014-.005.056h.018l.026-.015.039-.032.046-.024.048-.012.043.01.036.043.034.073.026.034.03.014.038.006.037.012.037.007.043-.007.04-.028.007-.003.004.01h.01l.012-.003.009-.007.013-.012h.006l.004.005.008.003.017-.005.027-.022.015-.008.037-.007.034-.002-.009.02.022.01.062.005.071-.012.209.038h.098l.013.004.006.01.005.013.007.012.01.005h.04l.045.02.029.034.053.084.015.013.019.008.023.005h.026l.01-.002.011-.005.01-.002.009.005.008.009.01.002.024-.006.065-.03.097-.016.164-.056.052-.002.05.017.068.067.047.02.046.001.203-.02.02.008.007.023.004.007.046.04.008-.002.006-.008.007-.007.095-.024.049-.004.044.012h.006l.013-.001.005.001.001.005-.002.015v.005l.014.017.009.006.039.006.013.004.023.015.007-.006.007-.024v-.01l-.002-.005v-.008l.01-.011.007-.003.032-.006.041-.002.02.003.018.008-.005.005-.011.02.025.017.058.01.023.012.068.06.013.005h.018l-.007-.018-.025-.042v-.003l.001-.005v-.006l-.004-.008-.005-.003h-.01l-.013-.007h-.008l-.006-.004-.004-.026-.004-.007v-.009l.01-.014.018-.022.011-.017.02-.01.078-.025.02-.002.021.003.018.01.042.041.003.012v.07l.004.018.028.04-.018.016.02.01.108.014.16.037.187.032.193.055.004.007.007.03.004.006.044.017.228.052-.015-.014-.017-.011.063-.019.016-.008.01-.009v-.012l.006-.013.018-.023.006-.012-.01-.011-.01-.007-.027-.008.024-.02.02.001.018.008.025.002-.007-.005-.011-.014-.007-.006.004-.008.002-.02.003-.007.011-.007.005.003.004.008.02.015.003.02.007.02.036-.106.007-.107.008-.126.006-.108.005-.074.004-.018.007-.012.017-.017.007-.01.004-.044-.013-.05-.006-.047.024-.033.025-.006h.022l.02-.004.017-.021.007-.023.012-.088.014-.106.011-.08.01-.067.01-.078.01-.04.016-.034.028-.02.139-.04.04-.028.022-.01.024-.008.048-.007.01-.013.004-.032.02-.03.043.005.05.018.044.006.025-.013-.001-.018-.012-.024-.006-.03.008-.015.037-.035.012-.022-.002-.009-.004-.006-.004-.009.002-.011.008-.01.01-.006.022-.009.01-.005.015-.011.009-.004.01-.002.025.002.012-.003.006-.006.01-.017.01-.007.01-.003.192-.02.024-.009.01-.007.009-.01.009-.006.012.003.013.006h.01l.035-.007.01-.004.01-.005.007-.006.011-.022.01-.011.012-.004.078.002.09.002.104.003.045.007.045.001.033-.007h.011l.01.005.009.006.009.005h.011l.026-.025.012-.05.01-.187.008-.02.018-.01.047-.007.017-.016.004-.024-.01-.02-.014-.02-.01-.025-.006-.145.002-.015.005-.013.011-.017.005-.013.012-.02.023-.01h.025l.02.007zm-8.072.251-.029-.012-.023-.006-.045.001-.152.034-.12.078-.044.01-.16-.06-.03.017.008.01.02.015.019.019.009.021.005.058-.004.024-.018.02.005.008.004.01-.011.003-.012.01-.008.004h-.012l-.024-.001h-.012l-.075.03-.022.018-.054.033-.019.007-.022.002-.153.05-.061.034-.01-.003-.013.006-.054-.019-.013.013.012.04.006.006-.002.015-.008.023.005.031.006.015.01.006.01-.002.014-.004.013-.007.005-.009.005-.01h.011l.014.004.009.002.01-.004.022-.014.05-.014.071-.007.02-.011.04-.029.064-.027.062-.044.024-.012.023-.005.053.008h.024l.021-.012.022-.018.077-.04.029.023.025.026.026.011.034-.02.057-.054.01-.006.01-.012.043-.022.01-.01.007-.018.048-.048.013-.022.026-.058.026-.022.07-.019.037-.02-.009-.024zm-1.966 1.356-.027.008-.015.008.005.014.018.008.016.004.011-.008-.002-.023zm1.548-.96-.01.002-.02.015-.014.028-.003.03.019.01.023-.014.016-.027-.002-.03zm-2.59-.012-.011-.003-.023.001-.01.014.012.015.02.01.02.004.015-.015-.009-.02zm1.014.56.006-.002.024-.049-.004-.009-.006-.007-.007-.005-.007-.004-.012-.012-.01-.003-.01.005-.008.01-.004.015v.012l.003.013.001.017.007.007.013.007zm-1.36-.739-.086-.006-.097-.03-.01.001-.01.003-.008.002-.005.006.01.012.037.03.017.011.02.009.066.011h.022l.021-.012.013-.003.045.004.016-.005-.024-.022zm3.48-.078-.03.014-.016.023-.006.034.022.009.044-.014.034-.03-.005-.04zm.147-.264-.013-.005-.012-.008-.02.004-.022.03-.003.032.037.013.018-.002.015-.008.01-.012.005-.016-.004-.019zm-2.815.733-.009-.004-.001-.011v-.012l-.003-.008-.016-.006-.043-.005-.02-.006-.022-.001-.02.006-.017.013-.012.017.024.038.037.018.093.005.013-.006.005-.016-.002-.015zm-4.27-3.555h-.006l-.01-.007-.018-.004.003.027.014.04.017.027.007-.02.005-.026v-.025l-.004-.019zm-1.491-1.562.01-.01v-.006h.002v.006l.012.001h.016v-.007l-.001-.013-.002-.01-.004-.004.004-.003.002-.005-.001-.007-.008-.002H6.67l-.005.007h-.003l-.004-.006-.007.002h-.001l-.012.003-.001.012-.004.005v.012l.001.014.008.003.008.003.005-.006v.006zm7.226 5.43-.013-.007-.013.009-.009.004-.004.01.004.013.006.006.009.003h.011l.011-.008-.001-.004.002-.008z"/><defs><linearGradient id="paint0_linear_4096_8157" x1="11.984" x2="11.984" y1="1.959" y2="21.959" gradientUnits="userSpaceOnUse"><stop offset=".17" stop-color="#fff"/><stop offset=".53" stop-color="#cdd4df"/><stop offset="1" stop-color="#6e7ba3"/></linearGradient></defs>
    </symbol>

    <!-- National -->
    <symbol id="national" viewBox="0 0 24 24" fill="none">
        <path fill="url(#paint0_linear_4094_8139)" fill-rule="evenodd" d="M2.028 11.25C2.41 6.077 6.73 2 12 2c-.83 0-1.57.364-2.18.921-.605.554-1.116 1.328-1.53 2.242-.416.92-.74 1.996-.959 3.163a20 20 0 0 0-.318 2.924zm0 1.5h4.985c.036 1.002.143 1.988.318 2.924.22 1.167.543 2.243.959 3.163.414.914.925 1.688 1.53 2.242.61.557 1.35.921 2.18.921-5.27 0-9.589-4.077-9.972-9.25" clip-rule="evenodd"/><path fill="url(#paint1_linear_4094_8139)" d="M12 3.395c-.275 0-.63.117-1.043.495-.416.381-.833.978-1.201 1.791-.366.808-.663 1.783-.867 2.873-.16.858-.26 1.768-.296 2.696h6.814a18.5 18.5 0 0 0-.296-2.696c-.204-1.09-.5-2.065-.867-2.873-.368-.813-.784-1.41-1.2-1.79-.414-.379-.769-.496-1.044-.496"/><path fill="url(#paint2_linear_4094_8139)" d="M8.889 15.446c.204 1.09.501 2.065.867 2.873.368.813.785 1.41 1.2 1.79.414.379.77.496 1.044.496.275 0 .63-.117 1.043-.495.417-.381.833-.978 1.201-1.791.366-.808.663-1.783.867-2.873.161-.858.261-1.768.296-2.696H8.593c.035.928.135 1.838.296 2.696"/><path fill="url(#paint3_linear_4094_8139)" d="M12 2c.831 0 1.57.364 2.18.921.605.554 1.117 1.328 1.53 2.242.417.92.74 1.996.959 3.163.175.936.282 1.922.318 2.924h4.985C21.59 6.077 17.271 2 12 2"/><path fill="url(#paint4_linear_4094_8139)" d="M16.669 15.674c-.219 1.167-.542 2.243-.959 3.163-.413.914-.925 1.688-1.53 2.242-.61.557-1.349.921-2.18.921 5.27 0 9.589-4.077 9.972-9.25h-4.985a20 20 0 0 1-.318 2.924"/><defs><linearGradient id="paint0_linear_4094_8139" x1="12" x2="12" y1="2" y2="22" gradientUnits="userSpaceOnUse"><stop offset=".17" stop-color="#fff"/><stop offset=".53" stop-color="#cdd4df"/><stop offset="1" stop-color="#6e7ba3"/></linearGradient><linearGradient id="paint1_linear_4094_8139" x1="12" x2="12" y1="2" y2="22" gradientUnits="userSpaceOnUse"><stop offset=".17" stop-color="#fff"/><stop offset=".53" stop-color="#cdd4df"/><stop offset="1" stop-color="#6e7ba3"/></linearGradient><linearGradient id="paint2_linear_4094_8139" x1="12" x2="12" y1="2" y2="22" gradientUnits="userSpaceOnUse"><stop offset=".17" stop-color="#fff"/><stop offset=".53" stop-color="#cdd4df"/><stop offset="1" stop-color="#6e7ba3"/></linearGradient><linearGradient id="paint3_linear_4094_8139" x1="12" x2="12" y1="2" y2="22" gradientUnits="userSpaceOnUse"><stop offset=".17" stop-color="#fff"/><stop offset=".53" stop-color="#cdd4df"/><stop offset="1" stop-color="#6e7ba3"/></linearGradient><linearGradient id="paint4_linear_4094_8139" x1="12" x2="12" y1="2" y2="22" gradientUnits="userSpaceOnUse"><stop offset=".17" stop-color="#fff"/><stop offset=".53" stop-color="#cdd4df"/><stop offset="1" stop-color="#6e7ba3"/></linearGradient></defs>
    </symbol>

    <!-- windows -->
    <symbol id="windows" viewBox="0 0 24 24" fill="none">
        <path d="M2 22H11.4799V12.5205H2V22ZM2 11.4796H11.4799V2H2V11.4796ZM12.5201 11.4796H22V2H12.5201V11.4796ZM12.5201 22H22V12.5205H12.5201V22Z" fill="url(#paint0_linear_4096_8158)"/>
        <defs><linearGradient id="paint0_linear_4096_8158" x1="12" y1="2" x2="12" y2="22" gradientUnits="userSpaceOnUse"><stop offset="0.17" stop-color="white"/><stop offset="0.53" stop-color="#CDD4DF"/><stop offset="1" stop-color="#6E7BA3"/></linearGradient></defs>
    </symbol>

    <!-- Linux -->
    <symbol id="linux" viewBox="0 0 24 24">
        <g clip-path="url(#clip0_4103_12106)"><path fill="url(#paint0_linear_4103_12106)" d="M7.6 17.54a2.6 2.6 0 0 1-.304-.693c-1.506-1.699-.343-4.199.808-5.896q.165-.273.362-.525c.878-1.09 1.105-1.85 1.172-2.877.008-.191-.007-.445-.026-.735-.092-1.486-.247-3.953 2.403-4.172 3.312-.273 3.042 2.768 3.018 4.552l-.003.215c-.009 1.074.552 1.81 1.138 2.579.213.28.43.565.625.872q.007.015.017.028c1.023 1.476 2.033 3.678.627 5.767-.198.713-.497 1.367-.896 1.9-1.434 1.887-2.71 1.696-3.705 1.546-.3-.045-.575-.086-.821-.066a7 7 0 0 0-1.02.149c-1.094.22-1.522.307-3.395-2.643"/><path fill="url(#paint1_linear_4103_12106)" d="M13.888 4.31c-.03.874-.958 1.633-2.07 1.703-1.11.07-1.983-.593-1.952-1.467.03-.874.958-1.634 2.07-1.704 1.111-.064 1.983.594 1.952 1.468"/><path fill-rule="evenodd" d="M11.874 6.432c.009.475.226.88.532 1.063-.997-.089-2.233.276-2.233.966-.016 1.167-.665 2.62-1.133 3.665q-.14.31-.249.565a6.5 6.5 0 0 0-.484 2.236c-.766-1.057-.21-2.413.091-3.002.4-.774.392-.87.237-.69-.595 1.013-1.716 3.046-.313 4.267.045.545.178 1.074.414 1.56 1.879 3.79 5.398 2.233 6.558.268a6 6 0 0 0 .379-.811q.087.055.186.083c.583.173 1.455-.485 1.664-.893.252-.542-.006-.912-.866-1.353l-.13-.06c.33-1.39-.578-2.833-1.227-3.445-.121-.03-.138.038.05.226.408.391 1.297 1.788.816 3.088a2 2 0 0 0-.228-.045c-.148-.887-.542-1.577-.817-2.059q-.095-.163-.165-.295c-.092-.177-.203-.36-.32-.555-.453-.75-1.006-1.664-1.006-3.018-.07-.298-.35-.497-.725-.607.435-.087.76-.595.75-1.205-.013-.657-.424-1.18-.915-1.168s-.885.562-.866 1.219m.405.146c-.006.364.166.658.393.658.221 0 .412-.294.418-.651.006-.364-.166-.657-.393-.657-.228 0-.412.293-.418.65" clip-rule="evenodd"/><path fill="#1f1e57" fill-rule="evenodd" d="M10.646 7.454c.356-.02.614-.498.584-1.066s-.344-1.008-.7-.989-.614.498-.584 1.066c.031.567.344 1.008.7.989m.215-.868c.031.3-.08.555-.24.58-.159.02-.312-.204-.343-.504-.03-.3.08-.555.24-.58.159-.02.313.204.343.504" clip-rule="evenodd"/><path fill="url(#paint2_linear_4103_12106)" d="M12.371 6.377c-.019.204.074.37.203.382s.251-.146.27-.344c.018-.204-.074-.37-.203-.383s-.252.147-.27.345"/><path fill="url(#paint3_linear_4103_12106)" d="M10.726 6.427c.018.166-.05.312-.147.325-.099.013-.19-.115-.21-.287-.018-.166.05-.313.148-.325s.19.12.209.287"/><path fill="#1c1a55" d="M14.503 13.08c0 1.123-1.038 2.578-2.82 2.565-1.835.013-2.615-1.442-2.615-2.565s1.216-2.035 2.714-2.035c1.505.006 2.72.912 2.72 2.035"/><path fill="#1d1c55" d="M13.532 9.551c-.018 1.162-.75 1.436-1.67 1.436-.921 0-1.59-.172-1.67-1.436 0-.79.749-1.25 1.67-1.25.92-.007 1.67.453 1.67 1.25"/><path fill="url(#paint4_linear_4103_12106)" d="M7.963 11.339c.602-.95 1.873-2.412.24.204-1.327 2.157-.492 3.541-.062 3.924 1.24 1.148 1.191 1.92.215 1.314-2.094-1.295-1.658-3.477-.393-5.442"/><path fill="url(#paint5_linear_4103_12106)" d="M16.676 11.729c-.522-1.117-2.18-3.95.08-.657 2.057 2.98.614 5.053.356 5.257s-1.124.619-.872-.102c.258-.721 1.535-2.086.436-4.498"/><path fill="url(#paint6_linear_4103_12106)" d="M7.508 20.531c-1.376-.759-3.371.147-2.647-1.907.148-.466-.215-1.168.019-1.621.276-.555.872-.434 1.228-.804.35-.383.571-1.046 1.228-.944.651.102 1.087.931 1.541 1.952.338.727 1.53 1.755 1.45 2.572-.099 1.25-1.468 1.486-2.819.752"/><path fill="url(#paint7_linear_4103_12106)" fill-rule="evenodd" d="M6.26 16.35c-.335.365-.95.277-1.196.756-.158.307.015.78.038 1.117.029.416-.316 1.005-.14 1.36.197.399 1.088.347 1.48.405.966.14 2.564 1.392 3.438.393.855-.976-.788-2.211-1.19-3.079-.263-.589-.655-1.717-1.385-1.832-.515-.08-.749.555-1.046.88m1.107-1.31c.91.143 1.364 1.322 1.7 2.075.508 1.093 2.253 2.267 1.122 3.559-1.027 1.173-2.648-.087-3.806-.256-.578-.085-1.49-.024-1.793-.636-.26-.527.131-1.004.095-1.528-.03-.447-.208-.927.01-1.352.298-.596.872-.451 1.263-.854.415-.456.664-1.123 1.41-1.007" clip-rule="evenodd"/><path fill="url(#paint8_linear_4103_12106)" d="M17.045 20.181c1.007-1.27 3.249-1.008 1.738-2.75-.32-.376-.221-1.18-.614-1.525-.46-.42-.97-.076-1.437-.293-.467-.236-.958-.69-1.53-.37-.57.325-.632 1.167-.687 2.278-.049.797-.749 2.13-.375 2.864.541 1.136 1.947.983 2.905-.204"/><path fill="url(#paint9_linear_4103_12106)" fill-rule="evenodd" d="M17.447 15.467c.258-.007.567.01.857.275.362.319.365.839.501 1.274.162.516.727.81.693 1.415-.055.988-1.766 1.226-2.293 1.89-.506.627-1.146 1-1.753 1.05-.92.077-1.681-.697-1.627-1.643.043-.765.433-1.46.48-2.22.028-.55.057-1.059.157-1.473.1-.418.281-.778.64-.982.784-.438 1.542.435 2.345.414m-2.145-.033c-.213.122-.348.345-.435.707-.088.365-.116.834-.144 1.394-.047.761-.438 1.456-.481 2.219-.04.68.484 1.242 1.177 1.184.47-.039 1.013-.336 1.464-.895.404-.508 2.161-.98 2.198-1.638.024-.429-.54-.831-.673-1.255-.104-.33-.11-.844-.375-1.077-.17-.155-.348-.178-.576-.172-.66.017-1.542-.808-2.155-.467" clip-rule="evenodd"/><path fill="#fefeff" d="M17.39 15.689c-.185.331-.934.854-1.432.714-.51-.134-.742-.88-.638-1.442.092-.638.638-.67 1.326-.35.731.344.958.637.743 1.077"/><path fill="#edf0f4" fill-rule="evenodd" d="M10.119 7.661a.33.33 0 0 0-.127.378c.087.3.716.714.957.916a.87.87 0 0 0 .546.22c.542.037.843-.38 1.318-.536.312-.102.968-.254.75-.7-.187-.382-.996-.277-1.309-.487-.537-.358-.48-.148-.759-.048-.305.11-1.1.043-1.376.257m1.256-.347c.363-.131.033-.395.625 0 .39.261 1.328.146 1.563.625.299.61-.198.792-.675.948-.51.168-.796.59-1.408.548a1.1 1.1 0 0 1-.689-.277c-.346-.291-.932-.568-1.065-1.029-.075-.255.19-.028.4-.19.338-.262.866-.487 1.25-.625" clip-rule="evenodd"/><path fill="#edeff3" fill-rule="evenodd" d="M12.768 8.302a.054.054 0 0 1-.05.058c-.412.023-.7.493-1.165.493-.26 0-.466-.126-.613-.246-.03-.025-.292-.226-.292-.278 0-.03.024-.055.053-.055.055 0 .22.18.281.23.139.113.345.239.57.239.46 0 .743-.47 1.16-.493a.054.054 0 0 1 .056.052" clip-rule="evenodd"/></g><defs><linearGradient id="paint0_linear_4103_12106" x1="12.354" x2="12.354" y1="2.625" y2="20.279" gradientUnits="userSpaceOnUse"><stop offset=".17" stop-color="#fff"/><stop offset=".53" stop-color="#cdd4df"/><stop offset="1" stop-color="#6e7ba3"/></linearGradient><linearGradient id="paint1_linear_4103_12106" x1="12.054" x2="11.847" y1="2.914" y2="5.727" gradientUnits="userSpaceOnUse"><stop stop-color="#fff" stop-opacity=".8"/><stop offset="1" stop-color="#fff" stop-opacity="0"/></linearGradient><linearGradient id="paint2_linear_4103_12106" x1="12.626" x2="12.539" y1="6.054" y2="6.709" gradientUnits="userSpaceOnUse"><stop stop-color="#fff" stop-opacity=".65"/><stop offset="1" stop-color="#fff" stop-opacity="0"/></linearGradient><linearGradient id="paint3_linear_4103_12106" x1="10.532" x2="10.626" y1="6.172" y2="6.702" gradientUnits="userSpaceOnUse"><stop stop-color="#fff" stop-opacity=".65"/><stop offset="1" stop-color="#fff" stop-opacity="0"/></linearGradient><linearGradient id="paint4_linear_4103_12106" x1="7.988" x2="7.988" y1="10.224" y2="15.691" gradientUnits="userSpaceOnUse"><stop stop-color="#fff" stop-opacity=".65"/><stop offset="1" stop-color="#fff" stop-opacity="0"/></linearGradient><linearGradient id="paint5_linear_4103_12106" x1="16.718" x2="16.716" y1="9.691" y2="14.631" gradientUnits="userSpaceOnUse"><stop stop-color="#fff" stop-opacity=".65"/><stop offset="1" stop-color="#fff" stop-opacity="0"/></linearGradient><linearGradient id="paint6_linear_4103_12106" x1="7.519" x2="7.519" y1="15.244" y2="20.945" gradientUnits="userSpaceOnUse"><stop offset=".17" stop-color="#fff"/><stop offset=".53" stop-color="#cdd4df"/><stop offset="1" stop-color="#6e7ba3"/></linearGradient><linearGradient id="paint7_linear_4103_12106" x1="7.532" x2="7.532" y1="15.027" y2="21.168" gradientUnits="userSpaceOnUse"><stop offset=".17" stop-color="#fff"/><stop offset=".53" stop-color="#cdd4df"/><stop offset="1" stop-color="#6e7ba3"/></linearGradient><linearGradient id="paint8_linear_4103_12106" x1="16.661" x2="16.661" y1="15.133" y2="21.159" gradientUnits="userSpaceOnUse"><stop offset=".17" stop-color="#fff"/><stop offset=".53" stop-color="#cdd4df"/><stop offset="1" stop-color="#6e7ba3"/></linearGradient><linearGradient id="paint9_linear_4103_12106" x1="16.661" x2="16.661" y1="14.93" y2="21.377" gradientUnits="userSpaceOnUse"><stop offset=".17" stop-color="#fff"/><stop offset=".53" stop-color="#cdd4df"/><stop offset="1" stop-color="#6e7ba3"/></linearGradient><clipPath id="clip0_4103_12106"><path fill="#fff" d="M2 2h20v20H2z"/></clipPath></defs>
    </symbol>

    <!-- Disk -->
    <symbol id="disk" viewBox="0 0 24 24">
        <path d="M5.5 13.5882H18.5C19.8111 13.5882 20.9538 14.3515 21.5534 15.4813L19 5.11765C18.5 3.52941 17.6046 3 16.5 3H7.5C6.39543 3 5.5 3.52941 5 5.11765L2.44664 15.4813C3.04623 14.3515 4.18893 13.5882 5.5 13.5882Z" fill="#BACAFF"/>
        <path fill-rule="evenodd" clip-rule="evenodd" d="M18.5 13.5879H5.5C4.18893 13.5879 3.04623 14.3512 2.44664 15.4809C2.16221 16.0169 2 16.6353 2 17.2938C2 19.3405 3.567 20.9997 5.5 20.9997H18.5C20.433 20.9997 22 19.3405 22 17.2938C22 16.6353 21.8378 16.0169 21.5534 15.4809C20.9538 14.3512 19.8111 13.5879 18.5 13.5879ZM18 16.25C18.4142 16.25 18.75 16.5858 18.75 17V18C18.75 18.4142 18.4142 18.75 18 18.75C17.5858 18.75 17.25 18.4142 17.25 18V17C17.25 16.5858 17.5858 16.25 18 16.25ZM16.25 17C16.25 16.5858 15.9142 16.25 15.5 16.25C15.0858 16.25 14.75 16.5858 14.75 17V18C14.75 18.4142 15.0858 18.75 15.5 18.75C15.9142 18.75 16.25 18.4142 16.25 18V17ZM13 16.25C13.4142 16.25 13.75 16.5858 13.75 17V18C13.75 18.4142 13.4142 18.75 13 18.75C12.5858 18.75 12.25 18.4142 12.25 18V17C12.25 16.5858 12.5858 16.25 13 16.25ZM11.25 17C11.25 16.5858 10.9142 16.25 10.5 16.25C10.0858 16.25 9.75 16.5858 9.75 17V18C9.75 18.4142 10.0858 18.75 10.5 18.75C10.9142 18.75 11.25 18.4142 11.25 18V17Z" fill="#1844DA"/>
    </symbol>

    <!-- CPU -->
    <symbol id="cpu" viewBox="0 0 24 24">
        <path fill-rule="evenodd" clip-rule="evenodd" d="M12 3C12.3853 3 12.6977 3.31236 12.6977 3.69767V6.48884C13.2084 6.48991 13.6717 6.49342 14.0932 6.50495L14.093 6.48837V3.69767C14.093 3.31236 14.4054 3 14.7907 3C15.176 3 15.4884 3.31236 15.4884 3.69767V6.48837C15.4884 6.52487 15.4856 6.56072 15.4802 6.5957C16.4162 6.71067 17.0648 6.94879 17.558 7.44198C18.0512 7.93517 18.2893 8.58381 18.4043 9.51984C18.4393 9.51443 18.4751 9.51163 18.5116 9.51163H21.3023C21.6876 9.51163 22 9.82399 22 10.2093C22 10.5946 21.6876 10.907 21.3023 10.907H18.5116L18.495 10.9068C18.5066 11.3283 18.5106 11.7916 18.5116 12.3023H21.3023C21.6876 12.3023 22 12.6147 22 13C22 13.3853 21.6876 13.6977 21.3023 13.6977L18.5112 13.6977C18.5101 14.2084 18.5066 14.6717 18.495 15.0932L18.5116 15.093H21.3023C21.6876 15.093 22 15.4054 22 15.7907C22 16.176 21.6876 16.4884 21.3023 16.4884H18.5116C18.4751 16.4884 18.4393 16.4856 18.4043 16.4802C18.2893 17.4162 18.0512 18.0648 17.558 18.558C17.0648 19.0512 16.4162 19.2893 15.4802 19.4043C15.4856 19.4393 15.4884 19.4751 15.4884 19.5116V22.3023C15.4884 22.6876 15.176 23 14.7907 23C14.4054 23 14.093 22.6876 14.093 22.3023V19.5116L14.0932 19.495C13.6717 19.5066 13.2084 19.5106 12.6977 19.5116V22.3023C12.6977 22.6876 12.3853 23 12 23C11.6147 23 11.3023 22.6876 11.3023 22.3023L11.3023 19.5112C10.7916 19.5101 10.3283 19.5066 9.90678 19.495L9.90698 19.5116V22.3023C9.90698 22.6876 9.59462 23 9.2093 23C8.82399 23 8.51163 22.6876 8.51163 22.3023V19.5116C8.51163 19.4751 8.51443 19.4393 8.51984 19.4043C7.58381 19.2893 6.93517 19.0512 6.44198 18.558C5.94879 18.0648 5.71067 17.4162 5.5957 16.4802C5.56071 16.4856 5.52487 16.4884 5.48837 16.4884H2.69767C2.31236 16.4884 2 16.176 2 15.7907C2 15.4054 2.31236 15.093 2.69767 15.093H5.48837L5.50495 15.0932C5.49342 14.6717 5.48944 14.2084 5.48837 13.6977H2.69767C2.31236 13.6977 2 13.3853 2 13C2 12.6147 2.31236 12.3023 2.69767 12.3023L5.48884 12.3023C5.48991 11.7916 5.49342 11.3283 5.50495 10.9068L5.48837 10.907H2.69767C2.31236 10.907 2 10.5946 2 10.2093C2 9.82399 2.31236 9.51163 2.69767 9.51163H5.48837C5.52487 9.51163 5.56071 9.51443 5.5957 9.51984C5.71067 8.58381 5.94879 7.93517 6.44198 7.44198C6.93517 6.94879 7.58381 6.71067 8.51984 6.5957C8.51443 6.56072 8.51163 6.52487 8.51163 6.48837V3.69767C8.51163 3.31236 8.82399 3 9.2093 3C9.59462 3 9.90698 3.31236 9.90698 3.69767V6.48837L9.90678 6.50495C10.3283 6.49342 10.7916 6.48944 11.3023 6.48837V3.69767C11.3023 3.31236 11.6147 3 12 3ZM11.0238 8.5814C10.4054 8.58136 9.87247 8.58133 9.44573 8.63871C8.98839 8.70019 8.55001 8.83885 8.19443 9.19443C7.83885 9.55001 7.70019 9.98839 7.63871 10.4457C7.58133 10.8725 7.58136 11.4054 7.5814 12.0238V13.9762C7.58136 14.5946 7.58133 15.1275 7.63871 15.5543C7.70019 16.0116 7.83885 16.45 8.19443 16.8056C8.55001 17.1612 8.98839 17.2998 9.44573 17.3613C9.87247 17.4187 10.4054 17.4186 11.0238 17.4186H12.9762C13.5946 17.4186 14.1275 17.4187 14.5543 17.3613C15.0116 17.2998 15.45 17.1612 15.8056 16.8056C16.1612 16.45 16.2998 16.0116 16.3613 15.5543C16.4187 15.1275 16.4186 14.5946 16.4186 13.9762V12.0238C16.4186 11.4054 16.4187 10.8725 16.3613 10.4457C16.2998 9.98839 16.1612 9.55001 15.8056 9.19443C15.45 8.83885 15.0116 8.70019 14.5543 8.63871C14.1275 8.58133 13.5947 8.58136 12.9762 8.5814H11.0238Z" fill="#1844DA"/>
        <path d="M9.18091 10.1809C9.23402 10.1278 9.32886 10.0621 9.63147 10.0214C9.95415 9.97804 10.3921 9.97656 11.0696 9.97656H12.9301C13.6075 9.97656 14.0455 9.97804 14.3682 10.0214C14.6708 10.0621 14.7656 10.1278 14.8187 10.1809C14.8718 10.234 14.9375 10.3289 14.9782 10.6315C15.0216 10.9542 15.0231 11.3921 15.0231 12.0696V13.9301C15.0231 14.6075 15.0216 15.0455 14.9782 15.3682C14.9375 15.6708 14.8718 15.7656 14.8187 15.8187C14.7656 15.8718 14.6708 15.9375 14.3682 15.9782C14.0455 16.0216 13.6075 16.0231 12.9301 16.0231H11.0696C10.3921 16.0231 9.95415 16.0216 9.63147 15.9782C9.32886 15.9375 9.23402 15.8718 9.18091 15.8187C9.1278 15.7656 9.06211 15.6708 9.02143 15.3682C8.97804 15.0455 8.97656 14.6075 8.97656 13.9301V12.0696C8.97656 11.3921 8.97804 10.9542 9.02143 10.6315C9.06211 10.3289 9.1278 10.234 9.18091 10.1809Z" fill="#BACAFF"/>
    </symbol>

    <!-- RAM -->
    <symbol id="ram" viewBox="0 0 24 24">
        <path d="M18.5 10V12.17C18.5 12.7 18.71 13.21 19.09 13.59L19.91 14.41C20.29 14.79 20.5 15.3 20.5 15.83V17C20.5 20 18.97 22 15.5 22H8.5C4.97 22 3.5 20 3.5 17V7C3.5 4.08 4.9 2.1 8.24 2.01C8.32 2 8.41 2 8.5 2H15.5C15.58 2 15.66 2 15.74 2.01C19.04 2.09 20.5 4.07 20.5 7V8C20.5 8.55 20.05 9 19.5 9C18.95 9 18.5 9.45 18.5 10Z" fill="#BACAFF"/>
        <path d="M9.73992 2L9.68992 4.96C9.67992 5.37 9.34992 5.7 8.93992 5.7H8.92992C8.50992 5.69 8.17992 5.35 8.18992 4.93L8.23992 2.01C8.31992 2 8.40992 2 8.49992 2H9.73992Z" fill="#1844DA"/>
        <path d="M12.7399 2L12.6899 4.95C12.6799 5.35 12.3499 5.68 11.9399 5.68H11.9299C11.5099 5.67 11.1799 5.33 11.1899 4.92L11.2399 2H12.7399Z" fill="#1844DA"/>
        <path d="M15.7399 2.01L15.6899 4.89C15.6799 5.3 15.3499 5.63 14.9399 5.63H14.9299C14.5099 5.62 14.1799 5.28 14.1899 4.87L14.2399 2H15.4999C15.5799 2 15.6599 2 15.7399 2.01Z" fill="#1844DA"/>
        <path d="M16.02 21.98C15.85 21.99 15.68 22 15.51 22H8.50998C8.32998 22 8.15998 22 7.99998 21.98L7.97998 19C7.97998 17.9 8.86998 17 9.97998 17H13.99C15.09 17 15.98 17.89 15.99 18.99L16.02 21.98Z" fill="#1844DA"/>
    </symbol>

    <!-- Play -->
    <symbol id="play" viewBox="0 0 24 24">
        <path d="M8 5.82v12.36c0 .77.84 1.25 1.5.86l9.27-6.18a1.03 1.03 0 0 0 0-1.72L9.5 4.96A1 1 0 0 0 8 5.82Z"/>
    </symbol>

    <!-- Play 2 -->

    <!-- Close -->
    <symbol id="close" viewBox="0 0 24 24" fill="none">
        <path d="m6 6 12 12M18 6 6 18" stroke-width="2" stroke-linecap="round"/>
    </symbol>

    <!-- Watch Video -->

    <!-- About Shape left -->
    <symbol id="about-shape-left" viewBox="0 0 373 850" fill="none">
        <g clip-path="url(#clip0_6001_363)"><path fill="url(#paint0_linear_6001_363)" d="M372.451 763.384C109.742 674.118-13.524 166.093-1.712.001L-272.614 974.41 149.972 1118c46.654-169.528 221.433-354.972 222.479-354.616"/><path stroke="url(#paint1_linear_6001_363)" d="M-1.712 0C-13.524 166.093 109.742 674.118 372.45 763.385"/><path fill="url(#paint2_linear_6001_363)" d="M288.244 763.384C25.535 674.118-97.725 166.093-85.927.001L-356.824 974.41 65.765 1118c46.653-169.528 221.431-354.972 222.479-354.616"/><path stroke="url(#paint3_linear_6001_363)" d="M-85.928 0c-11.797 166.093 111.463 674.118 374.17 763.385"/></g><defs><linearGradient id="paint0_linear_6001_363" x1="313.505" x2="-131.737" y1="-25.6" y2="1016.1" gradientUnits="userSpaceOnUse"><stop stop-color="#3b56ff" stop-opacity=".1"/><stop offset=".74" stop-color="#3b56ff" stop-opacity="0"/></linearGradient><linearGradient id="paint1_linear_6001_363" x1="-8.592" x2="395.322" y1="60.513" y2="729.223" gradientUnits="userSpaceOnUse"><stop stop-color="#003bff" stop-opacity=".35"/><stop offset="1" stop-color="#003bff" stop-opacity="0"/></linearGradient><linearGradient id="paint2_linear_6001_363" x1="125.37" x2="-199.495" y1="71.796" y2="1027.87" gradientUnits="userSpaceOnUse"><stop stop-color="#3b56ff" stop-opacity=".1"/><stop offset=".727" stop-color="#3b56ff" stop-opacity="0"/></linearGradient><linearGradient id="paint3_linear_6001_363" x1="-92.804" x2="311.115" y1="60.513" y2="729.223" gradientUnits="userSpaceOnUse"><stop stop-color="#003bff" stop-opacity=".35"/><stop offset="1" stop-color="#003bff" stop-opacity="0"/></linearGradient><clipPath id="clip0_6001_363"><path fill="#fff" d="M373 0H0v850h373z"/></clipPath></defs>
    </symbol>

    <!-- Plus -->
    <symbol id="plus" viewBox="0 0 24 24" fill="none">
        <path d="M20 12.0001L12 12.0001M12 12.0001L4 12.0001M12 12.0001L12 4M12 12.0001L12 20" stroke-width="1.5" stroke-linecap="round"/>
    </symbol>

    <!-- Minus -->
    <symbol id="minus" viewBox="0 0 24 24">
        <path d="M19.2 13.5C20.1941 13.5 21 12.9404 21 12.25C21 11.5596 20.1941 11 19.2 11H4.8C3.80589 11 3 11.5596 3 12.25C3 12.9404 3.80589 13.5 4.8 13.5H19.2Z"/>
    </symbol>

    <!-- uncheck -->
    <symbol id="uncheck" viewBox="0 0 28 28" xmlns="http://www.w3.org/2000/svg">
        <path fill-rule="evenodd" clip-rule="evenodd" d="M25.6673 14C25.6673 20.4433 20.444 25.6666 14.0007 25.6666C7.55733 25.6666 2.33398 20.4433 2.33398 14C2.33398 7.55666 7.55733 2.33331 14.0007 2.33331C20.444 2.33331 25.6673 7.55666 25.6673 14ZM10.4652 10.4646C10.8069 10.1229 11.3609 10.1229 11.7027 10.4646L14.0006 12.7625L16.2986 10.4646C16.6403 10.1229 17.1943 10.1229 17.536 10.4646C17.8777 10.8063 17.8777 11.3603 17.536 11.702L15.2381 14L17.536 16.2979C17.8777 16.6396 17.8777 17.1936 17.536 17.5353C17.1943 17.877 16.6402 17.877 16.2985 17.5353L14.0006 15.2374L11.7027 17.5353C11.361 17.8771 10.807 17.8771 10.4652 17.5353C10.1235 17.1936 10.1235 16.6396 10.4652 16.2979L12.7632 14L10.4652 11.702C10.1235 11.3603 10.1235 10.8063 10.4652 10.4646Z" fill="#FF3B3B"/>
    </symbol>

    <!-- check -->
    <symbol id="check" viewBox="0 0 28 28" xmlns="http://www.w3.org/2000/svg">
        <path fill-rule="evenodd" clip-rule="evenodd" d="M25.6673 14C25.6673 20.4433 20.444 25.6666 14.0007 25.6666C7.55733 25.6666 2.33398 20.4433 2.33398 14C2.33398 7.55666 7.55733 2.33331 14.0007 2.33331C20.444 2.33331 25.6673 7.55666 25.6673 14ZM18.7027 10.4646C19.0444 10.8063 19.0444 11.3603 18.7027 11.702L12.8694 17.5354C12.5277 17.8771 11.9736 17.8771 11.6319 17.5354L9.2986 15.202C8.95689 14.8603 8.95689 14.3063 9.2986 13.9646C9.64031 13.6229 10.1943 13.6229 10.536 13.9646L12.2507 15.6792L14.858 13.0719L17.4653 10.4646C17.807 10.1229 18.361 10.1229 18.7027 10.4646Z" fill="#00AEAE"/>
    </symbol>

    <!-- Reply -->
    <symbol id="reply" viewBox="0 0 24 24" xmlns="http://www.w3.org/2000/svg">
        <path fill-rule="evenodd" clip-rule="evenodd" d="M17.5303 10.0303C17.8232 9.73744 17.8232 9.26256 17.5303 8.96967L12.5303 3.96967C12.2374 3.67678 11.7626 3.67678 11.4697 3.96967L6.46967 8.96967C6.17678 9.26256 6.17678 9.73744 6.46967 10.0303C6.76256 10.3232 7.23744 10.3232 7.53033 10.0303L11.25 6.31066L11.25 14.5C11.25 15.2133 11.0298 16.3 10.3913 17.1868C9.7804 18.0353 8.75556 18.75 7 18.75C6.58579 18.75 6.25 19.0858 6.25 19.5C6.25 19.9142 6.58579 20.25 7 20.25C9.24444 20.25 10.7196 19.298 11.6087 18.0632C12.4702 16.8667 12.75 15.4534 12.75 14.5L12.75 6.31066L16.4697 10.0303C16.7626 10.3232 17.2374 10.3232 17.5303 10.0303Z" fill="white"/>
    </symbol>

    <!-- Grid -->
    <symbol id="grid" viewBox="0 0 24 24" xmlns="http://www.w3.org/2000/svg" fill="none">
        <path d="M13 15.4C13 13.3258 13 12.2887 13.659 11.6444C14.318 11 15.3787 11 17.5 11C19.6213 11 20.682 11 21.341 11.6444C22 12.2887 22 13.3258 22 15.4V17.6C22 19.6742 22 20.7113 21.341 21.3556C20.682 22 19.6213 22 17.5 22C15.3787 22 14.318 22 13.659 21.3556C13 20.7113 13 19.6742 13 17.6V15.4Z" fill="#1844DA"/>
        <path d="M2 8.6C2 10.6742 2 11.7113 2.65901 12.3556C3.31802 13 4.37868 13 6.5 13C8.62132 13 9.68198 13 10.341 12.3556C11 11.7113 11 10.6742 11 8.6V6.4C11 4.32582 11 3.28873 10.341 2.64437C9.68198 2 8.62132 2 6.5 2C4.37868 2 3.31802 2 2.65901 2.64437C2 3.28873 2 4.32582 2 6.4V8.6Z" fill="#1844DA"/>
        <path d="M13 5.5C13 4.4128 13 3.8692 13.1713 3.44041C13.3996 2.86867 13.8376 2.41443 14.389 2.17761C14.8024 2 15.3266 2 16.375 2H18.625C19.6734 2 20.1976 2 20.611 2.17761C21.1624 2.41443 21.6004 2.86867 21.8287 3.44041C22 3.8692 22 4.4128 22 5.5C22 6.5872 22 7.1308 21.8287 7.55959C21.6004 8.13133 21.1624 8.58557 20.611 8.82239C20.1976 9 19.6734 9 18.625 9H16.375C15.3266 9 14.8024 9 14.389 8.82239C13.8376 8.58557 13.3996 8.13133 13.1713 7.55959C13 7.1308 13 6.5872 13 5.5Z" fill="#BACAFF"/>
        <path d="M2 18.5C2 19.5872 2 20.1308 2.17127 20.5596C2.39963 21.1313 2.83765 21.5856 3.38896 21.8224C3.80245 22 4.32663 22 5.375 22H7.625C8.67337 22 9.19755 22 9.61104 21.8224C10.1624 21.5856 10.6004 21.1313 10.8287 20.5596C11 20.1308 11 19.5872 11 18.5C11 17.4128 11 16.8692 10.8287 16.4404C10.6004 15.8687 10.1624 15.4144 9.61104 15.1776C9.19755 15 8.67337 15 7.625 15H5.375C4.32663 15 3.80245 15 3.38896 15.1776C2.83765 15.4144 2.39963 15.8687 2.17127 16.4404C2 16.8692 2 17.4128 2 18.5Z" fill="#BACAFF"/>
    </symbol>
</svg>
